<mxfile host="65bd71144e" pages="1">
    <diagram id="_i1nu5FhPecFgXTPAHal" name="Page-1">
        <mxGraphModel dx="1927" dy="1431" grid="1" gridSize="10" guides="1" tooltips="1" connect="1" arrows="1" fold="1" page="1" pageScale="1" pageWidth="827" pageHeight="1169" background="#ffffff" math="0" shadow="0">
            <root>
                <mxCell id="0"/>
                <mxCell id="1" parent="0"/>
                <mxCell id="64" value="" style="rounded=0;whiteSpace=wrap;html=1;fillColor=#999999;strokeColor=#FFFFFF;fontColor=#ffffff;direction=south;" vertex="1" parent="1">
                    <mxGeometry x="631.5" y="290" width="480" height="170" as="geometry"/>
                </mxCell>
                <mxCell id="5" value="" style="rounded=0;whiteSpace=wrap;html=1;fillColor=#999999;strokeColor=#FFFFFF;fontColor=#ffffff;direction=south;" parent="1" vertex="1">
                    <mxGeometry x="60" y="290" width="480" height="170" as="geometry"/>
                </mxCell>
                <mxCell id="51" value="" style="rounded=0;whiteSpace=wrap;html=1;fillColor=none;strokeColor=#0000FF;" parent="1" vertex="1">
                    <mxGeometry x="380" y="320" width="80" height="40" as="geometry"/>
                </mxCell>
                <mxCell id="7" value="" style="endArrow=none;dashed=1;html=1;exitX=0.75;exitY=0;exitDx=0;exitDy=0;entryX=0.75;entryY=1;entryDx=0;entryDy=0;strokeColor=#FFFFFF;strokeWidth=4;" parent="1" source="5" target="5" edge="1">
                    <mxGeometry width="50" height="50" relative="1" as="geometry">
                        <mxPoint x="230" y="110" as="sourcePoint"/>
                        <mxPoint x="210" y="240" as="targetPoint"/>
                        <Array as="points"/>
                    </mxGeometry>
                </mxCell>
                <mxCell id="41" value="" style="endArrow=none;html=1;strokeColor=#020203;strokeWidth=2;entryX=0;entryY=0;entryDx=0;entryDy=0;" parent="1" source="42" target="16" edge="1">
                    <mxGeometry width="50" height="50" relative="1" as="geometry">
                        <mxPoint x="361" y="291" as="sourcePoint"/>
                        <mxPoint x="361" y="385" as="targetPoint"/>
                    </mxGeometry>
                </mxCell>
                <mxCell id="42" value="merge end point" style="text;html=1;resizable=0;points=[];autosize=1;align=left;verticalAlign=top;spacingTop=-4;fontColor=#050505;fontSize=14;" parent="1" vertex="1">
                    <mxGeometry x="280" y="260" width="120" height="20" as="geometry"/>
                </mxCell>
                <mxCell id="43" value="merge start point" style="text;html=1;resizable=0;points=[];autosize=1;align=left;verticalAlign=top;spacingTop=-4;fontColor=#050505;fontSize=14;" parent="1" vertex="1">
                    <mxGeometry x="150" y="260" width="120" height="20" as="geometry"/>
                </mxCell>
                <mxCell id="8" value="" style="shape=image;verticalLabelPosition=bottom;labelBackgroundColor=#ffffff;verticalAlign=top;aspect=fixed;imageAspect=0;image=data:image/svg+xml,PHN2ZyB4bWxuczpkYz0iaHR0cDovL3B1cmwub3JnL2RjL2VsZW1lbnRzLzEuMS8iIHhtbG5zOmNjPSJodHRwOi8vY3JlYXRpdmVjb21tb25zLm9yZy9ucyMiIHhtbG5zOnJkZj0iaHR0cDovL3d3dy53My5vcmcvMTk5OS8wMi8yMi1yZGYtc3ludGF4LW5zIyIgeG1sbnM6c3ZnPSJodHRwOi8vd3d3LnczLm9yZy8yMDAwL3N2ZyIgeG1sbnM9Imh0dHA6Ly93d3cudzMub3JnLzIwMDAvc3ZnIiB4bWxuczp4bGluaz0iaHR0cDovL3d3dy53My5vcmcvMTk5OS94bGluayIgdmVyc2lvbj0iMS4xIiB3aWR0aD0iMTAwJSIgaGVpZ2h0PSIxMDAlIiB2aWV3Qm94PSIwIDAgOTYwIDQ3NiIgaWQ9InN2ZzIiPiYjeGE7ICA8dGl0bGUgaWQ9InRpdGxlMzk2OCI+UmVkIENhciAtIFRvcCBWaWV3PC90aXRsZT4mI3hhOyAgPGRlZnMgaWQ9ImRlZnM0Ij4mI3hhOyAgICA8bGluZWFyR3JhZGllbnQgaWQ9ImxpbmVhckdyYWRpZW50Mzc1OSI+JiN4YTsgICAgICA8c3RvcCBpZD0ic3RvcDM3NjEiIHN0eWxlPSJzdG9wLWNvbG9yOiMxYTFhMWE7c3RvcC1vcGFjaXR5OjEiIG9mZnNldD0iMCIvPiYjeGE7ICAgICAgPHN0b3AgaWQ9InN0b3AzNzYzIiBzdHlsZT0ic3RvcC1jb2xvcjojMDAwMDAwO3N0b3Atb3BhY2l0eTowIiBvZmZzZXQ9IjEiLz4mI3hhOyAgICA8L2xpbmVhckdyYWRpZW50PiYjeGE7ICAgIDxsaW5lYXJHcmFkaWVudCB4MT0iODcxLjMzMDAyIiB5MT0iODQyLjI5OTk5IiB4Mj0iODQ4LjE1OTk3IiB5Mj0iODM0LjY3OTk5IiBpZD0ibGluZWFyR3JhZGllbnQ0MTQ5IiB4bGluazpocmVmPSIjbGluZWFyR3JhZGllbnQzNzU5IiBncmFkaWVudFVuaXRzPSJ1c2VyU3BhY2VPblVzZSIgZ3JhZGllbnRUcmFuc2Zvcm09InRyYW5zbGF0ZSg4LjMwODUsLTIuNjUxOCkiLz4mI3hhOyAgICA8bGluZWFyR3JhZGllbnQgeDE9Ijg3OS45MDAwMiIgeTE9IjUzNy41IiB4Mj0iODEyLjE0MDAxIiB5Mj0iNTMzLjUiIGlkPSJsaW5lYXJHcmFkaWVudDQxNTMiIHhsaW5rOmhyZWY9IiNsaW5lYXJHcmFkaWVudDM3NTkiIGdyYWRpZW50VW5pdHM9InVzZXJTcGFjZU9uVXNlIiBncmFkaWVudFRyYW5zZm9ybT0ibWF0cml4KDAuODkzMzIsMCwwLDAuODkzMzIsODAuMzQ5LDM2NS4xNSkiLz4mI3hhOyAgICA8bGluZWFyR3JhZGllbnQgeDE9Ijg3OS45MDAwMiIgeTE9IjUzNy41IiB4Mj0iODE1LjgyMDAxIiB5Mj0iNTMxLjkwOTk3IiBpZD0ibGluZWFyR3JhZGllbnQ0MTU1IiB4bGluazpocmVmPSIjbGluZWFyR3JhZGllbnQzNzU5IiBncmFkaWVudFVuaXRzPSJ1c2VyU3BhY2VPblVzZSIgZ3JhZGllbnRUcmFuc2Zvcm09InRyYW5zbGF0ZSgyNy42MjUsMjk2LjQ5KSIvPiYjeGE7ICAgIDxsaW5lYXJHcmFkaWVudCB4MT0iODcxLjMzMDAyIiB5MT0iODQyLjI5OTk5IiB4Mj0iODQ4LjE1OTk3IiB5Mj0iODM0LjY3OTk5IiBpZD0ibGluZWFyR3JhZGllbnQ0MTg1IiB4bGluazpocmVmPSIjbGluZWFyR3JhZGllbnQzNzU5IiBncmFkaWVudFVuaXRzPSJ1c2VyU3BhY2VPblVzZSIgZ3JhZGllbnRUcmFuc2Zvcm09Im1hdHJpeCgxLDAsMCwtMSw4LjMwODUsMTQ1MikiLz4mI3hhOyAgICA8bGluZWFyR3JhZGllbnQgeDE9Ijg4Ny45MDAwMiIgeTE9IjUyOC4zNTk5OSIgeDI9Ijg3Ni4xNDAwMSIgeTI9IjUyOC40MTk5OCIgaWQ9ImxpbmVhckdyYWRpZW50NDE4NyIgeGxpbms6aHJlZj0iI2xpbmVhckdyYWRpZW50Mzc1OSIgZ3JhZGllbnRVbml0cz0idXNlclNwYWNlT25Vc2UiIGdyYWRpZW50VHJhbnNmb3JtPSJtYXRyaXgoMSwwLDAsLTEsMjEuNDM4LDExNTEuNSkiLz4mI3hhOyAgICA8bGluZWFyR3JhZGllbnQgeDE9Ijg3OS45MDAwMiIgeTE9IjUzNy41IiB4Mj0iODE1LjgyMDAxIiB5Mj0iNTMxLjkwOTk3IiBpZD0ibGluZWFyR3JhZGllbnQ0MTg5IiB4bGluazpocmVmPSIjbGluZWFyR3JhZGllbnQzNzU5IiBncmFkaWVudFVuaXRzPSJ1c2VyU3BhY2VPblVzZSIgZ3JhZGllbnRUcmFuc2Zvcm09Im1hdHJpeCgxLDAsMCwtMSwyNy42MjUsMTE1Mi45KSIvPiYjeGE7ICAgIDxsaW5lYXJHcmFkaWVudCB4MT0iODk3LjIxOTk3IiB5MT0iNTQyLjQwMDAyIiB4Mj0iODgzLjc2MDAxIiB5Mj0iNTM1LjM3IiBpZD0ibGluZWFyR3JhZGllbnQ0MTkxIiB4bGluazpocmVmPSIjbGluZWFyR3JhZGllbnQzNzU5IiBncmFkaWVudFVuaXRzPSJ1c2VyU3BhY2VPblVzZSIgZ3JhZGllbnRUcmFuc2Zvcm09Im1hdHJpeCgxLDAsMCwtMSwyMS40MzgsMTE1MS41KSIvPiYjeGE7ICAgIDxsaW5lYXJHcmFkaWVudCB4MT0iODgwLjcxMDAyIiB5MT0iNTUyLjA0OTk5IiB4Mj0iODM1Ljk4OTk5IiB5Mj0iNTAxLjA3OTk5IiBpZD0ibGluZWFyR3JhZGllbnQ0MTkzIiB4bGluazpocmVmPSIjbGluZWFyR3JhZGllbnQzNzU5IiBncmFkaWVudFVuaXRzPSJ1c2VyU3BhY2VPblVzZSIgZ3JhZGllbnRUcmFuc2Zvcm09Im1hdHJpeCgxLDAsMCwtMSwyMS40MzgsMTE1MS41KSIvPiYjeGE7ICAgIDxsaW5lYXJHcmFkaWVudCB4MT0iODg3LjkwMDAyIiB5MT0iNTI4LjM1OTk5IiB4Mj0iODA1LjI4OTk4IiB5Mj0iNTI5LjYwOTk5IiBpZD0ibGluZWFyR3JhZGllbnQ0MTk1IiB4bGluazpocmVmPSIjbGluZWFyR3JhZGllbnQzNzU5IiBncmFkaWVudFVuaXRzPSJ1c2VyU3BhY2VPblVzZSIgZ3JhZGllbnRUcmFuc2Zvcm09Im1hdHJpeCgwLjg5MzMyLDAsMCwtMC44OTMzMiw5NC4xNTYsMTA4Ny44KSIvPiYjeGE7ICAgIDxsaW5lYXJHcmFkaWVudCB4MT0iODc5LjkwMDAyIiB5MT0iNTM3LjUiIHgyPSI4MTIuMTQwMDEiIHkyPSI1MzMuNSIgaWQ9ImxpbmVhckdyYWRpZW50NDE5NyIgeGxpbms6aHJlZj0iI2xpbmVhckdyYWRpZW50Mzc1OSIgZ3JhZGllbnRVbml0cz0idXNlclNwYWNlT25Vc2UiIGdyYWRpZW50VHJhbnNmb3JtPSJtYXRyaXgoMC44OTMzMiwwLDAsLTAuODkzMzIsODAuMzQ5LDEwODQuMikiLz4mI3hhOyAgICA8bGluZWFyR3JhZGllbnQgeDE9IjIyOS43IiB5MT0iODczLjE0MDAxIiB4Mj0iMjA1LjU5IiB5Mj0iODY3LjY3OTk5IiBpZD0ibGluZWFyR3JhZGllbnQ0MTk5IiB4bGluazpocmVmPSIjbGluZWFyR3JhZGllbnQzNzU5IiBncmFkaWVudFVuaXRzPSJ1c2VyU3BhY2VPblVzZSIgZ3JhZGllbnRUcmFuc2Zvcm09Im1hdHJpeCgwLjk5MDQzLC0wLjEzNzk5LC0wLjEzNzk5LC0wLjk5MDQzLDE0Ni4wNSwxNDgzLjMpIi8+JiN4YTsgICAgPGxpbmVhckdyYWRpZW50IHgxPSIyMzguODMiIHkxPSI4NzMuMDYiIHgyPSIyMTYuNTYiIHkyPSI4NzIuNjUwMDIiIGlkPSJsaW5lYXJHcmFkaWVudDQyMDEiIHhsaW5rOmhyZWY9IiNsaW5lYXJHcmFkaWVudDM3NTkiIGdyYWRpZW50VW5pdHM9InVzZXJTcGFjZU9uVXNlIiBncmFkaWVudFRyYW5zZm9ybT0ibWF0cml4KDAuOTkwNDMsLTAuMTM3OTksLTAuMTM3OTksLTAuOTkwNDMsMTU2LjMxLDE0ODIpIi8+JiN4YTsgICAgPGxpbmVhckdyYWRpZW50IHgxPSI4ODcuOTAwMDIiIHkxPSI1MjguMzU5OTkiIHgyPSI4NzYuMTQwMDEiIHkyPSI1MjguNDE5OTgiIGlkPSJsaW5lYXJHcmFkaWVudDQyMDMiIHhsaW5rOmhyZWY9IiNsaW5lYXJHcmFkaWVudDM3NTkiIGdyYWRpZW50VW5pdHM9InVzZXJTcGFjZU9uVXNlIiBncmFkaWVudFRyYW5zZm9ybT0idHJhbnNsYXRlKDIxLjQzOCwyOTcuOTEpIi8+JiN4YTsgICAgPGxpbmVhckdyYWRpZW50IHgxPSI4OTcuMjE5OTciIHkxPSI1NDIuNDAwMDIiIHgyPSI4ODMuNzYwMDEiIHkyPSI1MzUuMzciIGlkPSJsaW5lYXJHcmFkaWVudDQyMDUiIHhsaW5rOmhyZWY9IiNsaW5lYXJHcmFkaWVudDM3NTkiIGdyYWRpZW50VW5pdHM9InVzZXJTcGFjZU9uVXNlIiBncmFkaWVudFRyYW5zZm9ybT0idHJhbnNsYXRlKDIxLjQzOCwyOTcuOTEpIi8+JiN4YTsgICAgPGxpbmVhckdyYWRpZW50IHgxPSI4ODAuNzEwMDIiIHkxPSI1NTIuMDQ5OTkiIHgyPSI4MzUuOTg5OTkiIHkyPSI1MDEuMDc5OTkiIGlkPSJsaW5lYXJHcmFkaWVudDQyMDciIHhsaW5rOmhyZWY9IiNsaW5lYXJHcmFkaWVudDM3NTkiIGdyYWRpZW50VW5pdHM9InVzZXJTcGFjZU9uVXNlIiBncmFkaWVudFRyYW5zZm9ybT0idHJhbnNsYXRlKDIxLjQzOCwyOTcuOTEpIi8+JiN4YTsgICAgPGxpbmVhckdyYWRpZW50IHgxPSI4ODcuOTAwMDIiIHkxPSI1MjguMzU5OTkiIHgyPSI4MDUuMjg5OTgiIHkyPSI1MjkuNjA5OTkiIGlkPSJsaW5lYXJHcmFkaWVudDQyMDkiIHhsaW5rOmhyZWY9IiNsaW5lYXJHcmFkaWVudDM3NTkiIGdyYWRpZW50VW5pdHM9InVzZXJTcGFjZU9uVXNlIiBncmFkaWVudFRyYW5zZm9ybT0ibWF0cml4KDAuODkzMzIsMCwwLDAuODkzMzIsOTQuMTU2LDM2MS41NykiLz4mI3hhOyAgICA8bGluZWFyR3JhZGllbnQgeDE9IjIyOS43IiB5MT0iODczLjE0MDAxIiB4Mj0iMjA1LjU5IiB5Mj0iODY3LjY3OTk5IiBpZD0ibGluZWFyR3JhZGllbnQ0MjExIiB4bGluazpocmVmPSIjbGluZWFyR3JhZGllbnQzNzU5IiBncmFkaWVudFVuaXRzPSJ1c2VyU3BhY2VPblVzZSIgZ3JhZGllbnRUcmFuc2Zvcm09Im1hdHJpeCgwLjk5MDQzLDAuMTM3OTksLTAuMTM3OTksMC45OTA0MywxNDYuMDUsLTMzLjg4NSkiLz4mI3hhOyAgICA8bGluZWFyR3JhZGllbnQgeDE9IjIzOC44MyIgeTE9Ijg3My4wNiIgeDI9IjIxNi41NiIgeTI9Ijg3Mi42NTAwMiIgaWQ9ImxpbmVhckdyYWRpZW50NDIxMyIgeGxpbms6aHJlZj0iI2xpbmVhckdyYWRpZW50Mzc1OSIgZ3JhZGllbnRVbml0cz0idXNlclNwYWNlT25Vc2UiIGdyYWRpZW50VHJhbnNmb3JtPSJtYXRyaXgoMC45OTA0MywwLjEzNzk5LC0wLjEzNzk5LDAuOTkwNDMsMTU2LjMxLC0zMi42MDMpIi8+JiN4YTsgIDwvZGVmcz4mI3hhOyAgPGcgdHJhbnNmb3JtPSJ0cmFuc2xhdGUoLTUyLjkzNywtNDg2LjY5KSIgaWQ9ImxheWVyMSI+JiN4YTsgICAgPGcgaWQ9ImczODkwIj4mI3hhOyAgICAgIDxwYXRoIGQ9Im0gNjEwLjUyLDQ5My42OSBjIC0xLjUwODYsMC4wMDkgLTQuNzIxMSwwLjMwNDkxIC02LjQ2ODcsMC45Mzc1IGwgLTMuNSwxLjUgOC42NTYyLDM1LjkzOCAtMTI0LjgxLDAuMjgxMjUgYyAtMi40MzYzLDAuMDA1IC00Ljg4NzYsLTAuMDE0IC03LjM0MzcsLTAuMDMxMiAtNC45MTIsLTAuMDM0MyAtOS44NjQ5LC0wLjEwNDU1IC0xNC44NDQsLTAuMjE4NzUgLTcuMjkyNiwtMC4xNjcyOCAtMTQuNjY5LC0wLjQxMjg4IC0yMi4wNjIsLTAuNzE4NzUgLTAuMzk1OTEsLTAuMDE2NCAtMC43OTEzNywtMC4wNDU3IC0xLjE4NzUsLTAuMDYyNSAtMTQuOTMyLC0wLjYzMDE4IC0zMC4wMDcsLTEuNDkxNyAtNDUuMDMxLC0yLjQzNzUgLTIwLjMyNiwtMS4yODI3IC00MC41MiwtMi43MDc0IC02MC4xMjQsLTMuODc1IC0xNC41MjgsLTAuODY1MyAtMjguNzMyLC0xLjU3OTYgLTQyLjM3NSwtMiAtOS4zNjkyLC0wLjI4ODczIC0xOC40NjQsLTAuNDU2NTUgLTI3LjI1LC0wLjQwNjI1IC00LjMxNTgsMC4wMjQ3IC04LjU2NzgsMC4wOTMzIC0xMi43MTksMC4yMTg3NSAtNC4xNTA4LDAuMTI1NDYgLTguMzgwMSwwLjM1NTMgLTEyLjY1NiwwLjY1NjI1IC0yLjEzOCwwLjE1MDQ3IC00LjI3NzgsMC4zMTAyNCAtNi40Mzc0LDAuNSAtNi40Njg5LDAuNTY4NCAtMTMuMDQ1LDEuMzIxNCAtMTkuNTk0LDIuMTg3NSAtMC4wMTAxLDEwZS00IC0wLjAyMTEsLTEwZS00IC0wLjAzMTIsMCAtNC4zNzI1LDAuNTc4NTggLTguNzE4NSwxLjIyNTUgLTEzLjA2MiwxLjkwNjIgLTQuMzQzOSwwLjY4MDczIC04LjY3MzQsMS4zOTc4IC0xMi45MzcsMi4xNTYyIC00LjI1MzcsMC43NTY2MiAtOC40NzA0LDEuNTY1NCAtMTIuNTk0LDIuMzc1IC0wLjAxLDAuMDAyIC0wLjAyMTIsLTAuMDAyIC0wLjAzMTIsMCAtMi4wNjY0LDAuNDA1ODYgLTQuMDY5NywwLjgwNDE3IC02LjA5MzcsMS4yMTg4IC02LjA2MTQsMS4yNDE2IC0xMS45MzQsMi41MTYgLTE3LjUsMy43ODEyIC0wLjAxMDEsMC4wMDIgLTAuMDIxMSwtMC4wMDIgLTAuMDMxMiwwIC0zLjcxNjUsMC44NDQ5IC03LjI4NzIsMS42NzUyIC0xMC43MTksMi41IC02Ljg2MzgsMS42NDg0IC0xMy4xMTUsMy4yMzQ2IC0xOC41MzEsNC42NTYyIC04LjEyMzYsMi4xMzI1IC0xNC4zODIsMy45MjcyIC0xOC4wOTQsNSAtMi40NzM2LDAuNzE1NzggLTMuODEyNSwxLjEyNSAtMy44MTI1LDEuMTI1IGwgLTEzLjY4NywzLjc1IGMgLTAuOTAyNCwwLjI0ODczIC0xLjc3ODEsMC42OTI5IC0yLjYyNSwxLjMxMjUgLTAuMjg3NzEsMC4yMTA1IC0wLjU2MjM0LDAuNDM1OTMgLTAuODQzNzQsMC42ODc1IC0xLjA5OTYsMC45Nzk2IC0yLjE1MSwyLjI3MDcgLTMuMTU2MiwzLjg0MzggLTAuMDA0NiwwLjAwNyAwLjAwNDYsMC4wMjQzIDAsMC4wMzEyIC0wLjUwMDM2LDAuNzg0NzMgLTEuMDIyNSwxLjY0MDUgLTEuNSwyLjU2MjUgLTAuMDA0MiwwLjAwOCAwLjAwNDIsMC4wMjMyIDAsMC4wMzEyIC0wLjQ3NzU3LDAuOTIzNyAtMC45NTExNCwxLjkxNDIgLTEuNDA2MiwyLjk2ODggLTAuMDAzNywwLjAwOSAwLjAwMzcsMC4wMjIyIDAsMC4wMzEyIC0zLjY2Nyw4LjUwOTUgLTYuNjIsMjEuMTMxIC04LjkzNzQsMzYuMjE5IC0wLjAwMTUsMC4wMSAwLjAwMTUsMC4wMjEyIDAsMC4wMzEyIC0wLjAzNTk1LDAuMjM0MTYgLTAuMDU4MSwwLjQ4MzQyIC0wLjA5Mzc1LDAuNzE4NzUgLTAuNTA0NjIsMy4zMzE1IC0wLjk5MjA0LDYuNzk4MiAtMS40Mzc1LDEwLjM0NCAtMC4wMzA0OCwwLjI0MjY1IC0wLjA2MzU1LDAuNDc1MTkgLTAuMDkzNzUsMC43MTg3NSAtMC41MDE1Nyw0LjA0MzIgLTAuOTQ2NzIsOC4yMDI1IC0xLjM3NSwxMi40NjkgLTAuMDAxLDAuMDEgOS45OWUtNCwwLjAyMTEgMCwwLjAzMTIgLTAuMjEzNTQsMi4xMjg0IC0wLjQyOTEyLDQuMjk0OCAtMC42MjQ5OSw2LjQ2ODggLTkuMjFlLTQsMC4wMSA5LjIxZS00LDAuMDIwOSAwLDAuMDMxMiAtMC4xOTU4MSwyLjE3NDMgLTAuMzgzOTcsNC4zNDkyIC0wLjU2MjQ5LDYuNTYyNSAtOC4yNmUtNCwwLjAxIDguMjVlLTQsMC4wMjA5IDAsMC4wMzEyIC0wLjM1Nzc1LDQuNDM3NiAtMC42NzgxNyw4Ljk0NTggLTAuOTY4NzQsMTMuNSAtNi41NmUtNCwwLjAxMDEgNi41NWUtNCwwLjAyMDkgMCwwLjAzMTIgLTAuODcyNiwxMy42ODQgLTEuNDU5NiwyNy43ODkgLTEuNzgxMiw0MS41NjIgLTIuNDVlLTQsMC4wMTA0IDIuNDRlLTQsMC4wMjA3IDAsMC4wMzEyIC0wLjIxNDQzLDkuMTg5NCAtMC4zMTI2LDE4LjIxMyAtMC4zMTI2LDI2LjkwNyAwLDAuOTY3NjMgMC4wMjc1NSwxLjk2MjkgMC4wMzEyNSwyLjkzNzUgLTAuMDAzNywwLjk3NDYyIC0wLjAzMTI1LDEuOTY5OSAtMC4wMzEyNSwyLjkzNzUgMCw4LjY5MzIgMC4wOTgxNiwxNy43MTcgMC4zMTI1LDI2LjkwNiAyLjQ0ZS00LDAuMDEwNSAtMi40NWUtNCwwLjAyMDggMCwwLjAzMTIgMC4zMjE2NSwxMy43NzQgMC45MDg2NCwyNy44NzggMS43ODEyLDQxLjU2MiA2LjU1ZS00LDAuMDEwMyAtNi41NmUtNCwwLjAyMTEgMCwwLjAzMTIgMC4yOTA1Nyw0LjU1NDIgMC42MTA5OSw5LjA2MjQgMC45Njg3NCwxMy41IDguMjVlLTQsMC4wMTAzIC04LjI2ZS00LDAuMDIxMSAwLDAuMDMxMiAwLjE3ODUyLDIuMjEzMyAwLjM2NjY4LDQuMzg4MiAwLjU2MjQ5LDYuNTYyNSA5LjIxZS00LDAuMDEwMyAtOS4yMWUtNCwwLjAyMTEgMCwwLjAzMTIgMC4xOTU4OCwyLjE3NCAwLjQxMTQ1LDQuMzQwNCAwLjYyNDk5LDYuNDY4OCA5Ljk5ZS00LDAuMDEwMiAtMC4wMDEsMC4wMjExIDAsMC4wMzEyIDAuNDI4MjYsNC4yNjYzIDAuODczNDIsOC40MjU2IDEuMzc1LDEyLjQ2OSAwLjAzMDIsMC4yNDM1NiAwLjA2MzI3LDAuNDc2MSAwLjA5Mzc1LDAuNzE4NzUgMC40NDU0NSwzLjU0NTYgMC45MzI4Nyw3LjAxMjMgMS40Mzc1LDEwLjM0NCAwLjAzNTY1LDAuMjM1MzMgMC4wNTc4LDAuNDg0NTkgMC4wOTM3NSwwLjcxODc1IDAuMDAxNSwwLjAxIC0wLjAwMTUsMC4wMjE1IDAsMC4wMzEyIDIuMzE3NCwxNS4wODcgNS4yNzA0LDI3LjcwOSA4LjkzNzQsMzYuMjE5IDAuMDAzNywwLjAwOSAtMC4wMDM3LDAuMDIyNiAwLDAuMDMxMiAwLjQ1NTA5LDEuMDU0NiAwLjkyODY2LDIuMDQ1IDEuNDA2MiwyLjk2ODggMC4wMDQyLDAuMDA4IC0wLjAwNDIsMC4wMjMxIDAsMC4wMzEyIDAuNDc3NTMsMC45MjIwNCAwLjk5OTYyLDEuNzc3OCAxLjUsMi41NjI1IDAuMDA0NiwwLjAwNyAtMC4wMDQ2LDAuMDI0MiAwLDAuMDMxMiAxLjAwNTIsMS41NzMxIDIuMDU2NiwyLjg2NDIgMy4xNTYyLDMuODQzOCAwLjI4MTQsMC4yNTE1NyAwLjU1NjAzLDAuNDc3IDAuODQzNzQsMC42ODc1IDAuODQ2ODYsMC42MTk2IDEuNzIyNiwxLjA2MzggMi42MjUsMS4zMTI1IGwgMTMuNjg3LDMuNzUgYyAwLDAgMS4zMzg4LDAuNDA5MjIgMy44MTI1LDEuMTI1IDMuNzExMSwxLjA3MjggOS45NywyLjg2NzUgMTguMDk0LDUgNS40MTU3LDEuNDIxNyAxMS42NjcsMy4wMDc4IDE4LjUzMSw0LjY1NjIgMy40MzE0LDAuODI0ODQgNy4wMDIyLDEuNjU1MSAxMC43MTksMi41IDAuMDEwMiwwLjAwMiAwLjAyMTEsLTAuMDAyIDAuMDMxMiwwIDUuNTY2MSwxLjI2NTIgMTEuNDM4LDIuNTM5NiAxNy41LDMuNzgxMiAyLjAyNCwwLjQxNDU4IDQuMDI3MywwLjgxMjg5IDYuMDkzNywxLjIxODggMC4wMTAxLDAuMDAyIDAuMDIxMiwtMC4wMDIgMC4wMzEyLDAgNC4xMjMyLDAuODA5NjUgOC4zMzk5LDEuNjE4NCAxMi41OTQsMi4zNzUgNC4yNjQsMC43NTg0MyA4LjU5MzUsMS40NzU1IDEyLjkzNywyLjE1NjIgNC4zNDM5LDAuNjgwNzMgOC42ODk4LDEuMzI3NyAxMy4wNjIsMS45MDYyIDAuMDEwMiwxMGUtNCAwLjAyMTEsLTEwZS00IDAuMDMxMiwwIDYuNTQ4NiwwLjg2NjExIDEzLjEyNSwxLjYxOTEgMTkuNTk0LDIuMTg3NSAyLjE1OTcsMC4xODk3NiA0LjI5OTQsMC4zNDk1MyA2LjQzNzQsMC41IDQuMjc2LDAuMzAwOTUgOC41MDUzLDAuNTMwNzkgMTIuNjU2LDAuNjU2MjUgNC4xNTA4LDAuMTI1NDYgOC40MDI4LDAuMTk0MDMgMTIuNzE5LDAuMjE4NzUgOC43ODU5LDAuMDUwMyAxNy44ODEsLTAuMTE3NTIgMjcuMjUsLTAuNDA2MjUgMTMuNjQyLC0wLjQyMDQzIDI3Ljg0NywtMS4xMzQ3IDQyLjM3NSwtMiAxOS42MDQsLTEuMTY3NiAzOS43OTgsLTIuNTkyMyA2MC4xMjQsLTMuODc1IDE1LjAyNCwtMC45NDU3OCAzMC4wOTgsLTEuODA3MyA0NS4wMzEsLTIuNDM3NSAwLjM5NjEyLC0wLjAxNjggMC43OTE1OCwtMC4wNDYxIDEuMTg3NSwtMC4wNjI1IDcuMzkzNCwtMC4zMDU4NyAxNC43NywtMC41NTE0NyAyMi4wNjIsLTAuNzE4NzUgNC45Nzg3LC0wLjExNDIgOS45MzE2LC0wLjE4NDQ3IDE0Ljg0NCwtMC4yMTg3NSAyLjQ1NiwtMC4wMTcyIDQuOTA3MywtMC4wMzY1IDcuMzQzNywtMC4wMzEyIGwgMTI0LjgxLDAuMjgxMjUgLTguNjU2MiwzNS45MzggMy41LDEuNSBjIDEuNzQ3NiwwLjYzMjU5IDQuOTYwMSwwLjkyODUxIDYuNDY4NywwLjkzNzUgMC44NDg2LDAuMDA1IDEuNzU1MSwtMC4wNzQxIDIuNjg3NSwtMC4yNSAwLjMxMDY5LC0wLjA1ODUgMC42MjM1MiwtMC4xNDEwNSAwLjkzNzQ5LC0wLjIxODc1IDAuMzA0NTksLTAuMDc1NiAwLjYzMjU4LC0wLjE1NjY4IDAuOTM3NDksLTAuMjUgMC42Mjg0NCwtMC4xOTMwNiAxLjI2MzUsLTAuNDIxNTYgMS44NzUsLTAuNjg3NSAxLjgyMTUsLTAuNzkzNTEgMy41MzQyLC0xLjkzMTQgNC43ODEyLC0zLjMxMjUgMC4wMSwtMC4wMTA3IDAuMDIxNywtMC4wMjA2IDAuMDMxMiwtMC4wMzEyIDAuNjI0OCwtMC42OTc5IDEuMTEyMywtMS40NTEyIDEuNDY4NywtMi4yODEyIGwgMTIuMTU2LC0zMS4zMTIgMTA5Ljk0LDAuMjUgYyAwLjc0NjksMC4zNzM5IDEuNDc2MSwwLjc0NTExIDIuMjE4NywxLjA5MzggMi45NzkyLDEuMzk5NSA1LjkxMSwyLjU5NyA4Ljg0MzYsMy42MjUgMS40NjIzLDAuNTEyNTkgMi45MTc4LDAuOTc1NDkgNC4zNzUsMS40MDYyIDUuMSwxLjUwNzUgMTAuMTg4LDIuNTUxNSAxNS4zNDQsMy4yNSAyLjk0NjIsMC4zOTkzMiA1LjkyNTksMC42OTM4OCA4LjkzNzQsMC45MDYyNSAxLjUwNTcsMC4xMDYxIDMuMDM0LDAuMTgwMTEgNC41NjI0LDAuMjUgMy4wNTcsMC4xMzk5NCA2LjEzODYsMC4yMTI4MyA5LjMxMjQsMC4yNSA2LjM0NzUsMC4wNzQxIDEyLjk3OSwwIDIwLDAgMTAuNDEsMCAyMC4zMjIsLTAuNTMxMjIgMjkuNzgxLC0xLjU2MjUgMy43ODM1LC0wLjQxMjUxIDcuNDkxMSwtMC44OTc0OSAxMS4xMjUsLTEuNDY4OCA3LjI2NzYsLTEuMTQyNSAxNC4yMjgsLTIuNjE4OSAyMC45MDYsLTQuMzc1IDEuNjY5NCwtMC40MzkwMyAzLjMzNTcsLTAuODk4NzQgNC45Njg3LC0xLjM3NSA0Ljg5OSwtMS40Mjg4IDkuNjEyOCwtMy4wMjU0IDE0LjE4NywtNC43ODEyIDEuNTI0OCwtMC41ODUyNyAzLjA0MiwtMS4xNjA1IDQuNTMxMiwtMS43ODEyIDIuOTc4MywtMS4yNDE0IDUuODgyLC0yLjU1NyA4LjcxODYsLTMuOTM3NSAxLjQxODMsLTAuNjkwMjcgMi44MzU1LC0xLjQwMDYgNC4yMTg3LC0yLjEyNSAyLjc2NjQsLTEuNDQ4OCA1LjQ2NjgsLTIuOTggOC4wOTM3LC00LjU2MjUgMS4zMTM1LC0wLjc5MTI1IDIuNTk2MSwtMS42MTM1IDMuODc1LC0yLjQzNzUgNi4zOTQzLC00LjEyMDEgMTIuMzYzLC04LjYyNTUgMTcuOTA2LC0xMy41MzEgNC40Mjg2LC0zLjkxOTUgOC42MDE1LC04LjA3OTggMTIuNSwtMTIuNDY5IDAuMDA1LC0wLjAwNiAtMC4wMDUsLTAuMDI1NCAwLC0wLjAzMTIgMC45NzA0NCwtMS4wOTI5IDEuOTM3LC0yLjE5MTYgMi44NzUsLTMuMzEyNSAwLjAwNSwtMC4wMDYgLTAuMDA1LC0wLjAyNTEgMCwtMC4wMzEyIDAuOTM3NzMsLTEuMTIwOSAxLjg3NTcsLTIuMjU3OCAyLjc4MTIsLTMuNDA2MiAwLjAwNSwtMC4wMDYgLTAuMDA1LC0wLjAyNDkgMCwtMC4wMzEyIDIuNzI1NiwtMy40NTgyIDUuMzEzMiwtNy4wMTg5IDcuNzQ5OSwtMTAuNzE5IDAuMDA1LC0wLjAwNyAtMC4wMDUsLTAuMDI0IDAsLTAuMDMxMiAwLjgwODgyLC0xLjIyODYgMS42Mjg5LC0yLjQ2NDQgMi40MDYyLC0zLjcxODggMC4wMDUsLTAuMDA4IC0wLjAwNSwtMC4wMjM4IDAsLTAuMDMxMiAyLjM0MDUsLTMuNzc4MSA0LjU2NjgsLTcuNjUyNSA2LjYyNDksLTExLjY1NiAwLjAwNCwtMC4wMDggLTAuMDA0LC0wLjAyMzEgMCwtMC4wMzEyIDAuNjgyOTksLTEuMzI5MiAxLjM0NzcsLTIuNjc4MSAyLC00LjAzMTIgMC4wMDQsLTAuMDA4IC0wLjAwNCwtMC4wMjI5IDAsLTAuMDMxMiAwLjY1MjA0LC0xLjM1MzMgMS4zMTYsLTIuNzE2OSAxLjkzNzUsLTQuMDkzOCAwLjAwNCwtMC4wMDkgLTAuMDA0LC0wLjAyMjcgMCwtMC4wMzEyIDEuMjQ2NCwtMi43NjI1IDIuNDM4LC01LjU1MTcgMy41NjI1LC04LjQwNjIgMC4wMDQsLTAuMDA5IC0wLjAwNCwtMC4wMjI0IDAsLTAuMDMxMiAwLjU2MDIzLC0xLjQyMjkgMS4wOTQ4LC0yLjg2NzQgMS42MjUsLTQuMzEyNSAwLjAwMywtMC4wMDkgLTAuMDAzLC0wLjAyMjIgMCwtMC4wMzEyIDAuNTMwMDIsLTEuNDQ1MiAxLjA2MjMsLTIuOTA4IDEuNTYyNSwtNC4zNzUgMC40OTk5OSwtMS40NjcxIDAuOTk4NDIsLTIuOTQ5IDEuNDY4NywtNC40Mzc1IDAuMDAzLC0wLjAwOSAtMC4wMDMsLTAuMDIyIDAsLTAuMDMxMiAwLjQ3MDEzLC0xLjQ4ODYgMC45MzQzNSwtMi45OTA1IDEuMzc1LC00LjUgMC4wMDMsLTAuMDEgLTAuMDAzLC0wLjAyMTcgMCwtMC4wMzEyIDAuNDQwNDUsLTEuNTA5NiAwLjg3MDA5LC0zLjAzMjQgMS4yODEyLC00LjU2MjUgMC4wMDMsLTAuMDEgLTAuMDAzLC0wLjAyMTcgMCwtMC4wMzEyIDEuMjM4MSwtNC42MTAxIDIuMzY4NCwtOS4zMDYgMy4zNDM3MiwtMTQuMDk0IHYgLTAuMDMxMiBjIDAuMzIzNiwtMS41ODk0IDAuNjExMiwtMy4yMDQ0IDAuOTA2MywtNC44MTI1IHYgLTAuMDMxMiBjIDIuMDc0NywtMTEuMzE4IDMuNDYyMSwtMjMuMDYyIDQuMTU2MiwtMzUuMjE5IDVlLTQsLTAuMDEwMyAtNmUtNCwtMC4wMjExIDAsLTAuMDMxMiAwLjA5OCwtMS43Mjc5IDAuMTc4NywtMy40NzU3IDAuMjUsLTUuMjE4OCA0ZS00LC0wLjAxMDMgLTRlLTQsLTAuMDIxMSAwLC0wLjAzMTIgMC4xNDI2LC0zLjQ5NjkgMC4yNDY3LC03LjAwNzIgMC4yODEyLC0xMC41NjIgMCwtMC4wMTAzIC0xMGUtNSwtMC4wMjExIDAsLTAuMDMxMiAwLjAxNywtMS43ODMgMC4wMSwtMy41NzggMCwtNS4zNzUgMCwtMC42MzU4IC0wLjAyMiwtMS4yNzE0IC0wLjAzMSwtMS45MDYyIDAuMDEsLTAuNjM0ODUgMC4wMzEsLTEuMjcwNCAwLjAzMSwtMS45MDYyIDAuMDEsLTEuNzk3IDAuMDE3LC0zLjU5MiAwLC01LjM3NSAtMTBlLTUsLTAuMDEwMiAwLC0wLjAyMDkgMCwtMC4wMzEyIC0wLjAzNCwtMy41NTUzIC0wLjEzODYsLTcuMDY1NiAtMC4yODEyLC0xMC41NjIgLTRlLTQsLTAuMDEwMiA0ZS00LC0wLjAyMDkgMCwtMC4wMzEyIC0wLjA3MSwtMS43NDMxIC0wLjE1MiwtMy40OTA4IC0wLjI1LC01LjIxODggLTZlLTQsLTAuMDEwMiA1ZS00LC0wLjAyMDkgMCwtMC4wMzEyIC0wLjY5NDEsLTEyLjE1NyAtMi4wODE1LC0yMy45IC00LjE1NjIsLTM1LjIxOSB2IC0wLjAzMTIgYyAtMC4yOTUxLC0xLjYwODEgLTAuNTgyNywtMy4yMjMxIC0wLjkwNjMsLTQuODEyNSB2IC0wLjAzMTIgYyAtMC45NzUzOSwtNC43ODc4IC0yLjEwNTYyLC05LjQ4MzYgLTMuMzQzNzIsLTE0LjA5NCAtMC4wMDMsLTAuMDEgMC4wMDMsLTAuMDIxMyAwLC0wLjAzMTIgLTAuNDExMTUsLTEuNTMwMSAtMC44NDA3OSwtMy4wNTI5IC0xLjI4MTIsLTQuNTYyNSAtMC4wMDMsLTAuMDEgMC4wMDMsLTAuMDIxMyAwLC0wLjAzMTIgLTAuNDQwNjMsLTEuNTA5NSAtMC45MDQ4NSwtMy4wMTE0IC0xLjM3NSwtNC41IC0wLjAwMywtMC4wMDkgMC4wMDMsLTAuMDIyMyAwLC0wLjAzMTIgLTAuNDcwMzIsLTEuNDg4NSAtMC45Njg3NSwtMi45NzA0IC0xLjQ2ODcsLTQuNDM3NSAtMC41MDAxNywtMS40NjcgLTEuMDMyNSwtMi45Mjk4IC0xLjU2MjUsLTQuMzc1IC0wLjAwMywtMC4wMDkgMC4wMDMsLTAuMDIyMyAwLC0wLjAzMTIgLTAuNTMwMjEsLTEuNDQ1MSAtMS4wNjQ4LC0yLjg4OTYgLTEuNjI1LC00LjMxMjUgLTAuMDA0LC0wLjAwOSAwLjAwNCwtMC4wMjIzIDAsLTAuMDMxMiAtMS4xMjQ0LC0yLjg1NDYgLTIuMzE2MSwtNS42NDM4IC0zLjU2MjUsLTguNDA2MiAtMC4wMDQsLTAuMDA4IDAuMDA0LC0wLjAyMjMgMCwtMC4wMzEyIC0wLjYyMTQ4LC0xLjM3NjggLTEuMjg1NCwtMi43NDA1IC0xLjkzNzUsLTQuMDkzOCAtMC4wMDQsLTAuMDA4IDAuMDA0LC0wLjAyMzMgMCwtMC4wMzEyIC0wLjY1MjI0LC0xLjM1MzIgLTEuMzE3LC0yLjcwMjEgLTIsLTQuMDMxMiAtMC4wMDQsLTAuMDA4IDAuMDA0LC0wLjAyMzMgMCwtMC4wMzEyIC0yLjA1ODIsLTQuMDAzOCAtNC4yODQ0LC03Ljg3ODIgLTYuNjI0OSwtMTEuNjU2IC0wLjAwNSwtMC4wMDcgMC4wMDUsLTAuMDIzMyAwLC0wLjAzMTIgLTAuNzc3MzMsLTEuMjU0MyAtMS41OTc0LC0yLjQ5MDIgLTIuNDA2MiwtMy43MTg4IC0wLjAwNSwtMC4wMDcgMC4wMDUsLTAuMDI0MiAwLC0wLjAzMTIgLTIuNDM2NywtMy42OTk5IC01LjAyNDMsLTcuMjYwNiAtNy43NDk5LC0xMC43MTkgLTAuMDA1LC0wLjAwNiAwLjAwNSwtMC4wMjUzIDAsLTAuMDMxMiAtMC45MDU0OSwtMS4xNDg1IC0xLjg0MzUsLTIuMjg1MyAtMi43ODEyLC0zLjQwNjIgLTAuMDA1LC0wLjAwNiAwLjAwNSwtMC4wMjUzIDAsLTAuMDMxMiAtMC45MzgwMSwtMS4xMjA5IC0xLjkwNDUsLTIuMjE5NiAtMi44NzUsLTMuMzEyNSAtMC4wMDUsLTAuMDA2IDAuMDA1LC0wLjAyNTMgMCwtMC4wMzEyIC0zLjg5ODMsLTQuMzg4OSAtOC4wNzEyLC04LjU0OTMgLTEyLjUsLTEyLjQ2OSAtNS41NDMsLTQuOTA1OCAtMTEuNTEyLC05LjQxMTIgLTE3LjkwNiwtMTMuNTMxIC0xLjI3ODksLTAuODI0MDIgLTIuNTYxNSwtMS42NDYyIC0zLjg3NSwtMi40Mzc1IC0yLjYyNjksLTEuNTgyNSAtNS4zMjczLC0zLjExMzcgLTguMDkzNywtNC41NjI1IC0xLjM4MzIsLTAuNzI0MzkgLTIuODAwNCwtMS40MzQ3IC00LjIxODcsLTIuMTI1IC0yLjgzNjcsLTEuMzgwNiAtNS43NDAzLC0yLjY5NjEgLTguNzE4NiwtMy45Mzc1IC0xLjQ4OTIsLTAuNjIwNzEgLTMuMDA2NCwtMS4xOTYgLTQuNTMxMiwtMS43ODEyIC00LjU3NDYsLTEuNzU1OCAtOS4yODgzLC0zLjM1MjUgLTE0LjE4NywtNC43ODEyIC0xLjYzMywtMC40NzYyNiAtMy4yOTkzLC0wLjkzNTk3IC00Ljk2ODcsLTEuMzc1IC02LjY3NzcsLTEuNzU2MSAtMTMuNjM4LC0zLjIzMjUgLTIwLjkwNiwtNC4zNzUgLTMuNjMzOCwtMC41NzEyNiAtNy4zNDE0LC0xLjA1NjIgLTExLjEyNSwtMS40Njg4IC05LjQ1ODYsLTEuMDMyNiAtMTkuMzcxLC0xLjU2MzggLTI5Ljc4MSwtMS41NjM4IC03LjAyMDQsMCAtMTMuNjUyLC0wLjA3NDEgLTIwLDAgLTMuMTczOCwwLjAzNzIgLTYuMjU1NCwwLjExMDA2IC05LjMxMjQsMC4yNSAtMS41Mjg1LDAuMDY5OSAtMy4wNTY4LDAuMTQzOSAtNC41NjI0LDAuMjUgLTMuMDExNSwwLjIxMjM3IC01Ljk5MTIsMC41MDY5MyAtOC45Mzc0LDAuOTA2MjUgLTUuMTU1NiwwLjY5ODQ5IC0xMC4yNDQsMS43NDI1IC0xNS4zNDQsMy4yNSAtMS40NTcyLDAuNDMwNzYgLTIuOTEyNywwLjg5MzY2IC00LjM3NSwxLjQwNjIgLTIuOTMyNywxLjAyOCAtNS44NjQ1LDIuMjI1NSAtOC44NDM2LDMuNjI1IC0wLjc0MjY3LDAuMzQ4NjQgLTEuNDcxOCwwLjcxOTg1IC0yLjIxODcsMS4wOTM4IGwgLTEwOS45NCwwLjI1IC0xMi4xNTYsLTMxLjMxMiBjIC0wLjM1NjQ0LC0wLjgzIC0wLjg0MzkzLC0xLjU4MzQgLTEuNDY4NywtMi4yODEyIC0wLjAxLC0wLjAxMDUgLTAuMDIxMywtMC4wMjA2IC0wLjAzMTIsLTAuMDMxMiAtMS4yNDcsLTEuMzgxMSAtMi45NTk3LC0yLjUxOSAtNC43ODEyLC0zLjMxMjUgLTAuNjExNDYsLTAuMjY1OTQgLTEuMjQ2NSwtMC40OTQ0NCAtMS44NzUsLTAuNjg3NSAtMC4zMDQ5MSwtMC4wOTMzIC0wLjYzMjksLTAuMTc0NCAtMC45Mzc0OSwtMC4yNSAtMC4zMTQwMiwtMC4wNzc3IC0wLjYyNjg1LC0wLjE2MDI1IC0wLjkzNzU0LC0wLjIxODc1IC0wLjkzMjQsLTAuMTc1OSAtMS44Mzg5LC0wLjI1NSAtMi42ODc1LC0wLjI1IHoiIGlkPSJwYXRoMzg1NSIgc3R5bGU9ImZpbGwtb3BhY2l0eTowLjk5NjA3OTk5O3N0cm9rZTojMTkxOTE5O3N0cm9rZS13aWR0aDoxNCIvPiYjeGE7ICAgICAgPHBhdGggZD0ibSA2MTAuNTIsNDkzLjY5IGMgLTEuNTA4NiwwLjAwOSAtNC43MjExLDAuMzA2MTEgLTYuNDY4NywwLjkzNzUgbCAtMy41LDEuNSA4LjY1NjIsMzUuODQ0IC0xMjQuODEsMC4yODEyNSBjIC03Ny45NjMsMC4xNjU0IC0xNjYuNTIsLTExLjUwNCAtMjMyLjkzLC05LjUgLTY2LjQxMiwyLjAwMzcgLTE1Mi4xMiwyOCAtMTUyLjEyLDI4IGwgLTEzLjY4NywzLjc4MTIgYyAtMTkuMjUxLDUuMjk2MyAtMjUuNzE4LDk3LjM2NyAtMjUuNzE4LDE2Ni43OCAwLDEuMTEzIDAuMDI2NjUsMi4yNTMxIDAuMDMxMjUsMy4zNzUgLTAuMDA0NiwxLjEyMTkgLTAuMDMxMjUsMi4yNjIgLTAuMDMxMjUsMy4zNzUgMCw2OS40MTQgNi40NjczLDE2MS40OCAyNS43MTgsMTY2Ljc4IGwgMTMuNjg3LDMuNzgxMiBjIDAsMCA4NS43MTEsMjUuOTk2IDE1Mi4xMiwyOCA2Ni40MTIsMi4wMDM3IDE1NC45NywtOS42NjU0IDIzMi45MywtOS41IGwgMTI0LjgxLDAuMjgxMjUgLTguNjU2MiwzNS44NDQgMy41LDEuNSBjIDEuNzQ3NiwwLjYzMTM5IDQuOTYsMC45Mjg1NCA2LjQ2ODcsMC45Mzc1IDAuODQ4NTksMC4wMDUgMS43NTUxLC0wLjA3NDQgMi42ODc1LC0wLjI1IDAuMzEwNywtMC4wNTg0IDAuNjIzNTIsLTAuMTQxMTkgMC45Mzc0OSwtMC4yMTg3NSAwLjMwNDU5LC0wLjA3NTQgMC42MzI1OSwtMC4xNTY4NiAwLjkzNzQ5LC0wLjI1IDAuNjI4NDQsLTAuMTkyNjkgMS4yNjM1LC0wLjQyMjA2IDEuODc1LC0wLjY4NzUgMS44MjE1LC0wLjc5MjAxIDMuNTM0MiwtMS45MDI4IDQuNzgxMiwtMy4yODEyIDAuMDEsLTAuMDEwNyAwLjAyMTcsLTAuMDIwOCAwLjAzMTIsLTAuMDMxMiAwLjYyNDgsLTAuNjk2NTggMS4xMTIzLC0xLjQ1MjggMS40Njg3LC0yLjI4MTIgbCAxMi4xNTYsLTMxLjI1IDEwOS45NCwwLjI1IGMgMjMuOSwxMS45NDIgNDUuNTExLDEwLjcxOSA3My41OTMsMTAuNzE5IDEzMy4yNSwwIDE4Ny42MzAwMiwtODYuNTg2IDE4Ny4wMDAwMiwtMjAxLjM4IDAsLTAuNzgwMiAtMC4wMTksLTEuNTY1NiAtMC4wMzEsLTIuMzQzOCAwLjAxMiwtMC43NzgxMSAwLjAzMSwtMS41NjM2IDAuMDMxLC0yLjM0MzggMC42MjgyLC0xMTQuNzkgLTUzLjc0OTAyLC0yMDEuMzggLTE4Ny4wMDAwMiwtMjAxLjM4IC0yOC4wODIsMCAtNDkuNjkzLC0xLjIyMzYgLTczLjU5MywxMC43MTkgbCAtMTA5Ljk0LDAuMjUgLTEyLjE1NiwtMzEuMjUgYyAtMC4zNTY0NSwtMC44Mjg0NCAtMC44NDM5MywtMS41ODQ3IC0xLjQ2ODcsLTIuMjgxMiAtMC4wMSwtMC4wMTA0IC0wLjAyMTMsLTAuMDIwNiAtMC4wMzEyLC0wLjAzMTIgLTEuMjQ3LC0xLjM3ODUgLTIuOTU5NywtMi40ODkyIC00Ljc4MTIsLTMuMjgxMiAtMC42MTE0OCwtMC4yNjU0NCAtMS4yNDY1LC0wLjQ5NDgxIC0xLjg3NSwtMC42ODc1IC0wLjMwNDksLTAuMDkzMSAtMC42MzI5LC0wLjE3NDYgLTAuOTM3NDksLTAuMjUgLTAuMzEzOTcsLTAuMDc3NiAtMC42MjY3OSwtMC4xNjAzNSAtMC45Mzc0OSwtMC4yMTg3NSAtMC45MzIzOSwtMC4xNzU2IC0xLjgzODksLTAuMjU1IC0yLjY4NzUsLTAuMjUgeiIgaWQ9InBhdGgyODUzIiBzdHlsZT0iZmlsbDojMzI3OGZmO2ZpbGwtb3BhY2l0eTowLjk5NjA3OTk5Ii8+JiN4YTsgICAgICA8cGF0aCBkPSJtIDQwMC4zNCw4NTUuMjQgYyAtMzMuMzY0LDAgLTY1LjMwNywxLjggLTk0LjgxMSw1LjA2MjUgMjUuNjYsNDguNzE0IDk3Ljk4NSwzMC4yNjUgMjA1LjU2LDMxLjUzMSA0OS42ODYsMC41ODQ3MSA4OS41NDMsMS44NzkzIDEyMS41MywyLjM3NSAtNDcuMTYsLTIzLjMzNCAtMTMzLjUzLC0zOC45NjkgLTIzMi4yOCwtMzguOTY5IHoiIGlkPSJwYXRoMzY0MyIgc3R5bGU9Im9wYWNpdHk6MC45O2ZpbGw6IzI2MjYyNjtmaWxsLW9wYWNpdHk6MC45OTYwNzk5OSIvPiYjeGE7ICAgICAgPHBhdGggZD0ibSA0MDAuMzQsODU1LjI0IGMgLTMuMjA2NCwwIC02LjM4MzEsMC4wMjk1IC05LjU2MjQsMC4wNjI1IDAuODE4MjUsMTYuMTcxIDYuNDI4MSwzMC4yNTcgMTQuNTk0LDM4Ljg0NCA0LjY3MTQsLTAuMDc1NiA5LjQ5NTEsLTAuMTk2NTUgMTQuNDM3LC0wLjM0Mzc1IC04LjU2NTcsLTguMTkyMyAtMTQuNTkzLC0yMi4yMjggLTE1LjcxOSwtMzguNTYyIC0xLjI1MTIsLTAuMDA1IC0yLjQ5NDcsMCAtMy43NSwwIHoiIGlkPSJwYXRoMzY1OCIgc3R5bGU9Im9wYWNpdHk6MC41O2ZpbGwtb3BhY2l0eTowLjk5NjA3OTk5Ii8+JiN4YTsgICAgICA8cGF0aCBkPSJtIDk4OS4wMiw4MjcuNSAtNS4wOTM3LDAuNTkzNzUgYyAtMjEuNTQ1LDIuNTEyNyAtMzcuNjg4LDI1Ljk3OSAtMzkuMjgxLDU0LjUzMSBsIC0wLjM3NDk5LDcuMTI1IDUuMjQ5OSwtNC44NDM4IGMgMTUuODg5LC0xNC42OCAyOC4zMDMsLTMyLjUwNyAzNy40MDYsLTUyLjc1IGwgMi4wOSwtNC42NSB6IiBpZD0icGF0aDM3MDciIHN0eWxlPSJ0ZXh0LWluZGVudDowO3RleHQtdHJhbnNmb3JtOm5vbmU7YmxvY2stcHJvZ3Jlc3Npb246dGI7Y29sb3I6IzAwMDAwMDtmaWxsOiMyMTIxMjE7c3Ryb2tlOiMxOTE5MTk7c3Ryb2tlLXdpZHRoOjUiLz4mI3hhOyAgICAgIDxwYXRoIGQ9Im0gNzgzLjQ3LDgzOC41IGMgMCwwIDc5LjY3NywtMjIuNTk2IDEwNS4zOCwtMzEuOTgyIDI2LjgzOSwtOS44MDE4IDk4Ljg1OSwtMzkuMTQ2IDk4Ljg1OSwtMzkuMTQ2IDAsMCAtOC43NDA5LDQyLjQ3IC0zMC40ODMsNTcuOTE4IC03Ny4yMyw1NC44NyAtMjMyLjY5LDUzLjg1IC0yMzIuNjksNTMuODUiIGlkPSJwYXRoMzcxNSIgc3R5bGU9Im9wYWNpdHk6MC41O2ZpbGw6bm9uZTtzdHJva2U6IzI5MjkyOTtzdHJva2Utd2lkdGg6NjtzdHJva2UtbGluZWNhcDpyb3VuZDtzdHJva2UtbGluZWpvaW46cm91bmQiLz4mI3hhOyAgICAgIDxwYXRoIGQ9Im0gODY5Ljk3LDgxNy44NCAtNC40Mzc0LDIuMzQzOCBjIDAuOTg5MTIsMS4xNTY4IDEuNzk1NSwyLjQyODYgMi4zNzUsMy44NDM4IDQuNzk3OSwxMS43MTcgLTEwLjczNiwyOS4yMzYgLTI2Ljg3NSwzNS43ODEgLTAuNTE2NzUsMC4yMDk1OCAtMS44MTI5LDAuODQwNjYgLTMuNDA2MiwxLjY1NjIgbCAxMy42MjUsLTMuODc1IGMgMTcuMzA2LC04LjQ1NzYgMjcuNDcsLTIzLjA4MiAyMywtMzQgLTAuOTE2MTUsLTIuMjM3MyAtMi4zNzUyLC00LjE2NjEgLTQuMjgxMiwtNS43NSB6IiBpZD0icGF0aDM3NTciIHN0eWxlPSJmaWxsOnVybCgjbGluZWFyR3JhZGllbnQ0MTQ5KSIvPiYjeGE7ICAgICAgPHBhdGggZD0ibSA4NzguNTUsODEzLjM4IC00LjQzNzUsMi4zNDM4IGMgMC45ODkxMywxLjE1NjggMS43OTU1LDIuNDI4NiAyLjM3NSwzLjg0MzggNC43OTc5LDExLjcxNyAtMTAuNzM2LDI5LjIzNiAtMjYuODc1LDM1Ljc4MSAtMC41MTY3NiwwLjIwOTU4IC0xLjgxMjksMC44NDA2NiAtMy40MDYyLDEuNjU2MiBsIDEzLjYyNSwtMy44NzUgYyAxNy4zMDYsLTguNDU3NiAyNy40NywtMjMuMDgyIDIzLC0zNCAtMC45MTYxNSwtMi4yMzczIC0yLjM3NTIsLTQuMTY2MSAtNC4yODEyLC01Ljc1IHoiIGlkPSJwYXRoMzc4NyIgc3R5bGU9ImZpbGw6dXJsKCNsaW5lYXJHcmFkaWVudDQyMDMpIi8+JiN4YTsgICAgICA8cGF0aCBkPSJtIDg4NC43NCw4MTEuOTYgLTQuNDM3NCwyLjM0MzggYyAwLjk4OTEzLDEuMTU2OCAxLjc5NTUsMi40Mjg2IDIuMzc1LDMuODQzOCA0Ljc5NzksMTEuNzE3IC0xMC43MzYsMjkuMjM2IC0yNi44NzUsMzUuNzgxIC0wLjUxNjc1LDAuMjA5NTggLTEuODEyOSwwLjg0MDY2IC0zLjQwNjIsMS42NTYyIGwgMTMuNjI1LC0zLjg3NSBjIDE3LjMwNiwtOC40NTc2IDI3LjQ3LC0yMy4wODIgMjMsLTM0IC0wLjkxNjE1LC0yLjIzNzMgLTIuMzc1MiwtNC4xNjYxIC00LjI4MTIsLTUuNzUgeiIgaWQ9InBhdGgzNzUyIiBzdHlsZT0iZmlsbDp1cmwoI2xpbmVhckdyYWRpZW50NDE1NSkiLz4mI3hhOyAgICAgIDxwYXRoIGQ9Im0gOTAxLjY1LDgwNy42OSAtNi4xODc0LDEuODQzOCBjIDAuOTYwMTUsMS43MTI4IDEuNjU0NSwzLjUzMjMgMi4wMzEyLDUuNDY4OCAzLjExOTQsMTYuMDM0IC0yMC45NjIsMzQuMjg0IC00My4wMzEsMzguNSAtMy4zOTUsMC42NDg2NCAtMjguODg0LDguNTc2IC0zMi4xNTgsOC44MDQ0IHYgNC4xMjUgbCA0MS40MzksLTEyLjE0OCBjIDI2LjI4NSwtNS40OTYzIDQ0Ljk0OSwtMjIuNDQ4IDQxLjg3NSwtMzguMjUgLTAuNTk1NjQsLTMuMDYxNiAtMS45NTYsLTUuODU5NSAtMy45Njg3LC04LjM0MzggeiIgaWQ9InBhdGgzNzM1IiBzdHlsZT0iZmlsbDp1cmwoI2xpbmVhckdyYWRpZW50NDIwNSkiLz4mI3hhOyAgICAgIDxwYXRoIGQ9Im0gOTAxLjY1LDgwNy42OSAtNi4xODc0LDEuODQzOCBjIDAuOTYwMTUsMS43MTI4IDEuNjU0NSwzLjUzMjMgMi4wMzEyLDUuNDY4OCAzLjExOTQsMTYuMDM0IC0yMC45NjIsMzQuMjg0IC00My4wMzEsMzguNSAtMy4zOTUsMC42NDg2NCAtMjguODg0LDguNTc2IC0zMi4xNTgsOC44MDQ0IHYgNC4xMjUgbCA0MS40MzksLTEyLjE0OCBjIDI2LjI4NSwtNS40OTYzIDQ0Ljk0OSwtMjIuNDQ4IDQxLjg3NSwtMzguMjUgLTAuNTk1NjQsLTMuMDYxNiAtMS45NTYsLTUuODU5NSAtMy45Njg3LC04LjM0MzggeiIgaWQ9InBhdGgzNzgzIiBzdHlsZT0iZmlsbDp1cmwoI2xpbmVhckdyYWRpZW50NDIwNykiLz4mI3hhOyAgICAgIDxwYXRoIGQ9Im0gODU3LjEyLDgyMi40NiAtMy45NjQxLDIuMDkzNyBjIDAuODgzNjEsMS4wMzM0IDEuNjA0LDIuMTY5NiAyLjEyMTYsMy40MzM3IDQuMjg2MSwxMC40NjcgLTkuNTkwNiwyNi4xMTcgLTI0LjAwOCwzMS45NjQgLTAuNDYxNjMsMC4xODcyMyAtMS42MTk1LDAuNzUwOTggLTMuMDQyOCwxLjQ3OTYgbCAxMi4xNzEsLTMuNDYxNiBjIDE1LjQ2LC03LjU1NTQgMjQuNTQsLTIwLjYyIDIwLjU0NiwtMzAuMzczIC0wLjgxODQyLC0xLjk5ODcgLTIuMTIxOCwtMy43MjE2IC0zLjgyNDUsLTUuMTM2NiB6IiBpZD0icGF0aDM3OTkiIHN0eWxlPSJmaWxsOnVybCgjbGluZWFyR3JhZGllbnQ0MjA5KSIvPiYjeGE7ICAgICAgPHBhdGggZD0ibSA4NDMuMzIsODI2LjAzIC0zLjk2NDEsMi4wOTM3IGMgMC44ODM2MSwxLjAzMzQgMS42MDQsMi4xNjk2IDIuMTIxNiwzLjQzMzcgNC4yODYxLDEwLjQ2NyAtOS41OTA2LDI2LjExNyAtMjQuMDA4LDMxLjk2NCAtMC40NjE2MiwwLjE4NzIzIC0xLjYxOTUsMC43NTA5OCAtMy4wNDI4LDEuNDc5NiBsIDEyLjE3MSwtMy40NjE2IGMgMTUuNDYsLTcuNTU1NCAyNC41NCwtMjAuNjIgMjAuNTQ2LC0zMC4zNzMgLTAuODE4NDIsLTEuOTk4NyAtMi4xMjE4LC0zLjcyMTYgLTMuODI0NSwtNS4xMzY2IHoiIGlkPSJwYXRoMzgwMyIgc3R5bGU9ImZpbGw6dXJsKCNsaW5lYXJHcmFkaWVudDQxNTMpIi8+JiN4YTsgICAgICA8cGF0aCBkPSJtIDIzMy4yNyw4NDUuNzIgYyA4LjI5MywtMi4wMjM0IDE1LjQ4NiwtMS40Nzg4IDE5Ljc5Nyw1Ljc4NzIgbCAtMi40OTM0LDE3Ljg5NyBjIC02Ljg3NTEsNi4xNzMyIC0xMy43NSw0Ljk1MDkgLTIwLjYyNSwwLjE1NTQzIGwgMy4zMjEyLC0yMy44MzkgeiIgaWQ9InJlY3QzODYxIiBzdHlsZT0iZmlsbDp1cmwoI2xpbmVhckdyYWRpZW50NDIxMSkiLz4mI3hhOyAgICAgIDxwYXRoIGQ9Im0gMjUzLjU0LDg0OC45OSBjIDguMTUwMiwtMS4yMTAyIDE1LjE2NywtMC41NzI4IDE4Ljg0Myw1LjUwODEgbCAtMi4zNzMxLDE3LjAzNCBjIC02LjQ4MzksMi45NzQ4IC0xMi45ODMsNS4yMDk2IC0xOS42MzEsMC4xNDc5MyBsIDMuMTYxMSwtMjIuNjkgeiIgaWQ9InBhdGgzODY0IiBzdHlsZT0iZmlsbDp1cmwoI2xpbmVhckdyYWRpZW50NDIxMykiLz4mI3hhOyAgICAgIDxwYXRoIGQ9Im0gNDAwLjM0LDg1Mi43NSBjIC0zMy40NTQsMCAtNjUuNDkyLDEuNzg5NCAtOTUuMDkzLDUuMDYyNSBsIC0zLjY1NjIsMC40MDYyNSAxLjcxODcsMy4yNSBjIDYuNjcxMSwxMi42NjQgMTYuNTYyLDIxLjExMyAyOS4wNjIsMjYuNDM4IDEyLjUwMSw1LjMyNDEgMjcuNTcyLDcuNjEyNiA0NS4wOTMsOC40Mzc1IDM1LjA0MiwxLjY0OTggNzkuOTU0LC0yLjYzMTIgMTMzLjU5LC0yIDQ5LjY1OSwwLjU4NDM4IDg5LjUwOCwxLjg3ODcgMTIxLjUzLDIuMzc1IGwgMS4xMjUsLTQuNzUgYyAtNDcuODQsLTIzLjY4IC0xMzQuMzQsLTM5LjIyIC0yMzMuMzYsLTM5LjIyIHogbSAwLDUgYyA5MS4xNjksMCAxNzEuNzUsMTMuNDc5IDIyMC4wOSwzMy43MTkgLTI5Ljk1MiwtMC41ODI0MSAtNjUuMjEyLC0xLjYwNiAtMTA5LjMxLC0yLjEyNSAtNTMuOTM3LC0wLjYzNDczIC05OC45NzYsMy42NTIyIC0xMzMuNCwyLjAzMTIgLTE3LjIxNCwtMC44MTA0NiAtMzEuNzY3LC0zLjEwNTQgLTQzLjQwNiwtOC4wNjI1IC0xMC40NTMsLTQuNDUyMSAtMTguNDg1LC0xMS4xNTQgLTI0LjUsLTIwLjkwNiAyOC4zMDcsLTIuOTgzMSA1OC43MzUsLTQuNjU2MiA5MC41MywtNC42NTYyIHoiIGlkPSJwYXRoNDAyNSIgc3R5bGU9InRleHQtaW5kZW50OjA7dGV4dC10cmFuc2Zvcm06bm9uZTtibG9jay1wcm9ncmVzc2lvbjp0YjtvcGFjaXR5OjAuOTtjb2xvcjojMDAwMDAwO2ZpbGw6IzE5MTkxOSIvPiYjeGE7ICAgICAgPHBhdGggZD0ibSAyNjAuNSw2MDcuMzggLTc3Ljc0OSwxMi40NjkgYyAtMjcuMTUsNC4zNTQyIC00OC45NDcsNDguNzczIC01MC45OTksMTA0Ljg0IDIuMDUyMyw1Ni4wNzEgMjMuODQ5LDEwMC40OSA1MC45OTksMTA0Ljg0IGwgNzcuNzQ5LDEyLjQ2OSBjIDEzLjI5NiwwIDI0LC0xMC43MDQgMjQsLTI0IHYgLTE4Ni42MiBjIDAsLTEzLjI5NiAtMTAuNzA0LC0yNCAtMjQsLTI0IHoiIGlkPSJyZWN0Mjg2NCIgc3R5bGU9Im9wYWNpdHk6MC45O2ZpbGw6IzI2MjYyNjtmaWxsLW9wYWNpdHk6MC45OTYwNzk5OTtzdHJva2U6IzE5MTkxOTtzdHJva2Utd2lkdGg6NSIvPiYjeGE7ICAgICAgPHBhdGggZD0ibSA2OTEuOTYsNTczLjE2IGMgLTIuOTY5MiwwIC01Ljg5MzMsMC4zMzIxNSAtOC43ODEyLDAuOTY4NzUgLTAuMDEwNCwtMC4wMSAtMC4wMjA4LC0wLjAyMSAtMC4wMzEyLC0wLjAzMTIgbCAtNjMuODQzLDEyLjMxMiBjIC0xNy43MjgsNi42MDQ3IC0zMiwxNC4yNzIgLTMyLDMyIHYgMjEyLjU2IGMgMCwxNy43MjggMTQuMjcyLDI1LjM5NSAzMiwzMiBsIDYzLjg0MywxMi4zMTIgYyAwLjAxMDUsLTAuMDEwMiAwLjAyMDgsLTAuMDIxMSAwLjAzMTIsLTAuMDMxMiAyLjg4NzksMC42MzY2IDUuODEyLDAuOTY4NzUgOC43ODEyLDAuOTY4NzUgNDUuMzk1LDAgODIuMTk4LC01Ny4zNjMgODIuMzEyLC0xNTEuNTMgLTAuMTE0MDgsLTk0LjE2OSAtMzYuOTE2LC0xNTEuNTMgLTgyLjMxMiwtMTUxLjUzIHoiIGlkPSJwYXRoMzcwMyIgc3R5bGU9Im9wYWNpdHk6MC45O2ZpbGw6IzI2MjYyNjtmaWxsLW9wYWNpdHk6MC45OTYwNzk5OTtzdHJva2U6IzE5MTkxOTtzdHJva2Utd2lkdGg6NSIvPiYjeGE7ICAgICAgPHBhdGggZD0ibSA0MDAuMzQsNTk0LjE1IGMgLTMzLjM2NCwwIC02NS4zMDcsLTEuOCAtOTQuODExLC01LjA2MjUgMjUuNjYsLTQ4LjcxNCA5Ny45ODUsLTMwLjI2NSAyMDUuNTYsLTMxLjUzMSA0OS42ODYsLTAuNTg0NzEgODkuNTQzLC0xLjg3OTMgMTIxLjUzLC0yLjM3NSAtNDcuMTYsMjMuMzM0IC0xMzMuNTMsMzguOTY5IC0yMzIuMjgsMzguOTY5IHoiIGlkPSJwYXRoNDE1NyIgc3R5bGU9Im9wYWNpdHk6MC45O2ZpbGw6IzI2MjYyNjtmaWxsLW9wYWNpdHk6MC45OTYwNzk5OSIvPiYjeGE7ICAgICAgPHBhdGggZD0ibSA0MDAuMzQsNTk0LjE1IGMgLTMuMjA2NCwwIC02LjM4MzEsLTAuMDI5NSAtOS41NjI0LC0wLjA2MjUgMC44MTgyNSwtMTYuMTcxIDYuNDI4MSwtMzAuMjU3IDE0LjU5NCwtMzguODQ0IDQuNjcxNCwwLjA3NTYgOS40OTUxLDAuMTk2NTUgMTQuNDM3LDAuMzQzNzUgLTguNTY1Nyw4LjE5MjMgLTE0LjU5MywyMi4yMjggLTE1LjcxOSwzOC41NjIgLTEuMjUxMiwwLjAwNSAtMi40OTQ3LDAgLTMuNzUsMCB6IiBpZD0icGF0aDQxNTkiIHN0eWxlPSJvcGFjaXR5OjAuNTtmaWxsLW9wYWNpdHk6MC45OTYwNzk5OSIvPiYjeGE7ICAgICAgPHBhdGggZD0ibSA5ODkuMDIsNjIxLjg5IC01LjA5MzcsLTAuNTkzNzUgYyAtMjEuNTQ1LC0yLjUxMjcgLTM3LjY4OCwtMjUuOTc5IC0zOS4yODEsLTU0LjUzMSBsIC0wLjM3NDk5LC03LjEyNSA1LjI0OTksNC44NDM4IGMgMTUuODg5LDE0LjY4IDI4LjMwMywzMi41MDcgMzcuNDA2LDUyLjc1IGwgMi4wOTM3LDQuNjU2MiB6IiBpZD0icGF0aDQxNjEiIHN0eWxlPSJ0ZXh0LWluZGVudDowO3RleHQtdHJhbnNmb3JtOm5vbmU7YmxvY2stcHJvZ3Jlc3Npb246dGI7Y29sb3I6IzAwMDAwMDtmaWxsOiMyMTIxMjE7c3Ryb2tlOiMxOTE5MTk7c3Ryb2tlLXdpZHRoOjUiLz4mI3hhOyAgICAgIDxwYXRoIGQ9Im0gNzgzLjQ3LDYxMC44OSBjIDAsMCA3OS42NzcsMjIuNTk2IDEwNS4zOCwzMS45ODIgMjYuODM5LDkuODAxOCA5OC44NTksMzkuMTQ2IDk4Ljg1OSwzOS4xNDYgMCwwIC04Ljc0MDksLTQyLjQ3IC0zMC40ODMsLTU3LjkxOCAtNzcuMjMsLTU0Ljg3IC0yMzIuNjksLTUzLjg2IC0yMzIuNjksLTUzLjg2IiBpZD0icGF0aDQxNjMiIHN0eWxlPSJvcGFjaXR5OjAuNTtmaWxsOm5vbmU7c3Ryb2tlOiMyOTI5Mjk7c3Ryb2tlLXdpZHRoOjY7c3Ryb2tlLWxpbmVjYXA6cm91bmQ7c3Ryb2tlLWxpbmVqb2luOnJvdW5kIi8+JiN4YTsgICAgICA8cGF0aCBkPSJtIDg2OS45Nyw2MzEuNTUgLTQuNDM3NCwtMi4zNDM4IGMgMC45ODkxMiwtMS4xNTY4IDEuNzk1NSwtMi40Mjg2IDIuMzc1LC0zLjg0MzggNC43OTc5LC0xMS43MTcgLTEwLjczNiwtMjkuMjM2IC0yNi44NzUsLTM1Ljc4MSAtMC41MTY3NSwtMC4yMDk1OCAtMS44MTI5LC0wLjg0MDY2IC0zLjQwNjIsLTEuNjU2MiBsIDEzLjYyNSwzLjg3NSBjIDE3LjMwNiw4LjQ1NzYgMjcuNDcsMjMuMDgyIDIzLDM0IC0wLjkxNjE1LDIuMjM3MyAtMi4zNzUyLDQuMTY2MSAtNC4yODEyLDUuNzUgeiIgaWQ9InBhdGg0MTY1IiBzdHlsZT0iZmlsbDp1cmwoI2xpbmVhckdyYWRpZW50NDE4NSkiLz4mI3hhOyAgICAgIDxwYXRoIGQ9Im0gODc4LjU1LDYzNi4wMSAtNC40Mzc1LC0yLjM0MzggYyAwLjk4OTEzLC0xLjE1NjggMS43OTU1LC0yLjQyODYgMi4zNzUsLTMuODQzOCA0Ljc5NzksLTExLjcxNyAtMTAuNzM2LC0yOS4yMzYgLTI2Ljg3NSwtMzUuNzgxIC0wLjUxNjc2LC0wLjIwOTU4IC0xLjgxMjksLTAuODQwNjYgLTMuNDA2MiwtMS42NTYyIGwgMTMuNjI1LDMuODc1IGMgMTcuMzA2LDguNDU3NiAyNy40NywyMy4wODIgMjMsMzQgLTAuOTE2MTUsMi4yMzczIC0yLjM3NTIsNC4xNjYxIC00LjI4MTIsNS43NSB6IiBpZD0icGF0aDQxNjciIHN0eWxlPSJmaWxsOnVybCgjbGluZWFyR3JhZGllbnQ0MTg3KSIvPiYjeGE7ICAgICAgPHBhdGggZD0ibSA4ODQuNzQsNjM3LjQyIC00LjQzNzQsLTIuMzQzOCBjIDAuOTg5MTMsLTEuMTU2OCAxLjc5NTUsLTIuNDI4NiAyLjM3NSwtMy44NDM4IDQuNzk3OSwtMTEuNzE3IC0xMC43MzYsLTI5LjIzNiAtMjYuODc1LC0zNS43ODEgLTAuNTE2NzUsLTAuMjA5NTggLTEuODEyOSwtMC44NDA2NiAtMy40MDYyLC0xLjY1NjIgbCAxMy42MjUsMy44NzUgYyAxNy4zMDYsOC40NTc2IDI3LjQ3LDIzLjA4MiAyMywzNCAtMC45MTYxNSwyLjIzNzMgLTIuMzc1Miw0LjE2NjEgLTQuMjgxMiw1Ljc1IHoiIGlkPSJwYXRoNDE2OSIgc3R5bGU9ImZpbGw6dXJsKCNsaW5lYXJHcmFkaWVudDQxODkpIi8+JiN4YTsgICAgICA8cGF0aCBkPSJtIDkwMS42NSw2NDEuNyAtNi4xODc0LC0xLjg0MzggYyAwLjk2MDE1LC0xLjcxMjggMS42NTQ1LC0zLjUzMjMgMi4wMzEyLC01LjQ2ODggMy4xMTk0LC0xNi4wMzQgLTIwLjk2MiwtMzQuMjg0IC00My4wMzEsLTM4LjUgLTMuMzk1LC0wLjY0ODY0IC0yOC44ODQsLTguNTc2IC0zMi4xNTgsLTguODA0NCB2IC00LjEyNSBsIDQxLjQzOSwxMi4xNDggYyAyNi4yODUsNS40OTYzIDQ0Ljk0OSwyMi40NDggNDEuODc1LDM4LjI1IC0wLjU5NTY0LDMuMDYxNiAtMS45NTYsNS44NTk1IC0zLjk2ODcsOC4zNDM4IHoiIGlkPSJwYXRoNDE3MSIgc3R5bGU9ImZpbGw6dXJsKCNsaW5lYXJHcmFkaWVudDQxOTEpIi8+JiN4YTsgICAgICA8cGF0aCBkPSJtIDkwMS42NSw2NDEuNyAtNi4xODc0LC0xLjg0MzggYyAwLjk2MDE1LC0xLjcxMjggMS42NTQ1LC0zLjUzMjMgMi4wMzEyLC01LjQ2ODggMy4xMTk0LC0xNi4wMzQgLTIwLjk2MiwtMzQuMjg0IC00My4wMzEsLTM4LjUgLTMuMzk1LC0wLjY0ODY0IC0yOC44ODQsLTguNTc2IC0zMi4xNTgsLTguODA0NCB2IC00LjEyNSBsIDQxLjQzOSwxMi4xNDggYyAyNi4yODUsNS40OTYzIDQ0Ljk0OSwyMi40NDggNDEuODc1LDM4LjI1IC0wLjU5NTY0LDMuMDYxNiAtMS45NTYsNS44NTk1IC0zLjk2ODcsOC4zNDM4IHoiIGlkPSJwYXRoNDE3MyIgc3R5bGU9ImZpbGw6dXJsKCNsaW5lYXJHcmFkaWVudDQxOTMpIi8+JiN4YTsgICAgICA8cGF0aCBkPSJtIDg1Ny4xMiw2MjYuOTMgLTMuOTY0MSwtMi4wOTM3IGMgMC44ODM2MSwtMS4wMzM0IDEuNjA0LC0yLjE2OTYgMi4xMjE2LC0zLjQzMzcgNC4yODYxLC0xMC40NjcgLTkuNTkwNiwtMjYuMTE3IC0yNC4wMDgsLTMxLjk2NCAtMC40NjE2MywtMC4xODcyMyAtMS42MTk1LC0wLjc1MDk4IC0zLjA0MjgsLTEuNDc5NiBsIDEyLjE3MSwzLjQ2MTYgYyAxNS40Niw3LjU1NTQgMjQuNTQsMjAuNjIgMjAuNTQ2LDMwLjM3MyAtMC44MTg0MiwxLjk5ODcgLTIuMTIxOCwzLjcyMTYgLTMuODI0NSw1LjEzNjYgeiIgaWQ9InBhdGg0MTc1IiBzdHlsZT0iZmlsbDp1cmwoI2xpbmVhckdyYWRpZW50NDE5NSkiLz4mI3hhOyAgICAgIDxwYXRoIGQ9Im0gODQzLjMyLDYyMy4zNiAtMy45NjQxLC0yLjA5MzcgYyAwLjg4MzYxLC0xLjAzMzQgMS42MDQsLTIuMTY5NiAyLjEyMTYsLTMuNDMzNyA0LjI4NjEsLTEwLjQ2NyAtOS41OTA2LC0yNi4xMTcgLTI0LjAwOCwtMzEuOTY0IC0wLjQ2MTYyLC0wLjE4NzIzIC0xLjYxOTUsLTAuNzUwOTggLTMuMDQyOCwtMS40Nzk2IGwgMTIuMTcxLDMuNDYxNiBjIDE1LjQ2LDcuNTU1NCAyNC41NCwyMC42MiAyMC41NDYsMzAuMzczIC0wLjgxODQyLDEuOTk4NyAtMi4xMjE4LDMuNzIxNiAtMy44MjQ1LDUuMTM2NiB6IiBpZD0icGF0aDQxNzciIHN0eWxlPSJmaWxsOnVybCgjbGluZWFyR3JhZGllbnQ0MTk3KSIvPiYjeGE7ICAgICAgPHBhdGggZD0ibSAyMzMuMjcsNjAzLjY2IGMgOC4yOTMsMi4wMjM0IDE1LjQ4NiwxLjQ3ODggMTkuNzk3LC01Ljc4NzIgbCAtMi40OTM0LC0xNy44OTcgYyAtNi44NzUxLC02LjE3MzIgLTEzLjc1LC00Ljk1MDkgLTIwLjYyNSwtMC4xNTU0MyBsIDMuMzIxMiwyMy44MzkgeiIgaWQ9InBhdGg0MTc5IiBzdHlsZT0iZmlsbDp1cmwoI2xpbmVhckdyYWRpZW50NDE5OSkiLz4mI3hhOyAgICAgIDxwYXRoIGQ9Im0gMjUzLjU0LDYwMC40IGMgOC4xNTAyLDEuMjEwMiAxNS4xNjcsMC41NzI4IDE4Ljg0MywtNS41MDgxIGwgLTIuMzczMSwtMTcuMDM0IGMgLTYuNDgzOSwtMi45NzQ4IC0xMi45ODMsLTUuMjA5NiAtMTkuNjMxLC0wLjE0NzkzIGwgMy4xNjExLDIyLjY5IHoiIGlkPSJwYXRoNDE4MSIgc3R5bGU9ImZpbGw6dXJsKCNsaW5lYXJHcmFkaWVudDQyMDEpIi8+JiN4YTsgICAgICA8cGF0aCBkPSJtIDQwMC4zNCw1OTYuNjQgYyAtMzMuNDU0LDAgLTY1LjQ5MiwtMS43ODk0IC05NS4wOTMsLTUuMDYyNSBsIC0zLjY1NjIsLTAuNDA2MjUgMS43MTg3LC0zLjI1IGMgNi42NzExLC0xMi42NjQgMTYuNTYyLC0yMS4xMTMgMjkuMDYyLC0yNi40MzggMTIuNTAxLC01LjMyNDEgMjcuNTcyLC03LjYxMjYgNDUuMDkzLC04LjQzNzUgMzUuMDQyLC0xLjY0OTggNzkuOTU0LDIuNjMxMiAxMzMuNTksMiA0OS42NTksLTAuNTg0MzggODkuNTA4LC0xLjg3ODcgMTIxLjUzLC0yLjM3NSBsIDEuMTI1LDQuNzUgYyAtNDcuODQ5LDIzLjY3NSAtMTM0LjM2LDM5LjIxOSAtMjMzLjM3LDM5LjIxOSB6IG0gMCwtNSBjIDkxLjE2OSwwIDE3MS43NSwtMTMuNDc5IDIyMC4wOSwtMzMuNzE5IC0yOS45NTIsMC41ODI0MSAtNjUuMjEyLDEuNjA2IC0xMDkuMzEsMi4xMjUgLTUzLjkzNywwLjYzNDczIC05OC45NzYsLTMuNjUyMiAtMTMzLjQsLTIuMDMxMiAtMTcuMjE0LDAuODEwNDYgLTMxLjc2NywzLjEwNTQgLTQzLjQwNiw4LjA2MjUgLTEwLjQ1Myw0LjQ1MjEgLTE4LjQ4NSwxMS4xNTQgLTI0LjUsMjAuOTA2IDI4LjMwNywyLjk4MzEgNTguNzM1LDQuNjU2MiA5MC41Myw0LjY1NjIgeiIgaWQ9InBhdGg0MTgzIiBzdHlsZT0idGV4dC1pbmRlbnQ6MDt0ZXh0LXRyYW5zZm9ybTpub25lO2Jsb2NrLXByb2dyZXNzaW9uOnRiO29wYWNpdHk6MC45O2NvbG9yOiMwMDAwMDA7ZmlsbDojMTkxOTE5Ii8+JiN4YTsgICAgPC9nPiYjeGE7ICA8L2c+JiN4YTsgIDxtZXRhZGF0YSBpZD0ibWV0YWRhdGE2MCI+JiN4YTsgICAgPHJkZjpSREY+JiN4YTsgICAgICA8Y2M6V29yaz4mI3hhOyAgICAgICAgPGRjOmZvcm1hdD5pbWFnZS9zdmcreG1sPC9kYzpmb3JtYXQ+JiN4YTsgICAgICAgIDxkYzp0eXBlIHJkZjpyZXNvdXJjZT0iaHR0cDovL3B1cmwub3JnL2RjL2RjbWl0eXBlL1N0aWxsSW1hZ2UiLz4mI3hhOyAgICAgICAgPGNjOmxpY2Vuc2UgcmRmOnJlc291cmNlPSJodHRwOi8vY3JlYXRpdmVjb21tb25zLm9yZy9saWNlbnNlcy9wdWJsaWNkb21haW4vIi8+JiN4YTsgICAgICAgIDxkYzpwdWJsaXNoZXI+JiN4YTsgICAgICAgICAgPGNjOkFnZW50IHJkZjphYm91dD0iaHR0cDovL29wZW5jbGlwYXJ0Lm9yZy8iPiYjeGE7ICAgICAgICAgICAgPGRjOnRpdGxlPk9wZW5jbGlwYXJ0PC9kYzp0aXRsZT4mI3hhOyAgICAgICAgICA8L2NjOkFnZW50PiYjeGE7ICAgICAgICA8L2RjOnB1Ymxpc2hlcj4mI3hhOyAgICAgICAgPGRjOnRpdGxlPlJlZCBDYXIgLSBUb3AgVmlldzwvZGM6dGl0bGU+JiN4YTsgICAgICAgIDxkYzpkYXRlPjIwMTAtMDUtMTlUMTU6MDI6MTI8L2RjOmRhdGU+JiN4YTsgICAgICAgIDxkYzpkZXNjcmlwdGlvbj5JIHdhcyB0aGlua2luZyBvZiBUcm9waHkgKCBodHRwOi8vdHJvcGh5LnNvdXJjZWZvcmdlLm5ldC9pbmRleC5waHA/Ym9keT1zY3JlZW5zaG90cyApIHdoZW4gcmVtaXhpbmcgdGhpcyBvbmUgOik8L2RjOmRlc2NyaXB0aW9uPiYjeGE7ICAgICAgICA8ZGM6c291cmNlPmh0dHA6Ly9vcGVuY2xpcGFydC5vcmcvZGV0YWlsLzYxMjAxL3JlZC1yYWNpbmctY2FyLXRvcC12aWV3LWJ5LXF1Ym9kdXA8L2RjOnNvdXJjZT4mI3hhOyAgICAgICAgPGRjOmNyZWF0b3I+JiN4YTsgICAgICAgICAgPGNjOkFnZW50PiYjeGE7ICAgICAgICAgICAgPGRjOnRpdGxlPnF1Ym9kdXA8L2RjOnRpdGxlPiYjeGE7ICAgICAgICAgIDwvY2M6QWdlbnQ+JiN4YTsgICAgICAgIDwvZGM6Y3JlYXRvcj4mI3hhOyAgICAgICAgPGRjOnN1YmplY3Q+JiN4YTsgICAgICAgICAgPHJkZjpCYWc+JiN4YTsgICAgICAgICAgICA8cmRmOmxpPmNhcjwvcmRmOmxpPiYjeGE7ICAgICAgICAgICAgPHJkZjpsaT5jbGlwIGFydDwvcmRmOmxpPiYjeGE7ICAgICAgICAgICAgPHJkZjpsaT5jbGlwYXJ0PC9yZGY6bGk+JiN4YTsgICAgICAgICAgICA8cmRmOmxpPmdhbWU8L3JkZjpsaT4mI3hhOyAgICAgICAgICAgIDxyZGY6bGk+Z2FtZSBzcHJpdGU8L3JkZjpsaT4mI3hhOyAgICAgICAgICAgIDxyZGY6bGk+cmFjaW5nPC9yZGY6bGk+JiN4YTsgICAgICAgICAgICA8cmRmOmxpPnJhY2luZyBjYXI8L3JkZjpsaT4mI3hhOyAgICAgICAgICAgIDxyZGY6bGk+cmVkPC9yZGY6bGk+JiN4YTsgICAgICAgICAgICA8cmRmOmxpPnJlZCBjYXI8L3JkZjpsaT4mI3hhOyAgICAgICAgICAgIDxyZGY6bGk+c2ltcGxlPC9yZGY6bGk+JiN4YTsgICAgICAgICAgICA8cmRmOmxpPnNpbXBsZSBjYXI8L3JkZjpsaT4mI3hhOyAgICAgICAgICAgIDxyZGY6bGk+c3ByaXRlPC9yZGY6bGk+JiN4YTsgICAgICAgICAgICA8cmRmOmxpPnRyYW5zcG9ydDwvcmRmOmxpPiYjeGE7ICAgICAgICAgICAgPHJkZjpsaT50cmFuc3BvcnRhdGlvbjwvcmRmOmxpPiYjeGE7ICAgICAgICAgICAgPHJkZjpsaT50cmF2ZWw8L3JkZjpsaT4mI3hhOyAgICAgICAgICAgIDxyZGY6bGk+dmlkZW8gZ2FtZTwvcmRmOmxpPiYjeGE7ICAgICAgICAgICAgPHJkZjpsaT52aWRlbyBnYW1lIGFydDwvcmRmOmxpPiYjeGE7ICAgICAgICAgICAgPHJkZjpsaT52aWRlbyBnYW1lIHNwcml0ZTwvcmRmOmxpPiYjeGE7ICAgICAgICAgIDwvcmRmOkJhZz4mI3hhOyAgICAgICAgPC9kYzpzdWJqZWN0PiYjeGE7ICAgICAgPC9jYzpXb3JrPiYjeGE7ICAgICAgPGNjOkxpY2Vuc2UgcmRmOmFib3V0PSJodHRwOi8vY3JlYXRpdmVjb21tb25zLm9yZy9saWNlbnNlcy9wdWJsaWNkb21haW4vIj4mI3hhOyAgICAgICAgPGNjOnBlcm1pdHMgcmRmOnJlc291cmNlPSJodHRwOi8vY3JlYXRpdmVjb21tb25zLm9yZy9ucyNSZXByb2R1Y3Rpb24iLz4mI3hhOyAgICAgICAgPGNjOnBlcm1pdHMgcmRmOnJlc291cmNlPSJodHRwOi8vY3JlYXRpdmVjb21tb25zLm9yZy9ucyNEaXN0cmlidXRpb24iLz4mI3hhOyAgICAgICAgPGNjOnBlcm1pdHMgcmRmOnJlc291cmNlPSJodHRwOi8vY3JlYXRpdmVjb21tb25zLm9yZy9ucyNEZXJpdmF0aXZlV29ya3MiLz4mI3hhOyAgICAgIDwvY2M6TGljZW5zZT4mI3hhOyAgICA8L3JkZjpSREY+JiN4YTsgIDwvbWV0YWRhdGE+JiN4YTs8L3N2Zz4=;" parent="1" vertex="1">
                    <mxGeometry x="100" y="362" width="79" height="39" as="geometry"/>
                </mxCell>
                <mxCell id="2" value="" style="endArrow=none;html=1;entryX=0.336;entryY=-0.008;entryDx=0;entryDy=0;entryPerimeter=0;strokeWidth=5;strokeColor=#FFFFFF;" parent="1" target="5" edge="1">
                    <mxGeometry width="50" height="50" relative="1" as="geometry">
                        <mxPoint x="59" y="347" as="sourcePoint"/>
                        <mxPoint x="540" y="375" as="targetPoint"/>
                    </mxGeometry>
                </mxCell>
                <mxCell id="14" value="" style="endArrow=classic;html=1;strokeColor=#FF8000;strokeWidth=3;exitX=1;exitY=0.5;exitDx=0;exitDy=0;startArrow=none;" parent="1" source="26" edge="1">
                    <mxGeometry width="50" height="50" relative="1" as="geometry">
                        <mxPoint x="240" y="340.5" as="sourcePoint"/>
                        <mxPoint x="510" y="340" as="targetPoint"/>
                        <Array as="points">
                            <mxPoint x="280" y="382"/>
                            <mxPoint x="310" y="370"/>
                            <mxPoint x="340" y="350"/>
                            <mxPoint x="370" y="340"/>
                            <mxPoint x="400" y="340"/>
                            <mxPoint x="430" y="340"/>
                        </Array>
                    </mxGeometry>
                </mxCell>
                <mxCell id="16" value="" style="ellipse;whiteSpace=wrap;html=1;strokeColor=none;fillColor=#020203;" parent="1" vertex="1">
                    <mxGeometry x="400" y="335" width="10" height="10" as="geometry"/>
                </mxCell>
                <mxCell id="54" value="" style="endArrow=none;html=1;strokeColor=#020203;strokeWidth=2;exitX=0.416;exitY=1.181;exitDx=0;exitDy=0;exitPerimeter=0;" parent="1" source="55" edge="1">
                    <mxGeometry width="50" height="50" relative="1" as="geometry">
                        <mxPoint x="460" y="290" as="sourcePoint"/>
                        <mxPoint x="430" y="310" as="targetPoint"/>
                    </mxGeometry>
                </mxCell>
                <mxCell id="55" value="margin" style="text;html=1;resizable=0;points=[];autosize=1;align=left;verticalAlign=top;spacingTop=-4;fontColor=#050505;fontSize=14;" parent="1" vertex="1">
                    <mxGeometry x="430" y="260" width="60" height="20" as="geometry"/>
                </mxCell>
                <mxCell id="53" value="" style="endArrow=classic;startArrow=classic;html=1;entryX=0;entryY=0.25;entryDx=0;entryDy=0;strokeColor=#050505;" parent="1" target="5" edge="1">
                    <mxGeometry width="50" height="50" relative="1" as="geometry">
                        <mxPoint x="420" y="320" as="sourcePoint"/>
                        <mxPoint x="400" y="290" as="targetPoint"/>
                    </mxGeometry>
                </mxCell>
                <mxCell id="26" value="" style="ellipse;whiteSpace=wrap;html=1;strokeColor=none;fillColor=#020203;" parent="1" vertex="1">
                    <mxGeometry x="270" y="376.5" width="10" height="10" as="geometry"/>
                </mxCell>
                <mxCell id="58" value="" style="endArrow=none;html=1;strokeColor=#FF8000;strokeWidth=3;exitX=1;exitY=0.5;exitDx=0;exitDy=0;" edge="1" parent="1" source="8" target="26">
                    <mxGeometry width="50" height="50" relative="1" as="geometry">
                        <mxPoint x="178.9999999999999" y="381.5" as="sourcePoint"/>
                        <mxPoint x="480" y="340" as="targetPoint"/>
                        <Array as="points"/>
                    </mxGeometry>
                </mxCell>
                <mxCell id="59" value="" style="endArrow=none;html=1;strokeColor=#020203;strokeWidth=2;entryX=0;entryY=0;entryDx=0;entryDy=0;" edge="1" parent="1" source="43" target="26">
                    <mxGeometry width="50" height="50" relative="1" as="geometry">
                        <mxPoint x="359.2477183232129" y="290" as="sourcePoint"/>
                        <mxPoint x="411.4644660940671" y="346.46446609406723" as="targetPoint"/>
                    </mxGeometry>
                </mxCell>
                <mxCell id="61" value="" style="ellipse;whiteSpace=wrap;html=1;strokeColor=none;fillColor=#020203;" vertex="1" parent="1">
                    <mxGeometry x="506" y="335" width="10" height="10" as="geometry"/>
                </mxCell>
                <mxCell id="62" value="" style="endArrow=none;html=1;strokeColor=#020203;strokeWidth=2;entryX=0;entryY=0;entryDx=0;entryDy=0;" edge="1" parent="1">
                    <mxGeometry width="50" height="50" relative="1" as="geometry">
                        <mxPoint x="530" y="280" as="sourcePoint"/>
                        <mxPoint x="512.2144660940671" y="336.46446609406723" as="targetPoint"/>
                    </mxGeometry>
                </mxCell>
                <mxCell id="63" value="goal" style="text;html=1;resizable=0;points=[];autosize=1;align=left;verticalAlign=top;spacingTop=-4;fontColor=#050505;fontSize=14;" vertex="1" parent="1">
                    <mxGeometry x="516" y="260" width="40" height="20" as="geometry"/>
                </mxCell>
                <mxCell id="66" value="" style="endArrow=none;dashed=1;html=1;exitX=0.75;exitY=0;exitDx=0;exitDy=0;entryX=0.75;entryY=1;entryDx=0;entryDy=0;strokeColor=#FFFFFF;strokeWidth=4;" edge="1" parent="1" source="64" target="64">
                    <mxGeometry width="50" height="50" relative="1" as="geometry">
                        <mxPoint x="801.5" y="110" as="sourcePoint"/>
                        <mxPoint x="781.5" y="240" as="targetPoint"/>
                        <Array as="points"/>
                    </mxGeometry>
                </mxCell>
                <mxCell id="70" value="" style="shape=image;verticalLabelPosition=bottom;labelBackgroundColor=#ffffff;verticalAlign=top;aspect=fixed;imageAspect=0;image=data:image/svg+xml,PHN2ZyB4bWxuczpkYz0iaHR0cDovL3B1cmwub3JnL2RjL2VsZW1lbnRzLzEuMS8iIHhtbG5zOmNjPSJodHRwOi8vY3JlYXRpdmVjb21tb25zLm9yZy9ucyMiIHhtbG5zOnJkZj0iaHR0cDovL3d3dy53My5vcmcvMTk5OS8wMi8yMi1yZGYtc3ludGF4LW5zIyIgeG1sbnM6c3ZnPSJodHRwOi8vd3d3LnczLm9yZy8yMDAwL3N2ZyIgeG1sbnM9Imh0dHA6Ly93d3cudzMub3JnLzIwMDAvc3ZnIiB4bWxuczp4bGluaz0iaHR0cDovL3d3dy53My5vcmcvMTk5OS94bGluayIgdmVyc2lvbj0iMS4xIiB3aWR0aD0iMTAwJSIgaGVpZ2h0PSIxMDAlIiB2aWV3Qm94PSIwIDAgOTYwIDQ3NiIgaWQ9InN2ZzIiPiYjeGE7ICA8dGl0bGUgaWQ9InRpdGxlMzk2OCI+UmVkIENhciAtIFRvcCBWaWV3PC90aXRsZT4mI3hhOyAgPGRlZnMgaWQ9ImRlZnM0Ij4mI3hhOyAgICA8bGluZWFyR3JhZGllbnQgaWQ9ImxpbmVhckdyYWRpZW50Mzc1OSI+JiN4YTsgICAgICA8c3RvcCBpZD0ic3RvcDM3NjEiIHN0eWxlPSJzdG9wLWNvbG9yOiMxYTFhMWE7c3RvcC1vcGFjaXR5OjEiIG9mZnNldD0iMCIvPiYjeGE7ICAgICAgPHN0b3AgaWQ9InN0b3AzNzYzIiBzdHlsZT0ic3RvcC1jb2xvcjojMDAwMDAwO3N0b3Atb3BhY2l0eTowIiBvZmZzZXQ9IjEiLz4mI3hhOyAgICA8L2xpbmVhckdyYWRpZW50PiYjeGE7ICAgIDxsaW5lYXJHcmFkaWVudCB4MT0iODcxLjMzMDAyIiB5MT0iODQyLjI5OTk5IiB4Mj0iODQ4LjE1OTk3IiB5Mj0iODM0LjY3OTk5IiBpZD0ibGluZWFyR3JhZGllbnQ0MTQ5IiB4bGluazpocmVmPSIjbGluZWFyR3JhZGllbnQzNzU5IiBncmFkaWVudFVuaXRzPSJ1c2VyU3BhY2VPblVzZSIgZ3JhZGllbnRUcmFuc2Zvcm09InRyYW5zbGF0ZSg4LjMwODUsLTIuNjUxOCkiLz4mI3hhOyAgICA8bGluZWFyR3JhZGllbnQgeDE9Ijg3OS45MDAwMiIgeTE9IjUzNy41IiB4Mj0iODEyLjE0MDAxIiB5Mj0iNTMzLjUiIGlkPSJsaW5lYXJHcmFkaWVudDQxNTMiIHhsaW5rOmhyZWY9IiNsaW5lYXJHcmFkaWVudDM3NTkiIGdyYWRpZW50VW5pdHM9InVzZXJTcGFjZU9uVXNlIiBncmFkaWVudFRyYW5zZm9ybT0ibWF0cml4KDAuODkzMzIsMCwwLDAuODkzMzIsODAuMzQ5LDM2NS4xNSkiLz4mI3hhOyAgICA8bGluZWFyR3JhZGllbnQgeDE9Ijg3OS45MDAwMiIgeTE9IjUzNy41IiB4Mj0iODE1LjgyMDAxIiB5Mj0iNTMxLjkwOTk3IiBpZD0ibGluZWFyR3JhZGllbnQ0MTU1IiB4bGluazpocmVmPSIjbGluZWFyR3JhZGllbnQzNzU5IiBncmFkaWVudFVuaXRzPSJ1c2VyU3BhY2VPblVzZSIgZ3JhZGllbnRUcmFuc2Zvcm09InRyYW5zbGF0ZSgyNy42MjUsMjk2LjQ5KSIvPiYjeGE7ICAgIDxsaW5lYXJHcmFkaWVudCB4MT0iODcxLjMzMDAyIiB5MT0iODQyLjI5OTk5IiB4Mj0iODQ4LjE1OTk3IiB5Mj0iODM0LjY3OTk5IiBpZD0ibGluZWFyR3JhZGllbnQ0MTg1IiB4bGluazpocmVmPSIjbGluZWFyR3JhZGllbnQzNzU5IiBncmFkaWVudFVuaXRzPSJ1c2VyU3BhY2VPblVzZSIgZ3JhZGllbnRUcmFuc2Zvcm09Im1hdHJpeCgxLDAsMCwtMSw4LjMwODUsMTQ1MikiLz4mI3hhOyAgICA8bGluZWFyR3JhZGllbnQgeDE9Ijg4Ny45MDAwMiIgeTE9IjUyOC4zNTk5OSIgeDI9Ijg3Ni4xNDAwMSIgeTI9IjUyOC40MTk5OCIgaWQ9ImxpbmVhckdyYWRpZW50NDE4NyIgeGxpbms6aHJlZj0iI2xpbmVhckdyYWRpZW50Mzc1OSIgZ3JhZGllbnRVbml0cz0idXNlclNwYWNlT25Vc2UiIGdyYWRpZW50VHJhbnNmb3JtPSJtYXRyaXgoMSwwLDAsLTEsMjEuNDM4LDExNTEuNSkiLz4mI3hhOyAgICA8bGluZWFyR3JhZGllbnQgeDE9Ijg3OS45MDAwMiIgeTE9IjUzNy41IiB4Mj0iODE1LjgyMDAxIiB5Mj0iNTMxLjkwOTk3IiBpZD0ibGluZWFyR3JhZGllbnQ0MTg5IiB4bGluazpocmVmPSIjbGluZWFyR3JhZGllbnQzNzU5IiBncmFkaWVudFVuaXRzPSJ1c2VyU3BhY2VPblVzZSIgZ3JhZGllbnRUcmFuc2Zvcm09Im1hdHJpeCgxLDAsMCwtMSwyNy42MjUsMTE1Mi45KSIvPiYjeGE7ICAgIDxsaW5lYXJHcmFkaWVudCB4MT0iODk3LjIxOTk3IiB5MT0iNTQyLjQwMDAyIiB4Mj0iODgzLjc2MDAxIiB5Mj0iNTM1LjM3IiBpZD0ibGluZWFyR3JhZGllbnQ0MTkxIiB4bGluazpocmVmPSIjbGluZWFyR3JhZGllbnQzNzU5IiBncmFkaWVudFVuaXRzPSJ1c2VyU3BhY2VPblVzZSIgZ3JhZGllbnRUcmFuc2Zvcm09Im1hdHJpeCgxLDAsMCwtMSwyMS40MzgsMTE1MS41KSIvPiYjeGE7ICAgIDxsaW5lYXJHcmFkaWVudCB4MT0iODgwLjcxMDAyIiB5MT0iNTUyLjA0OTk5IiB4Mj0iODM1Ljk4OTk5IiB5Mj0iNTAxLjA3OTk5IiBpZD0ibGluZWFyR3JhZGllbnQ0MTkzIiB4bGluazpocmVmPSIjbGluZWFyR3JhZGllbnQzNzU5IiBncmFkaWVudFVuaXRzPSJ1c2VyU3BhY2VPblVzZSIgZ3JhZGllbnRUcmFuc2Zvcm09Im1hdHJpeCgxLDAsMCwtMSwyMS40MzgsMTE1MS41KSIvPiYjeGE7ICAgIDxsaW5lYXJHcmFkaWVudCB4MT0iODg3LjkwMDAyIiB5MT0iNTI4LjM1OTk5IiB4Mj0iODA1LjI4OTk4IiB5Mj0iNTI5LjYwOTk5IiBpZD0ibGluZWFyR3JhZGllbnQ0MTk1IiB4bGluazpocmVmPSIjbGluZWFyR3JhZGllbnQzNzU5IiBncmFkaWVudFVuaXRzPSJ1c2VyU3BhY2VPblVzZSIgZ3JhZGllbnRUcmFuc2Zvcm09Im1hdHJpeCgwLjg5MzMyLDAsMCwtMC44OTMzMiw5NC4xNTYsMTA4Ny44KSIvPiYjeGE7ICAgIDxsaW5lYXJHcmFkaWVudCB4MT0iODc5LjkwMDAyIiB5MT0iNTM3LjUiIHgyPSI4MTIuMTQwMDEiIHkyPSI1MzMuNSIgaWQ9ImxpbmVhckdyYWRpZW50NDE5NyIgeGxpbms6aHJlZj0iI2xpbmVhckdyYWRpZW50Mzc1OSIgZ3JhZGllbnRVbml0cz0idXNlclNwYWNlT25Vc2UiIGdyYWRpZW50VHJhbnNmb3JtPSJtYXRyaXgoMC44OTMzMiwwLDAsLTAuODkzMzIsODAuMzQ5LDEwODQuMikiLz4mI3hhOyAgICA8bGluZWFyR3JhZGllbnQgeDE9IjIyOS43IiB5MT0iODczLjE0MDAxIiB4Mj0iMjA1LjU5IiB5Mj0iODY3LjY3OTk5IiBpZD0ibGluZWFyR3JhZGllbnQ0MTk5IiB4bGluazpocmVmPSIjbGluZWFyR3JhZGllbnQzNzU5IiBncmFkaWVudFVuaXRzPSJ1c2VyU3BhY2VPblVzZSIgZ3JhZGllbnRUcmFuc2Zvcm09Im1hdHJpeCgwLjk5MDQzLC0wLjEzNzk5LC0wLjEzNzk5LC0wLjk5MDQzLDE0Ni4wNSwxNDgzLjMpIi8+JiN4YTsgICAgPGxpbmVhckdyYWRpZW50IHgxPSIyMzguODMiIHkxPSI4NzMuMDYiIHgyPSIyMTYuNTYiIHkyPSI4NzIuNjUwMDIiIGlkPSJsaW5lYXJHcmFkaWVudDQyMDEiIHhsaW5rOmhyZWY9IiNsaW5lYXJHcmFkaWVudDM3NTkiIGdyYWRpZW50VW5pdHM9InVzZXJTcGFjZU9uVXNlIiBncmFkaWVudFRyYW5zZm9ybT0ibWF0cml4KDAuOTkwNDMsLTAuMTM3OTksLTAuMTM3OTksLTAuOTkwNDMsMTU2LjMxLDE0ODIpIi8+JiN4YTsgICAgPGxpbmVhckdyYWRpZW50IHgxPSI4ODcuOTAwMDIiIHkxPSI1MjguMzU5OTkiIHgyPSI4NzYuMTQwMDEiIHkyPSI1MjguNDE5OTgiIGlkPSJsaW5lYXJHcmFkaWVudDQyMDMiIHhsaW5rOmhyZWY9IiNsaW5lYXJHcmFkaWVudDM3NTkiIGdyYWRpZW50VW5pdHM9InVzZXJTcGFjZU9uVXNlIiBncmFkaWVudFRyYW5zZm9ybT0idHJhbnNsYXRlKDIxLjQzOCwyOTcuOTEpIi8+JiN4YTsgICAgPGxpbmVhckdyYWRpZW50IHgxPSI4OTcuMjE5OTciIHkxPSI1NDIuNDAwMDIiIHgyPSI4ODMuNzYwMDEiIHkyPSI1MzUuMzciIGlkPSJsaW5lYXJHcmFkaWVudDQyMDUiIHhsaW5rOmhyZWY9IiNsaW5lYXJHcmFkaWVudDM3NTkiIGdyYWRpZW50VW5pdHM9InVzZXJTcGFjZU9uVXNlIiBncmFkaWVudFRyYW5zZm9ybT0idHJhbnNsYXRlKDIxLjQzOCwyOTcuOTEpIi8+JiN4YTsgICAgPGxpbmVhckdyYWRpZW50IHgxPSI4ODAuNzEwMDIiIHkxPSI1NTIuMDQ5OTkiIHgyPSI4MzUuOTg5OTkiIHkyPSI1MDEuMDc5OTkiIGlkPSJsaW5lYXJHcmFkaWVudDQyMDciIHhsaW5rOmhyZWY9IiNsaW5lYXJHcmFkaWVudDM3NTkiIGdyYWRpZW50VW5pdHM9InVzZXJTcGFjZU9uVXNlIiBncmFkaWVudFRyYW5zZm9ybT0idHJhbnNsYXRlKDIxLjQzOCwyOTcuOTEpIi8+JiN4YTsgICAgPGxpbmVhckdyYWRpZW50IHgxPSI4ODcuOTAwMDIiIHkxPSI1MjguMzU5OTkiIHgyPSI4MDUuMjg5OTgiIHkyPSI1MjkuNjA5OTkiIGlkPSJsaW5lYXJHcmFkaWVudDQyMDkiIHhsaW5rOmhyZWY9IiNsaW5lYXJHcmFkaWVudDM3NTkiIGdyYWRpZW50VW5pdHM9InVzZXJTcGFjZU9uVXNlIiBncmFkaWVudFRyYW5zZm9ybT0ibWF0cml4KDAuODkzMzIsMCwwLDAuODkzMzIsOTQuMTU2LDM2MS41NykiLz4mI3hhOyAgICA8bGluZWFyR3JhZGllbnQgeDE9IjIyOS43IiB5MT0iODczLjE0MDAxIiB4Mj0iMjA1LjU5IiB5Mj0iODY3LjY3OTk5IiBpZD0ibGluZWFyR3JhZGllbnQ0MjExIiB4bGluazpocmVmPSIjbGluZWFyR3JhZGllbnQzNzU5IiBncmFkaWVudFVuaXRzPSJ1c2VyU3BhY2VPblVzZSIgZ3JhZGllbnRUcmFuc2Zvcm09Im1hdHJpeCgwLjk5MDQzLDAuMTM3OTksLTAuMTM3OTksMC45OTA0MywxNDYuMDUsLTMzLjg4NSkiLz4mI3hhOyAgICA8bGluZWFyR3JhZGllbnQgeDE9IjIzOC44MyIgeTE9Ijg3My4wNiIgeDI9IjIxNi41NiIgeTI9Ijg3Mi42NTAwMiIgaWQ9ImxpbmVhckdyYWRpZW50NDIxMyIgeGxpbms6aHJlZj0iI2xpbmVhckdyYWRpZW50Mzc1OSIgZ3JhZGllbnRVbml0cz0idXNlclNwYWNlT25Vc2UiIGdyYWRpZW50VHJhbnNmb3JtPSJtYXRyaXgoMC45OTA0MywwLjEzNzk5LC0wLjEzNzk5LDAuOTkwNDMsMTU2LjMxLC0zMi42MDMpIi8+JiN4YTsgIDwvZGVmcz4mI3hhOyAgPGcgdHJhbnNmb3JtPSJ0cmFuc2xhdGUoLTUyLjkzNywtNDg2LjY5KSIgaWQ9ImxheWVyMSI+JiN4YTsgICAgPGcgaWQ9ImczODkwIj4mI3hhOyAgICAgIDxwYXRoIGQ9Im0gNjEwLjUyLDQ5My42OSBjIC0xLjUwODYsMC4wMDkgLTQuNzIxMSwwLjMwNDkxIC02LjQ2ODcsMC45Mzc1IGwgLTMuNSwxLjUgOC42NTYyLDM1LjkzOCAtMTI0LjgxLDAuMjgxMjUgYyAtMi40MzYzLDAuMDA1IC00Ljg4NzYsLTAuMDE0IC03LjM0MzcsLTAuMDMxMiAtNC45MTIsLTAuMDM0MyAtOS44NjQ5LC0wLjEwNDU1IC0xNC44NDQsLTAuMjE4NzUgLTcuMjkyNiwtMC4xNjcyOCAtMTQuNjY5LC0wLjQxMjg4IC0yMi4wNjIsLTAuNzE4NzUgLTAuMzk1OTEsLTAuMDE2NCAtMC43OTEzNywtMC4wNDU3IC0xLjE4NzUsLTAuMDYyNSAtMTQuOTMyLC0wLjYzMDE4IC0zMC4wMDcsLTEuNDkxNyAtNDUuMDMxLC0yLjQzNzUgLTIwLjMyNiwtMS4yODI3IC00MC41MiwtMi43MDc0IC02MC4xMjQsLTMuODc1IC0xNC41MjgsLTAuODY1MyAtMjguNzMyLC0xLjU3OTYgLTQyLjM3NSwtMiAtOS4zNjkyLC0wLjI4ODczIC0xOC40NjQsLTAuNDU2NTUgLTI3LjI1LC0wLjQwNjI1IC00LjMxNTgsMC4wMjQ3IC04LjU2NzgsMC4wOTMzIC0xMi43MTksMC4yMTg3NSAtNC4xNTA4LDAuMTI1NDYgLTguMzgwMSwwLjM1NTMgLTEyLjY1NiwwLjY1NjI1IC0yLjEzOCwwLjE1MDQ3IC00LjI3NzgsMC4zMTAyNCAtNi40Mzc0LDAuNSAtNi40Njg5LDAuNTY4NCAtMTMuMDQ1LDEuMzIxNCAtMTkuNTk0LDIuMTg3NSAtMC4wMTAxLDEwZS00IC0wLjAyMTEsLTEwZS00IC0wLjAzMTIsMCAtNC4zNzI1LDAuNTc4NTggLTguNzE4NSwxLjIyNTUgLTEzLjA2MiwxLjkwNjIgLTQuMzQzOSwwLjY4MDczIC04LjY3MzQsMS4zOTc4IC0xMi45MzcsMi4xNTYyIC00LjI1MzcsMC43NTY2MiAtOC40NzA0LDEuNTY1NCAtMTIuNTk0LDIuMzc1IC0wLjAxLDAuMDAyIC0wLjAyMTIsLTAuMDAyIC0wLjAzMTIsMCAtMi4wNjY0LDAuNDA1ODYgLTQuMDY5NywwLjgwNDE3IC02LjA5MzcsMS4yMTg4IC02LjA2MTQsMS4yNDE2IC0xMS45MzQsMi41MTYgLTE3LjUsMy43ODEyIC0wLjAxMDEsMC4wMDIgLTAuMDIxMSwtMC4wMDIgLTAuMDMxMiwwIC0zLjcxNjUsMC44NDQ5IC03LjI4NzIsMS42NzUyIC0xMC43MTksMi41IC02Ljg2MzgsMS42NDg0IC0xMy4xMTUsMy4yMzQ2IC0xOC41MzEsNC42NTYyIC04LjEyMzYsMi4xMzI1IC0xNC4zODIsMy45MjcyIC0xOC4wOTQsNSAtMi40NzM2LDAuNzE1NzggLTMuODEyNSwxLjEyNSAtMy44MTI1LDEuMTI1IGwgLTEzLjY4NywzLjc1IGMgLTAuOTAyNCwwLjI0ODczIC0xLjc3ODEsMC42OTI5IC0yLjYyNSwxLjMxMjUgLTAuMjg3NzEsMC4yMTA1IC0wLjU2MjM0LDAuNDM1OTMgLTAuODQzNzQsMC42ODc1IC0xLjA5OTYsMC45Nzk2IC0yLjE1MSwyLjI3MDcgLTMuMTU2MiwzLjg0MzggLTAuMDA0NiwwLjAwNyAwLjAwNDYsMC4wMjQzIDAsMC4wMzEyIC0wLjUwMDM2LDAuNzg0NzMgLTEuMDIyNSwxLjY0MDUgLTEuNSwyLjU2MjUgLTAuMDA0MiwwLjAwOCAwLjAwNDIsMC4wMjMyIDAsMC4wMzEyIC0wLjQ3NzU3LDAuOTIzNyAtMC45NTExNCwxLjkxNDIgLTEuNDA2MiwyLjk2ODggLTAuMDAzNywwLjAwOSAwLjAwMzcsMC4wMjIyIDAsMC4wMzEyIC0zLjY2Nyw4LjUwOTUgLTYuNjIsMjEuMTMxIC04LjkzNzQsMzYuMjE5IC0wLjAwMTUsMC4wMSAwLjAwMTUsMC4wMjEyIDAsMC4wMzEyIC0wLjAzNTk1LDAuMjM0MTYgLTAuMDU4MSwwLjQ4MzQyIC0wLjA5Mzc1LDAuNzE4NzUgLTAuNTA0NjIsMy4zMzE1IC0wLjk5MjA0LDYuNzk4MiAtMS40Mzc1LDEwLjM0NCAtMC4wMzA0OCwwLjI0MjY1IC0wLjA2MzU1LDAuNDc1MTkgLTAuMDkzNzUsMC43MTg3NSAtMC41MDE1Nyw0LjA0MzIgLTAuOTQ2NzIsOC4yMDI1IC0xLjM3NSwxMi40NjkgLTAuMDAxLDAuMDEgOS45OWUtNCwwLjAyMTEgMCwwLjAzMTIgLTAuMjEzNTQsMi4xMjg0IC0wLjQyOTEyLDQuMjk0OCAtMC42MjQ5OSw2LjQ2ODggLTkuMjFlLTQsMC4wMSA5LjIxZS00LDAuMDIwOSAwLDAuMDMxMiAtMC4xOTU4MSwyLjE3NDMgLTAuMzgzOTcsNC4zNDkyIC0wLjU2MjQ5LDYuNTYyNSAtOC4yNmUtNCwwLjAxIDguMjVlLTQsMC4wMjA5IDAsMC4wMzEyIC0wLjM1Nzc1LDQuNDM3NiAtMC42NzgxNyw4Ljk0NTggLTAuOTY4NzQsMTMuNSAtNi41NmUtNCwwLjAxMDEgNi41NWUtNCwwLjAyMDkgMCwwLjAzMTIgLTAuODcyNiwxMy42ODQgLTEuNDU5NiwyNy43ODkgLTEuNzgxMiw0MS41NjIgLTIuNDVlLTQsMC4wMTA0IDIuNDRlLTQsMC4wMjA3IDAsMC4wMzEyIC0wLjIxNDQzLDkuMTg5NCAtMC4zMTI2LDE4LjIxMyAtMC4zMTI2LDI2LjkwNyAwLDAuOTY3NjMgMC4wMjc1NSwxLjk2MjkgMC4wMzEyNSwyLjkzNzUgLTAuMDAzNywwLjk3NDYyIC0wLjAzMTI1LDEuOTY5OSAtMC4wMzEyNSwyLjkzNzUgMCw4LjY5MzIgMC4wOTgxNiwxNy43MTcgMC4zMTI1LDI2LjkwNiAyLjQ0ZS00LDAuMDEwNSAtMi40NWUtNCwwLjAyMDggMCwwLjAzMTIgMC4zMjE2NSwxMy43NzQgMC45MDg2NCwyNy44NzggMS43ODEyLDQxLjU2MiA2LjU1ZS00LDAuMDEwMyAtNi41NmUtNCwwLjAyMTEgMCwwLjAzMTIgMC4yOTA1Nyw0LjU1NDIgMC42MTA5OSw5LjA2MjQgMC45Njg3NCwxMy41IDguMjVlLTQsMC4wMTAzIC04LjI2ZS00LDAuMDIxMSAwLDAuMDMxMiAwLjE3ODUyLDIuMjEzMyAwLjM2NjY4LDQuMzg4MiAwLjU2MjQ5LDYuNTYyNSA5LjIxZS00LDAuMDEwMyAtOS4yMWUtNCwwLjAyMTEgMCwwLjAzMTIgMC4xOTU4OCwyLjE3NCAwLjQxMTQ1LDQuMzQwNCAwLjYyNDk5LDYuNDY4OCA5Ljk5ZS00LDAuMDEwMiAtMC4wMDEsMC4wMjExIDAsMC4wMzEyIDAuNDI4MjYsNC4yNjYzIDAuODczNDIsOC40MjU2IDEuMzc1LDEyLjQ2OSAwLjAzMDIsMC4yNDM1NiAwLjA2MzI3LDAuNDc2MSAwLjA5Mzc1LDAuNzE4NzUgMC40NDU0NSwzLjU0NTYgMC45MzI4Nyw3LjAxMjMgMS40Mzc1LDEwLjM0NCAwLjAzNTY1LDAuMjM1MzMgMC4wNTc4LDAuNDg0NTkgMC4wOTM3NSwwLjcxODc1IDAuMDAxNSwwLjAxIC0wLjAwMTUsMC4wMjE1IDAsMC4wMzEyIDIuMzE3NCwxNS4wODcgNS4yNzA0LDI3LjcwOSA4LjkzNzQsMzYuMjE5IDAuMDAzNywwLjAwOSAtMC4wMDM3LDAuMDIyNiAwLDAuMDMxMiAwLjQ1NTA5LDEuMDU0NiAwLjkyODY2LDIuMDQ1IDEuNDA2MiwyLjk2ODggMC4wMDQyLDAuMDA4IC0wLjAwNDIsMC4wMjMxIDAsMC4wMzEyIDAuNDc3NTMsMC45MjIwNCAwLjk5OTYyLDEuNzc3OCAxLjUsMi41NjI1IDAuMDA0NiwwLjAwNyAtMC4wMDQ2LDAuMDI0MiAwLDAuMDMxMiAxLjAwNTIsMS41NzMxIDIuMDU2NiwyLjg2NDIgMy4xNTYyLDMuODQzOCAwLjI4MTQsMC4yNTE1NyAwLjU1NjAzLDAuNDc3IDAuODQzNzQsMC42ODc1IDAuODQ2ODYsMC42MTk2IDEuNzIyNiwxLjA2MzggMi42MjUsMS4zMTI1IGwgMTMuNjg3LDMuNzUgYyAwLDAgMS4zMzg4LDAuNDA5MjIgMy44MTI1LDEuMTI1IDMuNzExMSwxLjA3MjggOS45NywyLjg2NzUgMTguMDk0LDUgNS40MTU3LDEuNDIxNyAxMS42NjcsMy4wMDc4IDE4LjUzMSw0LjY1NjIgMy40MzE0LDAuODI0ODQgNy4wMDIyLDEuNjU1MSAxMC43MTksMi41IDAuMDEwMiwwLjAwMiAwLjAyMTEsLTAuMDAyIDAuMDMxMiwwIDUuNTY2MSwxLjI2NTIgMTEuNDM4LDIuNTM5NiAxNy41LDMuNzgxMiAyLjAyNCwwLjQxNDU4IDQuMDI3MywwLjgxMjg5IDYuMDkzNywxLjIxODggMC4wMTAxLDAuMDAyIDAuMDIxMiwtMC4wMDIgMC4wMzEyLDAgNC4xMjMyLDAuODA5NjUgOC4zMzk5LDEuNjE4NCAxMi41OTQsMi4zNzUgNC4yNjQsMC43NTg0MyA4LjU5MzUsMS40NzU1IDEyLjkzNywyLjE1NjIgNC4zNDM5LDAuNjgwNzMgOC42ODk4LDEuMzI3NyAxMy4wNjIsMS45MDYyIDAuMDEwMiwxMGUtNCAwLjAyMTEsLTEwZS00IDAuMDMxMiwwIDYuNTQ4NiwwLjg2NjExIDEzLjEyNSwxLjYxOTEgMTkuNTk0LDIuMTg3NSAyLjE1OTcsMC4xODk3NiA0LjI5OTQsMC4zNDk1MyA2LjQzNzQsMC41IDQuMjc2LDAuMzAwOTUgOC41MDUzLDAuNTMwNzkgMTIuNjU2LDAuNjU2MjUgNC4xNTA4LDAuMTI1NDYgOC40MDI4LDAuMTk0MDMgMTIuNzE5LDAuMjE4NzUgOC43ODU5LDAuMDUwMyAxNy44ODEsLTAuMTE3NTIgMjcuMjUsLTAuNDA2MjUgMTMuNjQyLC0wLjQyMDQzIDI3Ljg0NywtMS4xMzQ3IDQyLjM3NSwtMiAxOS42MDQsLTEuMTY3NiAzOS43OTgsLTIuNTkyMyA2MC4xMjQsLTMuODc1IDE1LjAyNCwtMC45NDU3OCAzMC4wOTgsLTEuODA3MyA0NS4wMzEsLTIuNDM3NSAwLjM5NjEyLC0wLjAxNjggMC43OTE1OCwtMC4wNDYxIDEuMTg3NSwtMC4wNjI1IDcuMzkzNCwtMC4zMDU4NyAxNC43NywtMC41NTE0NyAyMi4wNjIsLTAuNzE4NzUgNC45Nzg3LC0wLjExNDIgOS45MzE2LC0wLjE4NDQ3IDE0Ljg0NCwtMC4yMTg3NSAyLjQ1NiwtMC4wMTcyIDQuOTA3MywtMC4wMzY1IDcuMzQzNywtMC4wMzEyIGwgMTI0LjgxLDAuMjgxMjUgLTguNjU2MiwzNS45MzggMy41LDEuNSBjIDEuNzQ3NiwwLjYzMjU5IDQuOTYwMSwwLjkyODUxIDYuNDY4NywwLjkzNzUgMC44NDg2LDAuMDA1IDEuNzU1MSwtMC4wNzQxIDIuNjg3NSwtMC4yNSAwLjMxMDY5LC0wLjA1ODUgMC42MjM1MiwtMC4xNDEwNSAwLjkzNzQ5LC0wLjIxODc1IDAuMzA0NTksLTAuMDc1NiAwLjYzMjU4LC0wLjE1NjY4IDAuOTM3NDksLTAuMjUgMC42Mjg0NCwtMC4xOTMwNiAxLjI2MzUsLTAuNDIxNTYgMS44NzUsLTAuNjg3NSAxLjgyMTUsLTAuNzkzNTEgMy41MzQyLC0xLjkzMTQgNC43ODEyLC0zLjMxMjUgMC4wMSwtMC4wMTA3IDAuMDIxNywtMC4wMjA2IDAuMDMxMiwtMC4wMzEyIDAuNjI0OCwtMC42OTc5IDEuMTEyMywtMS40NTEyIDEuNDY4NywtMi4yODEyIGwgMTIuMTU2LC0zMS4zMTIgMTA5Ljk0LDAuMjUgYyAwLjc0NjksMC4zNzM5IDEuNDc2MSwwLjc0NTExIDIuMjE4NywxLjA5MzggMi45NzkyLDEuMzk5NSA1LjkxMSwyLjU5NyA4Ljg0MzYsMy42MjUgMS40NjIzLDAuNTEyNTkgMi45MTc4LDAuOTc1NDkgNC4zNzUsMS40MDYyIDUuMSwxLjUwNzUgMTAuMTg4LDIuNTUxNSAxNS4zNDQsMy4yNSAyLjk0NjIsMC4zOTkzMiA1LjkyNTksMC42OTM4OCA4LjkzNzQsMC45MDYyNSAxLjUwNTcsMC4xMDYxIDMuMDM0LDAuMTgwMTEgNC41NjI0LDAuMjUgMy4wNTcsMC4xMzk5NCA2LjEzODYsMC4yMTI4MyA5LjMxMjQsMC4yNSA2LjM0NzUsMC4wNzQxIDEyLjk3OSwwIDIwLDAgMTAuNDEsMCAyMC4zMjIsLTAuNTMxMjIgMjkuNzgxLC0xLjU2MjUgMy43ODM1LC0wLjQxMjUxIDcuNDkxMSwtMC44OTc0OSAxMS4xMjUsLTEuNDY4OCA3LjI2NzYsLTEuMTQyNSAxNC4yMjgsLTIuNjE4OSAyMC45MDYsLTQuMzc1IDEuNjY5NCwtMC40MzkwMyAzLjMzNTcsLTAuODk4NzQgNC45Njg3LC0xLjM3NSA0Ljg5OSwtMS40Mjg4IDkuNjEyOCwtMy4wMjU0IDE0LjE4NywtNC43ODEyIDEuNTI0OCwtMC41ODUyNyAzLjA0MiwtMS4xNjA1IDQuNTMxMiwtMS43ODEyIDIuOTc4MywtMS4yNDE0IDUuODgyLC0yLjU1NyA4LjcxODYsLTMuOTM3NSAxLjQxODMsLTAuNjkwMjcgMi44MzU1LC0xLjQwMDYgNC4yMTg3LC0yLjEyNSAyLjc2NjQsLTEuNDQ4OCA1LjQ2NjgsLTIuOTggOC4wOTM3LC00LjU2MjUgMS4zMTM1LC0wLjc5MTI1IDIuNTk2MSwtMS42MTM1IDMuODc1LC0yLjQzNzUgNi4zOTQzLC00LjEyMDEgMTIuMzYzLC04LjYyNTUgMTcuOTA2LC0xMy41MzEgNC40Mjg2LC0zLjkxOTUgOC42MDE1LC04LjA3OTggMTIuNSwtMTIuNDY5IDAuMDA1LC0wLjAwNiAtMC4wMDUsLTAuMDI1NCAwLC0wLjAzMTIgMC45NzA0NCwtMS4wOTI5IDEuOTM3LC0yLjE5MTYgMi44NzUsLTMuMzEyNSAwLjAwNSwtMC4wMDYgLTAuMDA1LC0wLjAyNTEgMCwtMC4wMzEyIDAuOTM3NzMsLTEuMTIwOSAxLjg3NTcsLTIuMjU3OCAyLjc4MTIsLTMuNDA2MiAwLjAwNSwtMC4wMDYgLTAuMDA1LC0wLjAyNDkgMCwtMC4wMzEyIDIuNzI1NiwtMy40NTgyIDUuMzEzMiwtNy4wMTg5IDcuNzQ5OSwtMTAuNzE5IDAuMDA1LC0wLjAwNyAtMC4wMDUsLTAuMDI0IDAsLTAuMDMxMiAwLjgwODgyLC0xLjIyODYgMS42Mjg5LC0yLjQ2NDQgMi40MDYyLC0zLjcxODggMC4wMDUsLTAuMDA4IC0wLjAwNSwtMC4wMjM4IDAsLTAuMDMxMiAyLjM0MDUsLTMuNzc4MSA0LjU2NjgsLTcuNjUyNSA2LjYyNDksLTExLjY1NiAwLjAwNCwtMC4wMDggLTAuMDA0LC0wLjAyMzEgMCwtMC4wMzEyIDAuNjgyOTksLTEuMzI5MiAxLjM0NzcsLTIuNjc4MSAyLC00LjAzMTIgMC4wMDQsLTAuMDA4IC0wLjAwNCwtMC4wMjI5IDAsLTAuMDMxMiAwLjY1MjA0LC0xLjM1MzMgMS4zMTYsLTIuNzE2OSAxLjkzNzUsLTQuMDkzOCAwLjAwNCwtMC4wMDkgLTAuMDA0LC0wLjAyMjcgMCwtMC4wMzEyIDEuMjQ2NCwtMi43NjI1IDIuNDM4LC01LjU1MTcgMy41NjI1LC04LjQwNjIgMC4wMDQsLTAuMDA5IC0wLjAwNCwtMC4wMjI0IDAsLTAuMDMxMiAwLjU2MDIzLC0xLjQyMjkgMS4wOTQ4LC0yLjg2NzQgMS42MjUsLTQuMzEyNSAwLjAwMywtMC4wMDkgLTAuMDAzLC0wLjAyMjIgMCwtMC4wMzEyIDAuNTMwMDIsLTEuNDQ1MiAxLjA2MjMsLTIuOTA4IDEuNTYyNSwtNC4zNzUgMC40OTk5OSwtMS40NjcxIDAuOTk4NDIsLTIuOTQ5IDEuNDY4NywtNC40Mzc1IDAuMDAzLC0wLjAwOSAtMC4wMDMsLTAuMDIyIDAsLTAuMDMxMiAwLjQ3MDEzLC0xLjQ4ODYgMC45MzQzNSwtMi45OTA1IDEuMzc1LC00LjUgMC4wMDMsLTAuMDEgLTAuMDAzLC0wLjAyMTcgMCwtMC4wMzEyIDAuNDQwNDUsLTEuNTA5NiAwLjg3MDA5LC0zLjAzMjQgMS4yODEyLC00LjU2MjUgMC4wMDMsLTAuMDEgLTAuMDAzLC0wLjAyMTcgMCwtMC4wMzEyIDEuMjM4MSwtNC42MTAxIDIuMzY4NCwtOS4zMDYgMy4zNDM3MiwtMTQuMDk0IHYgLTAuMDMxMiBjIDAuMzIzNiwtMS41ODk0IDAuNjExMiwtMy4yMDQ0IDAuOTA2MywtNC44MTI1IHYgLTAuMDMxMiBjIDIuMDc0NywtMTEuMzE4IDMuNDYyMSwtMjMuMDYyIDQuMTU2MiwtMzUuMjE5IDVlLTQsLTAuMDEwMyAtNmUtNCwtMC4wMjExIDAsLTAuMDMxMiAwLjA5OCwtMS43Mjc5IDAuMTc4NywtMy40NzU3IDAuMjUsLTUuMjE4OCA0ZS00LC0wLjAxMDMgLTRlLTQsLTAuMDIxMSAwLC0wLjAzMTIgMC4xNDI2LC0zLjQ5NjkgMC4yNDY3LC03LjAwNzIgMC4yODEyLC0xMC41NjIgMCwtMC4wMTAzIC0xMGUtNSwtMC4wMjExIDAsLTAuMDMxMiAwLjAxNywtMS43ODMgMC4wMSwtMy41NzggMCwtNS4zNzUgMCwtMC42MzU4IC0wLjAyMiwtMS4yNzE0IC0wLjAzMSwtMS45MDYyIDAuMDEsLTAuNjM0ODUgMC4wMzEsLTEuMjcwNCAwLjAzMSwtMS45MDYyIDAuMDEsLTEuNzk3IDAuMDE3LC0zLjU5MiAwLC01LjM3NSAtMTBlLTUsLTAuMDEwMiAwLC0wLjAyMDkgMCwtMC4wMzEyIC0wLjAzNCwtMy41NTUzIC0wLjEzODYsLTcuMDY1NiAtMC4yODEyLC0xMC41NjIgLTRlLTQsLTAuMDEwMiA0ZS00LC0wLjAyMDkgMCwtMC4wMzEyIC0wLjA3MSwtMS43NDMxIC0wLjE1MiwtMy40OTA4IC0wLjI1LC01LjIxODggLTZlLTQsLTAuMDEwMiA1ZS00LC0wLjAyMDkgMCwtMC4wMzEyIC0wLjY5NDEsLTEyLjE1NyAtMi4wODE1LC0yMy45IC00LjE1NjIsLTM1LjIxOSB2IC0wLjAzMTIgYyAtMC4yOTUxLC0xLjYwODEgLTAuNTgyNywtMy4yMjMxIC0wLjkwNjMsLTQuODEyNSB2IC0wLjAzMTIgYyAtMC45NzUzOSwtNC43ODc4IC0yLjEwNTYyLC05LjQ4MzYgLTMuMzQzNzIsLTE0LjA5NCAtMC4wMDMsLTAuMDEgMC4wMDMsLTAuMDIxMyAwLC0wLjAzMTIgLTAuNDExMTUsLTEuNTMwMSAtMC44NDA3OSwtMy4wNTI5IC0xLjI4MTIsLTQuNTYyNSAtMC4wMDMsLTAuMDEgMC4wMDMsLTAuMDIxMyAwLC0wLjAzMTIgLTAuNDQwNjMsLTEuNTA5NSAtMC45MDQ4NSwtMy4wMTE0IC0xLjM3NSwtNC41IC0wLjAwMywtMC4wMDkgMC4wMDMsLTAuMDIyMyAwLC0wLjAzMTIgLTAuNDcwMzIsLTEuNDg4NSAtMC45Njg3NSwtMi45NzA0IC0xLjQ2ODcsLTQuNDM3NSAtMC41MDAxNywtMS40NjcgLTEuMDMyNSwtMi45Mjk4IC0xLjU2MjUsLTQuMzc1IC0wLjAwMywtMC4wMDkgMC4wMDMsLTAuMDIyMyAwLC0wLjAzMTIgLTAuNTMwMjEsLTEuNDQ1MSAtMS4wNjQ4LC0yLjg4OTYgLTEuNjI1LC00LjMxMjUgLTAuMDA0LC0wLjAwOSAwLjAwNCwtMC4wMjIzIDAsLTAuMDMxMiAtMS4xMjQ0LC0yLjg1NDYgLTIuMzE2MSwtNS42NDM4IC0zLjU2MjUsLTguNDA2MiAtMC4wMDQsLTAuMDA4IDAuMDA0LC0wLjAyMjMgMCwtMC4wMzEyIC0wLjYyMTQ4LC0xLjM3NjggLTEuMjg1NCwtMi43NDA1IC0xLjkzNzUsLTQuMDkzOCAtMC4wMDQsLTAuMDA4IDAuMDA0LC0wLjAyMzMgMCwtMC4wMzEyIC0wLjY1MjI0LC0xLjM1MzIgLTEuMzE3LC0yLjcwMjEgLTIsLTQuMDMxMiAtMC4wMDQsLTAuMDA4IDAuMDA0LC0wLjAyMzMgMCwtMC4wMzEyIC0yLjA1ODIsLTQuMDAzOCAtNC4yODQ0LC03Ljg3ODIgLTYuNjI0OSwtMTEuNjU2IC0wLjAwNSwtMC4wMDcgMC4wMDUsLTAuMDIzMyAwLC0wLjAzMTIgLTAuNzc3MzMsLTEuMjU0MyAtMS41OTc0LC0yLjQ5MDIgLTIuNDA2MiwtMy43MTg4IC0wLjAwNSwtMC4wMDcgMC4wMDUsLTAuMDI0MiAwLC0wLjAzMTIgLTIuNDM2NywtMy42OTk5IC01LjAyNDMsLTcuMjYwNiAtNy43NDk5LC0xMC43MTkgLTAuMDA1LC0wLjAwNiAwLjAwNSwtMC4wMjUzIDAsLTAuMDMxMiAtMC45MDU0OSwtMS4xNDg1IC0xLjg0MzUsLTIuMjg1MyAtMi43ODEyLC0zLjQwNjIgLTAuMDA1LC0wLjAwNiAwLjAwNSwtMC4wMjUzIDAsLTAuMDMxMiAtMC45MzgwMSwtMS4xMjA5IC0xLjkwNDUsLTIuMjE5NiAtMi44NzUsLTMuMzEyNSAtMC4wMDUsLTAuMDA2IDAuMDA1LC0wLjAyNTMgMCwtMC4wMzEyIC0zLjg5ODMsLTQuMzg4OSAtOC4wNzEyLC04LjU0OTMgLTEyLjUsLTEyLjQ2OSAtNS41NDMsLTQuOTA1OCAtMTEuNTEyLC05LjQxMTIgLTE3LjkwNiwtMTMuNTMxIC0xLjI3ODksLTAuODI0MDIgLTIuNTYxNSwtMS42NDYyIC0zLjg3NSwtMi40Mzc1IC0yLjYyNjksLTEuNTgyNSAtNS4zMjczLC0zLjExMzcgLTguMDkzNywtNC41NjI1IC0xLjM4MzIsLTAuNzI0MzkgLTIuODAwNCwtMS40MzQ3IC00LjIxODcsLTIuMTI1IC0yLjgzNjcsLTEuMzgwNiAtNS43NDAzLC0yLjY5NjEgLTguNzE4NiwtMy45Mzc1IC0xLjQ4OTIsLTAuNjIwNzEgLTMuMDA2NCwtMS4xOTYgLTQuNTMxMiwtMS43ODEyIC00LjU3NDYsLTEuNzU1OCAtOS4yODgzLC0zLjM1MjUgLTE0LjE4NywtNC43ODEyIC0xLjYzMywtMC40NzYyNiAtMy4yOTkzLC0wLjkzNTk3IC00Ljk2ODcsLTEuMzc1IC02LjY3NzcsLTEuNzU2MSAtMTMuNjM4LC0zLjIzMjUgLTIwLjkwNiwtNC4zNzUgLTMuNjMzOCwtMC41NzEyNiAtNy4zNDE0LC0xLjA1NjIgLTExLjEyNSwtMS40Njg4IC05LjQ1ODYsLTEuMDMyNiAtMTkuMzcxLC0xLjU2MzggLTI5Ljc4MSwtMS41NjM4IC03LjAyMDQsMCAtMTMuNjUyLC0wLjA3NDEgLTIwLDAgLTMuMTczOCwwLjAzNzIgLTYuMjU1NCwwLjExMDA2IC05LjMxMjQsMC4yNSAtMS41Mjg1LDAuMDY5OSAtMy4wNTY4LDAuMTQzOSAtNC41NjI0LDAuMjUgLTMuMDExNSwwLjIxMjM3IC01Ljk5MTIsMC41MDY5MyAtOC45Mzc0LDAuOTA2MjUgLTUuMTU1NiwwLjY5ODQ5IC0xMC4yNDQsMS43NDI1IC0xNS4zNDQsMy4yNSAtMS40NTcyLDAuNDMwNzYgLTIuOTEyNywwLjg5MzY2IC00LjM3NSwxLjQwNjIgLTIuOTMyNywxLjAyOCAtNS44NjQ1LDIuMjI1NSAtOC44NDM2LDMuNjI1IC0wLjc0MjY3LDAuMzQ4NjQgLTEuNDcxOCwwLjcxOTg1IC0yLjIxODcsMS4wOTM4IGwgLTEwOS45NCwwLjI1IC0xMi4xNTYsLTMxLjMxMiBjIC0wLjM1NjQ0LC0wLjgzIC0wLjg0MzkzLC0xLjU4MzQgLTEuNDY4NywtMi4yODEyIC0wLjAxLC0wLjAxMDUgLTAuMDIxMywtMC4wMjA2IC0wLjAzMTIsLTAuMDMxMiAtMS4yNDcsLTEuMzgxMSAtMi45NTk3LC0yLjUxOSAtNC43ODEyLC0zLjMxMjUgLTAuNjExNDYsLTAuMjY1OTQgLTEuMjQ2NSwtMC40OTQ0NCAtMS44NzUsLTAuNjg3NSAtMC4zMDQ5MSwtMC4wOTMzIC0wLjYzMjksLTAuMTc0NCAtMC45Mzc0OSwtMC4yNSAtMC4zMTQwMiwtMC4wNzc3IC0wLjYyNjg1LC0wLjE2MDI1IC0wLjkzNzU0LC0wLjIxODc1IC0wLjkzMjQsLTAuMTc1OSAtMS44Mzg5LC0wLjI1NSAtMi42ODc1LC0wLjI1IHoiIGlkPSJwYXRoMzg1NSIgc3R5bGU9ImZpbGwtb3BhY2l0eTowLjk5NjA3OTk5O3N0cm9rZTojMTkxOTE5O3N0cm9rZS13aWR0aDoxNCIvPiYjeGE7ICAgICAgPHBhdGggZD0ibSA2MTAuNTIsNDkzLjY5IGMgLTEuNTA4NiwwLjAwOSAtNC43MjExLDAuMzA2MTEgLTYuNDY4NywwLjkzNzUgbCAtMy41LDEuNSA4LjY1NjIsMzUuODQ0IC0xMjQuODEsMC4yODEyNSBjIC03Ny45NjMsMC4xNjU0IC0xNjYuNTIsLTExLjUwNCAtMjMyLjkzLC05LjUgLTY2LjQxMiwyLjAwMzcgLTE1Mi4xMiwyOCAtMTUyLjEyLDI4IGwgLTEzLjY4NywzLjc4MTIgYyAtMTkuMjUxLDUuMjk2MyAtMjUuNzE4LDk3LjM2NyAtMjUuNzE4LDE2Ni43OCAwLDEuMTEzIDAuMDI2NjUsMi4yNTMxIDAuMDMxMjUsMy4zNzUgLTAuMDA0NiwxLjEyMTkgLTAuMDMxMjUsMi4yNjIgLTAuMDMxMjUsMy4zNzUgMCw2OS40MTQgNi40NjczLDE2MS40OCAyNS43MTgsMTY2Ljc4IGwgMTMuNjg3LDMuNzgxMiBjIDAsMCA4NS43MTEsMjUuOTk2IDE1Mi4xMiwyOCA2Ni40MTIsMi4wMDM3IDE1NC45NywtOS42NjU0IDIzMi45MywtOS41IGwgMTI0LjgxLDAuMjgxMjUgLTguNjU2MiwzNS44NDQgMy41LDEuNSBjIDEuNzQ3NiwwLjYzMTM5IDQuOTYsMC45Mjg1NCA2LjQ2ODcsMC45Mzc1IDAuODQ4NTksMC4wMDUgMS43NTUxLC0wLjA3NDQgMi42ODc1LC0wLjI1IDAuMzEwNywtMC4wNTg0IDAuNjIzNTIsLTAuMTQxMTkgMC45Mzc0OSwtMC4yMTg3NSAwLjMwNDU5LC0wLjA3NTQgMC42MzI1OSwtMC4xNTY4NiAwLjkzNzQ5LC0wLjI1IDAuNjI4NDQsLTAuMTkyNjkgMS4yNjM1LC0wLjQyMjA2IDEuODc1LC0wLjY4NzUgMS44MjE1LC0wLjc5MjAxIDMuNTM0MiwtMS45MDI4IDQuNzgxMiwtMy4yODEyIDAuMDEsLTAuMDEwNyAwLjAyMTcsLTAuMDIwOCAwLjAzMTIsLTAuMDMxMiAwLjYyNDgsLTAuNjk2NTggMS4xMTIzLC0xLjQ1MjggMS40Njg3LC0yLjI4MTIgbCAxMi4xNTYsLTMxLjI1IDEwOS45NCwwLjI1IGMgMjMuOSwxMS45NDIgNDUuNTExLDEwLjcxOSA3My41OTMsMTAuNzE5IDEzMy4yNSwwIDE4Ny42MzAwMiwtODYuNTg2IDE4Ny4wMDAwMiwtMjAxLjM4IDAsLTAuNzgwMiAtMC4wMTksLTEuNTY1NiAtMC4wMzEsLTIuMzQzOCAwLjAxMiwtMC43NzgxMSAwLjAzMSwtMS41NjM2IDAuMDMxLC0yLjM0MzggMC42MjgyLC0xMTQuNzkgLTUzLjc0OTAyLC0yMDEuMzggLTE4Ny4wMDAwMiwtMjAxLjM4IC0yOC4wODIsMCAtNDkuNjkzLC0xLjIyMzYgLTczLjU5MywxMC43MTkgbCAtMTA5Ljk0LDAuMjUgLTEyLjE1NiwtMzEuMjUgYyAtMC4zNTY0NSwtMC44Mjg0NCAtMC44NDM5MywtMS41ODQ3IC0xLjQ2ODcsLTIuMjgxMiAtMC4wMSwtMC4wMTA0IC0wLjAyMTMsLTAuMDIwNiAtMC4wMzEyLC0wLjAzMTIgLTEuMjQ3LC0xLjM3ODUgLTIuOTU5NywtMi40ODkyIC00Ljc4MTIsLTMuMjgxMiAtMC42MTE0OCwtMC4yNjU0NCAtMS4yNDY1LC0wLjQ5NDgxIC0xLjg3NSwtMC42ODc1IC0wLjMwNDksLTAuMDkzMSAtMC42MzI5LC0wLjE3NDYgLTAuOTM3NDksLTAuMjUgLTAuMzEzOTcsLTAuMDc3NiAtMC42MjY3OSwtMC4xNjAzNSAtMC45Mzc0OSwtMC4yMTg3NSAtMC45MzIzOSwtMC4xNzU2IC0xLjgzODksLTAuMjU1IC0yLjY4NzUsLTAuMjUgeiIgaWQ9InBhdGgyODUzIiBzdHlsZT0iZmlsbDojMzI3OGZmO2ZpbGwtb3BhY2l0eTowLjk5NjA3OTk5Ii8+JiN4YTsgICAgICA8cGF0aCBkPSJtIDQwMC4zNCw4NTUuMjQgYyAtMzMuMzY0LDAgLTY1LjMwNywxLjggLTk0LjgxMSw1LjA2MjUgMjUuNjYsNDguNzE0IDk3Ljk4NSwzMC4yNjUgMjA1LjU2LDMxLjUzMSA0OS42ODYsMC41ODQ3MSA4OS41NDMsMS44NzkzIDEyMS41MywyLjM3NSAtNDcuMTYsLTIzLjMzNCAtMTMzLjUzLC0zOC45NjkgLTIzMi4yOCwtMzguOTY5IHoiIGlkPSJwYXRoMzY0MyIgc3R5bGU9Im9wYWNpdHk6MC45O2ZpbGw6IzI2MjYyNjtmaWxsLW9wYWNpdHk6MC45OTYwNzk5OSIvPiYjeGE7ICAgICAgPHBhdGggZD0ibSA0MDAuMzQsODU1LjI0IGMgLTMuMjA2NCwwIC02LjM4MzEsMC4wMjk1IC05LjU2MjQsMC4wNjI1IDAuODE4MjUsMTYuMTcxIDYuNDI4MSwzMC4yNTcgMTQuNTk0LDM4Ljg0NCA0LjY3MTQsLTAuMDc1NiA5LjQ5NTEsLTAuMTk2NTUgMTQuNDM3LC0wLjM0Mzc1IC04LjU2NTcsLTguMTkyMyAtMTQuNTkzLC0yMi4yMjggLTE1LjcxOSwtMzguNTYyIC0xLjI1MTIsLTAuMDA1IC0yLjQ5NDcsMCAtMy43NSwwIHoiIGlkPSJwYXRoMzY1OCIgc3R5bGU9Im9wYWNpdHk6MC41O2ZpbGwtb3BhY2l0eTowLjk5NjA3OTk5Ii8+JiN4YTsgICAgICA8cGF0aCBkPSJtIDk4OS4wMiw4MjcuNSAtNS4wOTM3LDAuNTkzNzUgYyAtMjEuNTQ1LDIuNTEyNyAtMzcuNjg4LDI1Ljk3OSAtMzkuMjgxLDU0LjUzMSBsIC0wLjM3NDk5LDcuMTI1IDUuMjQ5OSwtNC44NDM4IGMgMTUuODg5LC0xNC42OCAyOC4zMDMsLTMyLjUwNyAzNy40MDYsLTUyLjc1IGwgMi4wOSwtNC42NSB6IiBpZD0icGF0aDM3MDciIHN0eWxlPSJ0ZXh0LWluZGVudDowO3RleHQtdHJhbnNmb3JtOm5vbmU7YmxvY2stcHJvZ3Jlc3Npb246dGI7Y29sb3I6IzAwMDAwMDtmaWxsOiMyMTIxMjE7c3Ryb2tlOiMxOTE5MTk7c3Ryb2tlLXdpZHRoOjUiLz4mI3hhOyAgICAgIDxwYXRoIGQ9Im0gNzgzLjQ3LDgzOC41IGMgMCwwIDc5LjY3NywtMjIuNTk2IDEwNS4zOCwtMzEuOTgyIDI2LjgzOSwtOS44MDE4IDk4Ljg1OSwtMzkuMTQ2IDk4Ljg1OSwtMzkuMTQ2IDAsMCAtOC43NDA5LDQyLjQ3IC0zMC40ODMsNTcuOTE4IC03Ny4yMyw1NC44NyAtMjMyLjY5LDUzLjg1IC0yMzIuNjksNTMuODUiIGlkPSJwYXRoMzcxNSIgc3R5bGU9Im9wYWNpdHk6MC41O2ZpbGw6bm9uZTtzdHJva2U6IzI5MjkyOTtzdHJva2Utd2lkdGg6NjtzdHJva2UtbGluZWNhcDpyb3VuZDtzdHJva2UtbGluZWpvaW46cm91bmQiLz4mI3hhOyAgICAgIDxwYXRoIGQ9Im0gODY5Ljk3LDgxNy44NCAtNC40Mzc0LDIuMzQzOCBjIDAuOTg5MTIsMS4xNTY4IDEuNzk1NSwyLjQyODYgMi4zNzUsMy44NDM4IDQuNzk3OSwxMS43MTcgLTEwLjczNiwyOS4yMzYgLTI2Ljg3NSwzNS43ODEgLTAuNTE2NzUsMC4yMDk1OCAtMS44MTI5LDAuODQwNjYgLTMuNDA2MiwxLjY1NjIgbCAxMy42MjUsLTMuODc1IGMgMTcuMzA2LC04LjQ1NzYgMjcuNDcsLTIzLjA4MiAyMywtMzQgLTAuOTE2MTUsLTIuMjM3MyAtMi4zNzUyLC00LjE2NjEgLTQuMjgxMiwtNS43NSB6IiBpZD0icGF0aDM3NTciIHN0eWxlPSJmaWxsOnVybCgjbGluZWFyR3JhZGllbnQ0MTQ5KSIvPiYjeGE7ICAgICAgPHBhdGggZD0ibSA4NzguNTUsODEzLjM4IC00LjQzNzUsMi4zNDM4IGMgMC45ODkxMywxLjE1NjggMS43OTU1LDIuNDI4NiAyLjM3NSwzLjg0MzggNC43OTc5LDExLjcxNyAtMTAuNzM2LDI5LjIzNiAtMjYuODc1LDM1Ljc4MSAtMC41MTY3NiwwLjIwOTU4IC0xLjgxMjksMC44NDA2NiAtMy40MDYyLDEuNjU2MiBsIDEzLjYyNSwtMy44NzUgYyAxNy4zMDYsLTguNDU3NiAyNy40NywtMjMuMDgyIDIzLC0zNCAtMC45MTYxNSwtMi4yMzczIC0yLjM3NTIsLTQuMTY2MSAtNC4yODEyLC01Ljc1IHoiIGlkPSJwYXRoMzc4NyIgc3R5bGU9ImZpbGw6dXJsKCNsaW5lYXJHcmFkaWVudDQyMDMpIi8+JiN4YTsgICAgICA8cGF0aCBkPSJtIDg4NC43NCw4MTEuOTYgLTQuNDM3NCwyLjM0MzggYyAwLjk4OTEzLDEuMTU2OCAxLjc5NTUsMi40Mjg2IDIuMzc1LDMuODQzOCA0Ljc5NzksMTEuNzE3IC0xMC43MzYsMjkuMjM2IC0yNi44NzUsMzUuNzgxIC0wLjUxNjc1LDAuMjA5NTggLTEuODEyOSwwLjg0MDY2IC0zLjQwNjIsMS42NTYyIGwgMTMuNjI1LC0zLjg3NSBjIDE3LjMwNiwtOC40NTc2IDI3LjQ3LC0yMy4wODIgMjMsLTM0IC0wLjkxNjE1LC0yLjIzNzMgLTIuMzc1MiwtNC4xNjYxIC00LjI4MTIsLTUuNzUgeiIgaWQ9InBhdGgzNzUyIiBzdHlsZT0iZmlsbDp1cmwoI2xpbmVhckdyYWRpZW50NDE1NSkiLz4mI3hhOyAgICAgIDxwYXRoIGQ9Im0gOTAxLjY1LDgwNy42OSAtNi4xODc0LDEuODQzOCBjIDAuOTYwMTUsMS43MTI4IDEuNjU0NSwzLjUzMjMgMi4wMzEyLDUuNDY4OCAzLjExOTQsMTYuMDM0IC0yMC45NjIsMzQuMjg0IC00My4wMzEsMzguNSAtMy4zOTUsMC42NDg2NCAtMjguODg0LDguNTc2IC0zMi4xNTgsOC44MDQ0IHYgNC4xMjUgbCA0MS40MzksLTEyLjE0OCBjIDI2LjI4NSwtNS40OTYzIDQ0Ljk0OSwtMjIuNDQ4IDQxLjg3NSwtMzguMjUgLTAuNTk1NjQsLTMuMDYxNiAtMS45NTYsLTUuODU5NSAtMy45Njg3LC04LjM0MzggeiIgaWQ9InBhdGgzNzM1IiBzdHlsZT0iZmlsbDp1cmwoI2xpbmVhckdyYWRpZW50NDIwNSkiLz4mI3hhOyAgICAgIDxwYXRoIGQ9Im0gOTAxLjY1LDgwNy42OSAtNi4xODc0LDEuODQzOCBjIDAuOTYwMTUsMS43MTI4IDEuNjU0NSwzLjUzMjMgMi4wMzEyLDUuNDY4OCAzLjExOTQsMTYuMDM0IC0yMC45NjIsMzQuMjg0IC00My4wMzEsMzguNSAtMy4zOTUsMC42NDg2NCAtMjguODg0LDguNTc2IC0zMi4xNTgsOC44MDQ0IHYgNC4xMjUgbCA0MS40MzksLTEyLjE0OCBjIDI2LjI4NSwtNS40OTYzIDQ0Ljk0OSwtMjIuNDQ4IDQxLjg3NSwtMzguMjUgLTAuNTk1NjQsLTMuMDYxNiAtMS45NTYsLTUuODU5NSAtMy45Njg3LC04LjM0MzggeiIgaWQ9InBhdGgzNzgzIiBzdHlsZT0iZmlsbDp1cmwoI2xpbmVhckdyYWRpZW50NDIwNykiLz4mI3hhOyAgICAgIDxwYXRoIGQ9Im0gODU3LjEyLDgyMi40NiAtMy45NjQxLDIuMDkzNyBjIDAuODgzNjEsMS4wMzM0IDEuNjA0LDIuMTY5NiAyLjEyMTYsMy40MzM3IDQuMjg2MSwxMC40NjcgLTkuNTkwNiwyNi4xMTcgLTI0LjAwOCwzMS45NjQgLTAuNDYxNjMsMC4xODcyMyAtMS42MTk1LDAuNzUwOTggLTMuMDQyOCwxLjQ3OTYgbCAxMi4xNzEsLTMuNDYxNiBjIDE1LjQ2LC03LjU1NTQgMjQuNTQsLTIwLjYyIDIwLjU0NiwtMzAuMzczIC0wLjgxODQyLC0xLjk5ODcgLTIuMTIxOCwtMy43MjE2IC0zLjgyNDUsLTUuMTM2NiB6IiBpZD0icGF0aDM3OTkiIHN0eWxlPSJmaWxsOnVybCgjbGluZWFyR3JhZGllbnQ0MjA5KSIvPiYjeGE7ICAgICAgPHBhdGggZD0ibSA4NDMuMzIsODI2LjAzIC0zLjk2NDEsMi4wOTM3IGMgMC44ODM2MSwxLjAzMzQgMS42MDQsMi4xNjk2IDIuMTIxNiwzLjQzMzcgNC4yODYxLDEwLjQ2NyAtOS41OTA2LDI2LjExNyAtMjQuMDA4LDMxLjk2NCAtMC40NjE2MiwwLjE4NzIzIC0xLjYxOTUsMC43NTA5OCAtMy4wNDI4LDEuNDc5NiBsIDEyLjE3MSwtMy40NjE2IGMgMTUuNDYsLTcuNTU1NCAyNC41NCwtMjAuNjIgMjAuNTQ2LC0zMC4zNzMgLTAuODE4NDIsLTEuOTk4NyAtMi4xMjE4LC0zLjcyMTYgLTMuODI0NSwtNS4xMzY2IHoiIGlkPSJwYXRoMzgwMyIgc3R5bGU9ImZpbGw6dXJsKCNsaW5lYXJHcmFkaWVudDQxNTMpIi8+JiN4YTsgICAgICA8cGF0aCBkPSJtIDIzMy4yNyw4NDUuNzIgYyA4LjI5MywtMi4wMjM0IDE1LjQ4NiwtMS40Nzg4IDE5Ljc5Nyw1Ljc4NzIgbCAtMi40OTM0LDE3Ljg5NyBjIC02Ljg3NTEsNi4xNzMyIC0xMy43NSw0Ljk1MDkgLTIwLjYyNSwwLjE1NTQzIGwgMy4zMjEyLC0yMy44MzkgeiIgaWQ9InJlY3QzODYxIiBzdHlsZT0iZmlsbDp1cmwoI2xpbmVhckdyYWRpZW50NDIxMSkiLz4mI3hhOyAgICAgIDxwYXRoIGQ9Im0gMjUzLjU0LDg0OC45OSBjIDguMTUwMiwtMS4yMTAyIDE1LjE2NywtMC41NzI4IDE4Ljg0Myw1LjUwODEgbCAtMi4zNzMxLDE3LjAzNCBjIC02LjQ4MzksMi45NzQ4IC0xMi45ODMsNS4yMDk2IC0xOS42MzEsMC4xNDc5MyBsIDMuMTYxMSwtMjIuNjkgeiIgaWQ9InBhdGgzODY0IiBzdHlsZT0iZmlsbDp1cmwoI2xpbmVhckdyYWRpZW50NDIxMykiLz4mI3hhOyAgICAgIDxwYXRoIGQ9Im0gNDAwLjM0LDg1Mi43NSBjIC0zMy40NTQsMCAtNjUuNDkyLDEuNzg5NCAtOTUuMDkzLDUuMDYyNSBsIC0zLjY1NjIsMC40MDYyNSAxLjcxODcsMy4yNSBjIDYuNjcxMSwxMi42NjQgMTYuNTYyLDIxLjExMyAyOS4wNjIsMjYuNDM4IDEyLjUwMSw1LjMyNDEgMjcuNTcyLDcuNjEyNiA0NS4wOTMsOC40Mzc1IDM1LjA0MiwxLjY0OTggNzkuOTU0LC0yLjYzMTIgMTMzLjU5LC0yIDQ5LjY1OSwwLjU4NDM4IDg5LjUwOCwxLjg3ODcgMTIxLjUzLDIuMzc1IGwgMS4xMjUsLTQuNzUgYyAtNDcuODQsLTIzLjY4IC0xMzQuMzQsLTM5LjIyIC0yMzMuMzYsLTM5LjIyIHogbSAwLDUgYyA5MS4xNjksMCAxNzEuNzUsMTMuNDc5IDIyMC4wOSwzMy43MTkgLTI5Ljk1MiwtMC41ODI0MSAtNjUuMjEyLC0xLjYwNiAtMTA5LjMxLC0yLjEyNSAtNTMuOTM3LC0wLjYzNDczIC05OC45NzYsMy42NTIyIC0xMzMuNCwyLjAzMTIgLTE3LjIxNCwtMC44MTA0NiAtMzEuNzY3LC0zLjEwNTQgLTQzLjQwNiwtOC4wNjI1IC0xMC40NTMsLTQuNDUyMSAtMTguNDg1LC0xMS4xNTQgLTI0LjUsLTIwLjkwNiAyOC4zMDcsLTIuOTgzMSA1OC43MzUsLTQuNjU2MiA5MC41MywtNC42NTYyIHoiIGlkPSJwYXRoNDAyNSIgc3R5bGU9InRleHQtaW5kZW50OjA7dGV4dC10cmFuc2Zvcm06bm9uZTtibG9jay1wcm9ncmVzc2lvbjp0YjtvcGFjaXR5OjAuOTtjb2xvcjojMDAwMDAwO2ZpbGw6IzE5MTkxOSIvPiYjeGE7ICAgICAgPHBhdGggZD0ibSAyNjAuNSw2MDcuMzggLTc3Ljc0OSwxMi40NjkgYyAtMjcuMTUsNC4zNTQyIC00OC45NDcsNDguNzczIC01MC45OTksMTA0Ljg0IDIuMDUyMyw1Ni4wNzEgMjMuODQ5LDEwMC40OSA1MC45OTksMTA0Ljg0IGwgNzcuNzQ5LDEyLjQ2OSBjIDEzLjI5NiwwIDI0LC0xMC43MDQgMjQsLTI0IHYgLTE4Ni42MiBjIDAsLTEzLjI5NiAtMTAuNzA0LC0yNCAtMjQsLTI0IHoiIGlkPSJyZWN0Mjg2NCIgc3R5bGU9Im9wYWNpdHk6MC45O2ZpbGw6IzI2MjYyNjtmaWxsLW9wYWNpdHk6MC45OTYwNzk5OTtzdHJva2U6IzE5MTkxOTtzdHJva2Utd2lkdGg6NSIvPiYjeGE7ICAgICAgPHBhdGggZD0ibSA2OTEuOTYsNTczLjE2IGMgLTIuOTY5MiwwIC01Ljg5MzMsMC4zMzIxNSAtOC43ODEyLDAuOTY4NzUgLTAuMDEwNCwtMC4wMSAtMC4wMjA4LC0wLjAyMSAtMC4wMzEyLC0wLjAzMTIgbCAtNjMuODQzLDEyLjMxMiBjIC0xNy43MjgsNi42MDQ3IC0zMiwxNC4yNzIgLTMyLDMyIHYgMjEyLjU2IGMgMCwxNy43MjggMTQuMjcyLDI1LjM5NSAzMiwzMiBsIDYzLjg0MywxMi4zMTIgYyAwLjAxMDUsLTAuMDEwMiAwLjAyMDgsLTAuMDIxMSAwLjAzMTIsLTAuMDMxMiAyLjg4NzksMC42MzY2IDUuODEyLDAuOTY4NzUgOC43ODEyLDAuOTY4NzUgNDUuMzk1LDAgODIuMTk4LC01Ny4zNjMgODIuMzEyLC0xNTEuNTMgLTAuMTE0MDgsLTk0LjE2OSAtMzYuOTE2LC0xNTEuNTMgLTgyLjMxMiwtMTUxLjUzIHoiIGlkPSJwYXRoMzcwMyIgc3R5bGU9Im9wYWNpdHk6MC45O2ZpbGw6IzI2MjYyNjtmaWxsLW9wYWNpdHk6MC45OTYwNzk5OTtzdHJva2U6IzE5MTkxOTtzdHJva2Utd2lkdGg6NSIvPiYjeGE7ICAgICAgPHBhdGggZD0ibSA0MDAuMzQsNTk0LjE1IGMgLTMzLjM2NCwwIC02NS4zMDcsLTEuOCAtOTQuODExLC01LjA2MjUgMjUuNjYsLTQ4LjcxNCA5Ny45ODUsLTMwLjI2NSAyMDUuNTYsLTMxLjUzMSA0OS42ODYsLTAuNTg0NzEgODkuNTQzLC0xLjg3OTMgMTIxLjUzLC0yLjM3NSAtNDcuMTYsMjMuMzM0IC0xMzMuNTMsMzguOTY5IC0yMzIuMjgsMzguOTY5IHoiIGlkPSJwYXRoNDE1NyIgc3R5bGU9Im9wYWNpdHk6MC45O2ZpbGw6IzI2MjYyNjtmaWxsLW9wYWNpdHk6MC45OTYwNzk5OSIvPiYjeGE7ICAgICAgPHBhdGggZD0ibSA0MDAuMzQsNTk0LjE1IGMgLTMuMjA2NCwwIC02LjM4MzEsLTAuMDI5NSAtOS41NjI0LC0wLjA2MjUgMC44MTgyNSwtMTYuMTcxIDYuNDI4MSwtMzAuMjU3IDE0LjU5NCwtMzguODQ0IDQuNjcxNCwwLjA3NTYgOS40OTUxLDAuMTk2NTUgMTQuNDM3LDAuMzQzNzUgLTguNTY1Nyw4LjE5MjMgLTE0LjU5MywyMi4yMjggLTE1LjcxOSwzOC41NjIgLTEuMjUxMiwwLjAwNSAtMi40OTQ3LDAgLTMuNzUsMCB6IiBpZD0icGF0aDQxNTkiIHN0eWxlPSJvcGFjaXR5OjAuNTtmaWxsLW9wYWNpdHk6MC45OTYwNzk5OSIvPiYjeGE7ICAgICAgPHBhdGggZD0ibSA5ODkuMDIsNjIxLjg5IC01LjA5MzcsLTAuNTkzNzUgYyAtMjEuNTQ1LC0yLjUxMjcgLTM3LjY4OCwtMjUuOTc5IC0zOS4yODEsLTU0LjUzMSBsIC0wLjM3NDk5LC03LjEyNSA1LjI0OTksNC44NDM4IGMgMTUuODg5LDE0LjY4IDI4LjMwMywzMi41MDcgMzcuNDA2LDUyLjc1IGwgMi4wOTM3LDQuNjU2MiB6IiBpZD0icGF0aDQxNjEiIHN0eWxlPSJ0ZXh0LWluZGVudDowO3RleHQtdHJhbnNmb3JtOm5vbmU7YmxvY2stcHJvZ3Jlc3Npb246dGI7Y29sb3I6IzAwMDAwMDtmaWxsOiMyMTIxMjE7c3Ryb2tlOiMxOTE5MTk7c3Ryb2tlLXdpZHRoOjUiLz4mI3hhOyAgICAgIDxwYXRoIGQ9Im0gNzgzLjQ3LDYxMC44OSBjIDAsMCA3OS42NzcsMjIuNTk2IDEwNS4zOCwzMS45ODIgMjYuODM5LDkuODAxOCA5OC44NTksMzkuMTQ2IDk4Ljg1OSwzOS4xNDYgMCwwIC04Ljc0MDksLTQyLjQ3IC0zMC40ODMsLTU3LjkxOCAtNzcuMjMsLTU0Ljg3IC0yMzIuNjksLTUzLjg2IC0yMzIuNjksLTUzLjg2IiBpZD0icGF0aDQxNjMiIHN0eWxlPSJvcGFjaXR5OjAuNTtmaWxsOm5vbmU7c3Ryb2tlOiMyOTI5Mjk7c3Ryb2tlLXdpZHRoOjY7c3Ryb2tlLWxpbmVjYXA6cm91bmQ7c3Ryb2tlLWxpbmVqb2luOnJvdW5kIi8+JiN4YTsgICAgICA8cGF0aCBkPSJtIDg2OS45Nyw2MzEuNTUgLTQuNDM3NCwtMi4zNDM4IGMgMC45ODkxMiwtMS4xNTY4IDEuNzk1NSwtMi40Mjg2IDIuMzc1LC0zLjg0MzggNC43OTc5LC0xMS43MTcgLTEwLjczNiwtMjkuMjM2IC0yNi44NzUsLTM1Ljc4MSAtMC41MTY3NSwtMC4yMDk1OCAtMS44MTI5LC0wLjg0MDY2IC0zLjQwNjIsLTEuNjU2MiBsIDEzLjYyNSwzLjg3NSBjIDE3LjMwNiw4LjQ1NzYgMjcuNDcsMjMuMDgyIDIzLDM0IC0wLjkxNjE1LDIuMjM3MyAtMi4zNzUyLDQuMTY2MSAtNC4yODEyLDUuNzUgeiIgaWQ9InBhdGg0MTY1IiBzdHlsZT0iZmlsbDp1cmwoI2xpbmVhckdyYWRpZW50NDE4NSkiLz4mI3hhOyAgICAgIDxwYXRoIGQ9Im0gODc4LjU1LDYzNi4wMSAtNC40Mzc1LC0yLjM0MzggYyAwLjk4OTEzLC0xLjE1NjggMS43OTU1LC0yLjQyODYgMi4zNzUsLTMuODQzOCA0Ljc5NzksLTExLjcxNyAtMTAuNzM2LC0yOS4yMzYgLTI2Ljg3NSwtMzUuNzgxIC0wLjUxNjc2LC0wLjIwOTU4IC0xLjgxMjksLTAuODQwNjYgLTMuNDA2MiwtMS42NTYyIGwgMTMuNjI1LDMuODc1IGMgMTcuMzA2LDguNDU3NiAyNy40NywyMy4wODIgMjMsMzQgLTAuOTE2MTUsMi4yMzczIC0yLjM3NTIsNC4xNjYxIC00LjI4MTIsNS43NSB6IiBpZD0icGF0aDQxNjciIHN0eWxlPSJmaWxsOnVybCgjbGluZWFyR3JhZGllbnQ0MTg3KSIvPiYjeGE7ICAgICAgPHBhdGggZD0ibSA4ODQuNzQsNjM3LjQyIC00LjQzNzQsLTIuMzQzOCBjIDAuOTg5MTMsLTEuMTU2OCAxLjc5NTUsLTIuNDI4NiAyLjM3NSwtMy44NDM4IDQuNzk3OSwtMTEuNzE3IC0xMC43MzYsLTI5LjIzNiAtMjYuODc1LC0zNS43ODEgLTAuNTE2NzUsLTAuMjA5NTggLTEuODEyOSwtMC44NDA2NiAtMy40MDYyLC0xLjY1NjIgbCAxMy42MjUsMy44NzUgYyAxNy4zMDYsOC40NTc2IDI3LjQ3LDIzLjA4MiAyMywzNCAtMC45MTYxNSwyLjIzNzMgLTIuMzc1Miw0LjE2NjEgLTQuMjgxMiw1Ljc1IHoiIGlkPSJwYXRoNDE2OSIgc3R5bGU9ImZpbGw6dXJsKCNsaW5lYXJHcmFkaWVudDQxODkpIi8+JiN4YTsgICAgICA8cGF0aCBkPSJtIDkwMS42NSw2NDEuNyAtNi4xODc0LC0xLjg0MzggYyAwLjk2MDE1LC0xLjcxMjggMS42NTQ1LC0zLjUzMjMgMi4wMzEyLC01LjQ2ODggMy4xMTk0LC0xNi4wMzQgLTIwLjk2MiwtMzQuMjg0IC00My4wMzEsLTM4LjUgLTMuMzk1LC0wLjY0ODY0IC0yOC44ODQsLTguNTc2IC0zMi4xNTgsLTguODA0NCB2IC00LjEyNSBsIDQxLjQzOSwxMi4xNDggYyAyNi4yODUsNS40OTYzIDQ0Ljk0OSwyMi40NDggNDEuODc1LDM4LjI1IC0wLjU5NTY0LDMuMDYxNiAtMS45NTYsNS44NTk1IC0zLjk2ODcsOC4zNDM4IHoiIGlkPSJwYXRoNDE3MSIgc3R5bGU9ImZpbGw6dXJsKCNsaW5lYXJHcmFkaWVudDQxOTEpIi8+JiN4YTsgICAgICA8cGF0aCBkPSJtIDkwMS42NSw2NDEuNyAtNi4xODc0LC0xLjg0MzggYyAwLjk2MDE1LC0xLjcxMjggMS42NTQ1LC0zLjUzMjMgMi4wMzEyLC01LjQ2ODggMy4xMTk0LC0xNi4wMzQgLTIwLjk2MiwtMzQuMjg0IC00My4wMzEsLTM4LjUgLTMuMzk1LC0wLjY0ODY0IC0yOC44ODQsLTguNTc2IC0zMi4xNTgsLTguODA0NCB2IC00LjEyNSBsIDQxLjQzOSwxMi4xNDggYyAyNi4yODUsNS40OTYzIDQ0Ljk0OSwyMi40NDggNDEuODc1LDM4LjI1IC0wLjU5NTY0LDMuMDYxNiAtMS45NTYsNS44NTk1IC0zLjk2ODcsOC4zNDM4IHoiIGlkPSJwYXRoNDE3MyIgc3R5bGU9ImZpbGw6dXJsKCNsaW5lYXJHcmFkaWVudDQxOTMpIi8+JiN4YTsgICAgICA8cGF0aCBkPSJtIDg1Ny4xMiw2MjYuOTMgLTMuOTY0MSwtMi4wOTM3IGMgMC44ODM2MSwtMS4wMzM0IDEuNjA0LC0yLjE2OTYgMi4xMjE2LC0zLjQzMzcgNC4yODYxLC0xMC40NjcgLTkuNTkwNiwtMjYuMTE3IC0yNC4wMDgsLTMxLjk2NCAtMC40NjE2MywtMC4xODcyMyAtMS42MTk1LC0wLjc1MDk4IC0zLjA0MjgsLTEuNDc5NiBsIDEyLjE3MSwzLjQ2MTYgYyAxNS40Niw3LjU1NTQgMjQuNTQsMjAuNjIgMjAuNTQ2LDMwLjM3MyAtMC44MTg0MiwxLjk5ODcgLTIuMTIxOCwzLjcyMTYgLTMuODI0NSw1LjEzNjYgeiIgaWQ9InBhdGg0MTc1IiBzdHlsZT0iZmlsbDp1cmwoI2xpbmVhckdyYWRpZW50NDE5NSkiLz4mI3hhOyAgICAgIDxwYXRoIGQ9Im0gODQzLjMyLDYyMy4zNiAtMy45NjQxLC0yLjA5MzcgYyAwLjg4MzYxLC0xLjAzMzQgMS42MDQsLTIuMTY5NiAyLjEyMTYsLTMuNDMzNyA0LjI4NjEsLTEwLjQ2NyAtOS41OTA2LC0yNi4xMTcgLTI0LjAwOCwtMzEuOTY0IC0wLjQ2MTYyLC0wLjE4NzIzIC0xLjYxOTUsLTAuNzUwOTggLTMuMDQyOCwtMS40Nzk2IGwgMTIuMTcxLDMuNDYxNiBjIDE1LjQ2LDcuNTU1NCAyNC41NCwyMC42MiAyMC41NDYsMzAuMzczIC0wLjgxODQyLDEuOTk4NyAtMi4xMjE4LDMuNzIxNiAtMy44MjQ1LDUuMTM2NiB6IiBpZD0icGF0aDQxNzciIHN0eWxlPSJmaWxsOnVybCgjbGluZWFyR3JhZGllbnQ0MTk3KSIvPiYjeGE7ICAgICAgPHBhdGggZD0ibSAyMzMuMjcsNjAzLjY2IGMgOC4yOTMsMi4wMjM0IDE1LjQ4NiwxLjQ3ODggMTkuNzk3LC01Ljc4NzIgbCAtMi40OTM0LC0xNy44OTcgYyAtNi44NzUxLC02LjE3MzIgLTEzLjc1LC00Ljk1MDkgLTIwLjYyNSwtMC4xNTU0MyBsIDMuMzIxMiwyMy44MzkgeiIgaWQ9InBhdGg0MTc5IiBzdHlsZT0iZmlsbDp1cmwoI2xpbmVhckdyYWRpZW50NDE5OSkiLz4mI3hhOyAgICAgIDxwYXRoIGQ9Im0gMjUzLjU0LDYwMC40IGMgOC4xNTAyLDEuMjEwMiAxNS4xNjcsMC41NzI4IDE4Ljg0MywtNS41MDgxIGwgLTIuMzczMSwtMTcuMDM0IGMgLTYuNDgzOSwtMi45NzQ4IC0xMi45ODMsLTUuMjA5NiAtMTkuNjMxLC0wLjE0NzkzIGwgMy4xNjExLDIyLjY5IHoiIGlkPSJwYXRoNDE4MSIgc3R5bGU9ImZpbGw6dXJsKCNsaW5lYXJHcmFkaWVudDQyMDEpIi8+JiN4YTsgICAgICA8cGF0aCBkPSJtIDQwMC4zNCw1OTYuNjQgYyAtMzMuNDU0LDAgLTY1LjQ5MiwtMS43ODk0IC05NS4wOTMsLTUuMDYyNSBsIC0zLjY1NjIsLTAuNDA2MjUgMS43MTg3LC0zLjI1IGMgNi42NzExLC0xMi42NjQgMTYuNTYyLC0yMS4xMTMgMjkuMDYyLC0yNi40MzggMTIuNTAxLC01LjMyNDEgMjcuNTcyLC03LjYxMjYgNDUuMDkzLC04LjQzNzUgMzUuMDQyLC0xLjY0OTggNzkuOTU0LDIuNjMxMiAxMzMuNTksMiA0OS42NTksLTAuNTg0MzggODkuNTA4LC0xLjg3ODcgMTIxLjUzLC0yLjM3NSBsIDEuMTI1LDQuNzUgYyAtNDcuODQ5LDIzLjY3NSAtMTM0LjM2LDM5LjIxOSAtMjMzLjM3LDM5LjIxOSB6IG0gMCwtNSBjIDkxLjE2OSwwIDE3MS43NSwtMTMuNDc5IDIyMC4wOSwtMzMuNzE5IC0yOS45NTIsMC41ODI0MSAtNjUuMjEyLDEuNjA2IC0xMDkuMzEsMi4xMjUgLTUzLjkzNywwLjYzNDczIC05OC45NzYsLTMuNjUyMiAtMTMzLjQsLTIuMDMxMiAtMTcuMjE0LDAuODEwNDYgLTMxLjc2NywzLjEwNTQgLTQzLjQwNiw4LjA2MjUgLTEwLjQ1Myw0LjQ1MjEgLTE4LjQ4NSwxMS4xNTQgLTI0LjUsMjAuOTA2IDI4LjMwNywyLjk4MzEgNTguNzM1LDQuNjU2MiA5MC41Myw0LjY1NjIgeiIgaWQ9InBhdGg0MTgzIiBzdHlsZT0idGV4dC1pbmRlbnQ6MDt0ZXh0LXRyYW5zZm9ybTpub25lO2Jsb2NrLXByb2dyZXNzaW9uOnRiO29wYWNpdHk6MC45O2NvbG9yOiMwMDAwMDA7ZmlsbDojMTkxOTE5Ii8+JiN4YTsgICAgPC9nPiYjeGE7ICA8L2c+JiN4YTsgIDxtZXRhZGF0YSBpZD0ibWV0YWRhdGE2MCI+JiN4YTsgICAgPHJkZjpSREY+JiN4YTsgICAgICA8Y2M6V29yaz4mI3hhOyAgICAgICAgPGRjOmZvcm1hdD5pbWFnZS9zdmcreG1sPC9kYzpmb3JtYXQ+JiN4YTsgICAgICAgIDxkYzp0eXBlIHJkZjpyZXNvdXJjZT0iaHR0cDovL3B1cmwub3JnL2RjL2RjbWl0eXBlL1N0aWxsSW1hZ2UiLz4mI3hhOyAgICAgICAgPGNjOmxpY2Vuc2UgcmRmOnJlc291cmNlPSJodHRwOi8vY3JlYXRpdmVjb21tb25zLm9yZy9saWNlbnNlcy9wdWJsaWNkb21haW4vIi8+JiN4YTsgICAgICAgIDxkYzpwdWJsaXNoZXI+JiN4YTsgICAgICAgICAgPGNjOkFnZW50IHJkZjphYm91dD0iaHR0cDovL29wZW5jbGlwYXJ0Lm9yZy8iPiYjeGE7ICAgICAgICAgICAgPGRjOnRpdGxlPk9wZW5jbGlwYXJ0PC9kYzp0aXRsZT4mI3hhOyAgICAgICAgICA8L2NjOkFnZW50PiYjeGE7ICAgICAgICA8L2RjOnB1Ymxpc2hlcj4mI3hhOyAgICAgICAgPGRjOnRpdGxlPlJlZCBDYXIgLSBUb3AgVmlldzwvZGM6dGl0bGU+JiN4YTsgICAgICAgIDxkYzpkYXRlPjIwMTAtMDUtMTlUMTU6MDI6MTI8L2RjOmRhdGU+JiN4YTsgICAgICAgIDxkYzpkZXNjcmlwdGlvbj5JIHdhcyB0aGlua2luZyBvZiBUcm9waHkgKCBodHRwOi8vdHJvcGh5LnNvdXJjZWZvcmdlLm5ldC9pbmRleC5waHA/Ym9keT1zY3JlZW5zaG90cyApIHdoZW4gcmVtaXhpbmcgdGhpcyBvbmUgOik8L2RjOmRlc2NyaXB0aW9uPiYjeGE7ICAgICAgICA8ZGM6c291cmNlPmh0dHA6Ly9vcGVuY2xpcGFydC5vcmcvZGV0YWlsLzYxMjAxL3JlZC1yYWNpbmctY2FyLXRvcC12aWV3LWJ5LXF1Ym9kdXA8L2RjOnNvdXJjZT4mI3hhOyAgICAgICAgPGRjOmNyZWF0b3I+JiN4YTsgICAgICAgICAgPGNjOkFnZW50PiYjeGE7ICAgICAgICAgICAgPGRjOnRpdGxlPnF1Ym9kdXA8L2RjOnRpdGxlPiYjeGE7ICAgICAgICAgIDwvY2M6QWdlbnQ+JiN4YTsgICAgICAgIDwvZGM6Y3JlYXRvcj4mI3hhOyAgICAgICAgPGRjOnN1YmplY3Q+JiN4YTsgICAgICAgICAgPHJkZjpCYWc+JiN4YTsgICAgICAgICAgICA8cmRmOmxpPmNhcjwvcmRmOmxpPiYjeGE7ICAgICAgICAgICAgPHJkZjpsaT5jbGlwIGFydDwvcmRmOmxpPiYjeGE7ICAgICAgICAgICAgPHJkZjpsaT5jbGlwYXJ0PC9yZGY6bGk+JiN4YTsgICAgICAgICAgICA8cmRmOmxpPmdhbWU8L3JkZjpsaT4mI3hhOyAgICAgICAgICAgIDxyZGY6bGk+Z2FtZSBzcHJpdGU8L3JkZjpsaT4mI3hhOyAgICAgICAgICAgIDxyZGY6bGk+cmFjaW5nPC9yZGY6bGk+JiN4YTsgICAgICAgICAgICA8cmRmOmxpPnJhY2luZyBjYXI8L3JkZjpsaT4mI3hhOyAgICAgICAgICAgIDxyZGY6bGk+cmVkPC9yZGY6bGk+JiN4YTsgICAgICAgICAgICA8cmRmOmxpPnJlZCBjYXI8L3JkZjpsaT4mI3hhOyAgICAgICAgICAgIDxyZGY6bGk+c2ltcGxlPC9yZGY6bGk+JiN4YTsgICAgICAgICAgICA8cmRmOmxpPnNpbXBsZSBjYXI8L3JkZjpsaT4mI3hhOyAgICAgICAgICAgIDxyZGY6bGk+c3ByaXRlPC9yZGY6bGk+JiN4YTsgICAgICAgICAgICA8cmRmOmxpPnRyYW5zcG9ydDwvcmRmOmxpPiYjeGE7ICAgICAgICAgICAgPHJkZjpsaT50cmFuc3BvcnRhdGlvbjwvcmRmOmxpPiYjeGE7ICAgICAgICAgICAgPHJkZjpsaT50cmF2ZWw8L3JkZjpsaT4mI3hhOyAgICAgICAgICAgIDxyZGY6bGk+dmlkZW8gZ2FtZTwvcmRmOmxpPiYjeGE7ICAgICAgICAgICAgPHJkZjpsaT52aWRlbyBnYW1lIGFydDwvcmRmOmxpPiYjeGE7ICAgICAgICAgICAgPHJkZjpsaT52aWRlbyBnYW1lIHNwcml0ZTwvcmRmOmxpPiYjeGE7ICAgICAgICAgIDwvcmRmOkJhZz4mI3hhOyAgICAgICAgPC9kYzpzdWJqZWN0PiYjeGE7ICAgICAgPC9jYzpXb3JrPiYjeGE7ICAgICAgPGNjOkxpY2Vuc2UgcmRmOmFib3V0PSJodHRwOi8vY3JlYXRpdmVjb21tb25zLm9yZy9saWNlbnNlcy9wdWJsaWNkb21haW4vIj4mI3hhOyAgICAgICAgPGNjOnBlcm1pdHMgcmRmOnJlc291cmNlPSJodHRwOi8vY3JlYXRpdmVjb21tb25zLm9yZy9ucyNSZXByb2R1Y3Rpb24iLz4mI3hhOyAgICAgICAgPGNjOnBlcm1pdHMgcmRmOnJlc291cmNlPSJodHRwOi8vY3JlYXRpdmVjb21tb25zLm9yZy9ucyNEaXN0cmlidXRpb24iLz4mI3hhOyAgICAgICAgPGNjOnBlcm1pdHMgcmRmOnJlc291cmNlPSJodHRwOi8vY3JlYXRpdmVjb21tb25zLm9yZy9ucyNEZXJpdmF0aXZlV29ya3MiLz4mI3hhOyAgICAgIDwvY2M6TGljZW5zZT4mI3hhOyAgICA8L3JkZjpSREY+JiN4YTsgIDwvbWV0YWRhdGE+JiN4YTs8L3N2Zz4=;" vertex="1" parent="1">
                    <mxGeometry x="671.5" y="362" width="79" height="39" as="geometry"/>
                </mxCell>
                <mxCell id="71" value="" style="endArrow=none;html=1;entryX=0.336;entryY=-0.008;entryDx=0;entryDy=0;entryPerimeter=0;strokeWidth=5;strokeColor=#FFFFFF;" edge="1" parent="1" target="64">
                    <mxGeometry width="50" height="50" relative="1" as="geometry">
                        <mxPoint x="630.5" y="347" as="sourcePoint"/>
                        <mxPoint x="1111.5" y="375" as="targetPoint"/>
                    </mxGeometry>
                </mxCell>
                <mxCell id="72" value="" style="endArrow=none;html=1;strokeWidth=2;exitX=1;exitY=0.5;exitDx=0;exitDy=0;startArrow=none;shadow=0;sketch=0;jumpStyle=none;endFill=0;strokeColor=#050505;" edge="1" parent="1" source="77">
                    <mxGeometry width="50" height="50" relative="1" as="geometry">
                        <mxPoint x="811.5" y="340.5" as="sourcePoint"/>
                        <mxPoint x="1081.5" y="340" as="targetPoint"/>
                        <Array as="points">
                            <mxPoint x="851.5" y="382"/>
                            <mxPoint x="881.5" y="375"/>
                            <mxPoint x="911.5" y="365"/>
                            <mxPoint x="941.5" y="345"/>
                            <mxPoint x="971.5" y="340"/>
                            <mxPoint x="1001.5" y="340"/>
                        </Array>
                    </mxGeometry>
                </mxCell>
                <mxCell id="73" value="" style="ellipse;whiteSpace=wrap;html=1;strokeColor=none;fillColor=#020203;" vertex="1" parent="1">
                    <mxGeometry x="971.5" y="335" width="10" height="10" as="geometry"/>
                </mxCell>
                <mxCell id="77" value="" style="ellipse;whiteSpace=wrap;html=1;strokeColor=none;fillColor=#020203;" vertex="1" parent="1">
                    <mxGeometry x="841.5" y="376.5" width="10" height="10" as="geometry"/>
                </mxCell>
                <mxCell id="80" value="" style="ellipse;whiteSpace=wrap;html=1;strokeColor=none;fillColor=#020203;" vertex="1" parent="1">
                    <mxGeometry x="1077.5" y="335" width="10" height="10" as="geometry"/>
                </mxCell>
                <mxCell id="83" value="" style="endArrow=none;html=1;strokeWidth=2;exitX=1;exitY=0.5;exitDx=0;exitDy=0;dashed=1;strokeColor=#050505;" edge="1" parent="1">
                    <mxGeometry width="50" height="50" relative="1" as="geometry">
                        <mxPoint x="846.5" y="339.71000000000004" as="sourcePoint"/>
                        <mxPoint x="1051.5" y="340" as="targetPoint"/>
                        <Array as="points"/>
                    </mxGeometry>
                </mxCell>
                <mxCell id="84" value="" style="endArrow=none;html=1;strokeColor=#020203;strokeWidth=2;dashed=1;" edge="1" parent="1">
                    <mxGeometry width="50" height="50" relative="1" as="geometry">
                        <mxPoint x="845.5" y="317" as="sourcePoint"/>
                        <mxPoint x="1085.5" y="317" as="targetPoint"/>
                    </mxGeometry>
                </mxCell>
                <mxCell id="85" value="" style="endArrow=none;html=1;strokeColor=#020203;strokeWidth=2;" edge="1" parent="1" source="86">
                    <mxGeometry width="50" height="50" relative="1" as="geometry">
                        <mxPoint x="1021.5" y="275" as="sourcePoint"/>
                        <mxPoint x="971.5" y="315" as="targetPoint"/>
                    </mxGeometry>
                </mxCell>
                <mxCell id="86" value="center line of shulder lane" style="text;html=1;resizable=0;points=[];autosize=1;align=left;verticalAlign=top;spacingTop=-4;fontColor=#050505;fontSize=14;" vertex="1" parent="1">
                    <mxGeometry x="931.5" y="255" width="180" height="20" as="geometry"/>
                </mxCell>
                <mxCell id="88" value="" style="curved=1;endArrow=classic;html=1;strokeWidth=2;strokeColor=#050505;" edge="1" parent="1">
                    <mxGeometry width="50" height="50" relative="1" as="geometry">
                        <mxPoint x="1093.5" y="315" as="sourcePoint"/>
                        <mxPoint x="1093.5" y="340" as="targetPoint"/>
                        <Array as="points">
                            <mxPoint x="1123.5" y="315"/>
                            <mxPoint x="1123.5" y="340"/>
                        </Array>
                    </mxGeometry>
                </mxCell>
                <mxCell id="90" value="uniform offset" style="text;html=1;resizable=0;points=[];autosize=1;align=left;verticalAlign=top;spacingTop=-4;fontColor=#050505;fontSize=14;" vertex="1" parent="1">
                    <mxGeometry x="1131.5" y="315" width="100" height="20" as="geometry"/>
                </mxCell>
                <mxCell id="97" value="" style="endArrow=none;html=1;strokeColor=#020203;strokeWidth=2;entryX=0.486;entryY=-0.05;entryDx=0;entryDy=0;entryPerimeter=0;" edge="1" parent="1" target="98">
                    <mxGeometry width="50" height="50" relative="1" as="geometry">
                        <mxPoint x="911.5" y="364.9999999999999" as="sourcePoint"/>
                        <mxPoint x="961.5" y="405" as="targetPoint"/>
                    </mxGeometry>
                </mxCell>
                <mxCell id="98" value="shifted path" style="text;html=1;resizable=0;points=[];autosize=1;align=left;verticalAlign=top;spacingTop=-4;fontColor=#050505;fontSize=14;" vertex="1" parent="1">
                    <mxGeometry x="940.5" y="386.5" width="90" height="20" as="geometry"/>
                </mxCell>
                <mxCell id="99" value="" style="rounded=0;whiteSpace=wrap;html=1;fillColor=#999999;strokeColor=#FFFFFF;fontColor=#ffffff;direction=south;" vertex="1" parent="1">
                    <mxGeometry x="632.5" y="515" width="480" height="170" as="geometry"/>
                </mxCell>
                <mxCell id="100" value="" style="endArrow=none;dashed=1;html=1;exitX=0.75;exitY=0;exitDx=0;exitDy=0;entryX=0.75;entryY=1;entryDx=0;entryDy=0;strokeColor=#FFFFFF;strokeWidth=4;" edge="1" parent="1" source="99" target="99">
                    <mxGeometry width="50" height="50" relative="1" as="geometry">
                        <mxPoint x="802.5" y="335" as="sourcePoint"/>
                        <mxPoint x="782.5" y="465" as="targetPoint"/>
                        <Array as="points"/>
                    </mxGeometry>
                </mxCell>
                <mxCell id="102" value="" style="endArrow=none;html=1;entryX=0.336;entryY=-0.008;entryDx=0;entryDy=0;entryPerimeter=0;strokeWidth=5;strokeColor=#FFFFFF;" edge="1" parent="1" target="99">
                    <mxGeometry width="50" height="50" relative="1" as="geometry">
                        <mxPoint x="631.5" y="572" as="sourcePoint"/>
                        <mxPoint x="1112.5" y="600" as="targetPoint"/>
                    </mxGeometry>
                </mxCell>
                <mxCell id="105" value="" style="ellipse;whiteSpace=wrap;html=1;strokeColor=none;fillColor=#020203;" vertex="1" parent="1">
                    <mxGeometry x="842.5" y="601.5" width="10" height="10" as="geometry"/>
                </mxCell>
                <mxCell id="109" value="" style="endArrow=none;html=1;strokeColor=#020203;strokeWidth=2;" edge="1" parent="1">
                    <mxGeometry width="50" height="50" relative="1" as="geometry">
                        <mxPoint x="737.5" y="510" as="sourcePoint"/>
                        <mxPoint x="782.5" y="600" as="targetPoint"/>
                    </mxGeometry>
                </mxCell>
                <mxCell id="110" value="center line of road lane" style="text;html=1;resizable=0;points=[];autosize=1;align=left;verticalAlign=top;spacingTop=-4;fontColor=#050505;fontSize=14;" vertex="1" parent="1">
                    <mxGeometry x="667" y="480" width="160" height="20" as="geometry"/>
                </mxCell>
                <mxCell id="119" style="edgeStyle=orthogonalEdgeStyle;rounded=0;sketch=0;jumpStyle=none;orthogonalLoop=1;jettySize=auto;html=1;shadow=0;endArrow=none;endFill=0;strokeColor=#050505;strokeWidth=2;entryX=0;entryY=0.5;entryDx=0;entryDy=0;" edge="1" parent="1" target="105">
                    <mxGeometry relative="1" as="geometry">
                        <mxPoint x="652.5" y="607" as="sourcePoint"/>
                    </mxGeometry>
                </mxCell>
                <mxCell id="101" value="" style="shape=image;verticalLabelPosition=bottom;labelBackgroundColor=#ffffff;verticalAlign=top;aspect=fixed;imageAspect=0;image=data:image/svg+xml,PHN2ZyB4bWxuczpkYz0iaHR0cDovL3B1cmwub3JnL2RjL2VsZW1lbnRzLzEuMS8iIHhtbG5zOmNjPSJodHRwOi8vY3JlYXRpdmVjb21tb25zLm9yZy9ucyMiIHhtbG5zOnJkZj0iaHR0cDovL3d3dy53My5vcmcvMTk5OS8wMi8yMi1yZGYtc3ludGF4LW5zIyIgeG1sbnM6c3ZnPSJodHRwOi8vd3d3LnczLm9yZy8yMDAwL3N2ZyIgeG1sbnM9Imh0dHA6Ly93d3cudzMub3JnLzIwMDAvc3ZnIiB4bWxuczp4bGluaz0iaHR0cDovL3d3dy53My5vcmcvMTk5OS94bGluayIgdmVyc2lvbj0iMS4xIiB3aWR0aD0iMTAwJSIgaGVpZ2h0PSIxMDAlIiB2aWV3Qm94PSIwIDAgOTYwIDQ3NiIgaWQ9InN2ZzIiPiYjeGE7ICA8dGl0bGUgaWQ9InRpdGxlMzk2OCI+UmVkIENhciAtIFRvcCBWaWV3PC90aXRsZT4mI3hhOyAgPGRlZnMgaWQ9ImRlZnM0Ij4mI3hhOyAgICA8bGluZWFyR3JhZGllbnQgaWQ9ImxpbmVhckdyYWRpZW50Mzc1OSI+JiN4YTsgICAgICA8c3RvcCBpZD0ic3RvcDM3NjEiIHN0eWxlPSJzdG9wLWNvbG9yOiMxYTFhMWE7c3RvcC1vcGFjaXR5OjEiIG9mZnNldD0iMCIvPiYjeGE7ICAgICAgPHN0b3AgaWQ9InN0b3AzNzYzIiBzdHlsZT0ic3RvcC1jb2xvcjojMDAwMDAwO3N0b3Atb3BhY2l0eTowIiBvZmZzZXQ9IjEiLz4mI3hhOyAgICA8L2xpbmVhckdyYWRpZW50PiYjeGE7ICAgIDxsaW5lYXJHcmFkaWVudCB4MT0iODcxLjMzMDAyIiB5MT0iODQyLjI5OTk5IiB4Mj0iODQ4LjE1OTk3IiB5Mj0iODM0LjY3OTk5IiBpZD0ibGluZWFyR3JhZGllbnQ0MTQ5IiB4bGluazpocmVmPSIjbGluZWFyR3JhZGllbnQzNzU5IiBncmFkaWVudFVuaXRzPSJ1c2VyU3BhY2VPblVzZSIgZ3JhZGllbnRUcmFuc2Zvcm09InRyYW5zbGF0ZSg4LjMwODUsLTIuNjUxOCkiLz4mI3hhOyAgICA8bGluZWFyR3JhZGllbnQgeDE9Ijg3OS45MDAwMiIgeTE9IjUzNy41IiB4Mj0iODEyLjE0MDAxIiB5Mj0iNTMzLjUiIGlkPSJsaW5lYXJHcmFkaWVudDQxNTMiIHhsaW5rOmhyZWY9IiNsaW5lYXJHcmFkaWVudDM3NTkiIGdyYWRpZW50VW5pdHM9InVzZXJTcGFjZU9uVXNlIiBncmFkaWVudFRyYW5zZm9ybT0ibWF0cml4KDAuODkzMzIsMCwwLDAuODkzMzIsODAuMzQ5LDM2NS4xNSkiLz4mI3hhOyAgICA8bGluZWFyR3JhZGllbnQgeDE9Ijg3OS45MDAwMiIgeTE9IjUzNy41IiB4Mj0iODE1LjgyMDAxIiB5Mj0iNTMxLjkwOTk3IiBpZD0ibGluZWFyR3JhZGllbnQ0MTU1IiB4bGluazpocmVmPSIjbGluZWFyR3JhZGllbnQzNzU5IiBncmFkaWVudFVuaXRzPSJ1c2VyU3BhY2VPblVzZSIgZ3JhZGllbnRUcmFuc2Zvcm09InRyYW5zbGF0ZSgyNy42MjUsMjk2LjQ5KSIvPiYjeGE7ICAgIDxsaW5lYXJHcmFkaWVudCB4MT0iODcxLjMzMDAyIiB5MT0iODQyLjI5OTk5IiB4Mj0iODQ4LjE1OTk3IiB5Mj0iODM0LjY3OTk5IiBpZD0ibGluZWFyR3JhZGllbnQ0MTg1IiB4bGluazpocmVmPSIjbGluZWFyR3JhZGllbnQzNzU5IiBncmFkaWVudFVuaXRzPSJ1c2VyU3BhY2VPblVzZSIgZ3JhZGllbnRUcmFuc2Zvcm09Im1hdHJpeCgxLDAsMCwtMSw4LjMwODUsMTQ1MikiLz4mI3hhOyAgICA8bGluZWFyR3JhZGllbnQgeDE9Ijg4Ny45MDAwMiIgeTE9IjUyOC4zNTk5OSIgeDI9Ijg3Ni4xNDAwMSIgeTI9IjUyOC40MTk5OCIgaWQ9ImxpbmVhckdyYWRpZW50NDE4NyIgeGxpbms6aHJlZj0iI2xpbmVhckdyYWRpZW50Mzc1OSIgZ3JhZGllbnRVbml0cz0idXNlclNwYWNlT25Vc2UiIGdyYWRpZW50VHJhbnNmb3JtPSJtYXRyaXgoMSwwLDAsLTEsMjEuNDM4LDExNTEuNSkiLz4mI3hhOyAgICA8bGluZWFyR3JhZGllbnQgeDE9Ijg3OS45MDAwMiIgeTE9IjUzNy41IiB4Mj0iODE1LjgyMDAxIiB5Mj0iNTMxLjkwOTk3IiBpZD0ibGluZWFyR3JhZGllbnQ0MTg5IiB4bGluazpocmVmPSIjbGluZWFyR3JhZGllbnQzNzU5IiBncmFkaWVudFVuaXRzPSJ1c2VyU3BhY2VPblVzZSIgZ3JhZGllbnRUcmFuc2Zvcm09Im1hdHJpeCgxLDAsMCwtMSwyNy42MjUsMTE1Mi45KSIvPiYjeGE7ICAgIDxsaW5lYXJHcmFkaWVudCB4MT0iODk3LjIxOTk3IiB5MT0iNTQyLjQwMDAyIiB4Mj0iODgzLjc2MDAxIiB5Mj0iNTM1LjM3IiBpZD0ibGluZWFyR3JhZGllbnQ0MTkxIiB4bGluazpocmVmPSIjbGluZWFyR3JhZGllbnQzNzU5IiBncmFkaWVudFVuaXRzPSJ1c2VyU3BhY2VPblVzZSIgZ3JhZGllbnRUcmFuc2Zvcm09Im1hdHJpeCgxLDAsMCwtMSwyMS40MzgsMTE1MS41KSIvPiYjeGE7ICAgIDxsaW5lYXJHcmFkaWVudCB4MT0iODgwLjcxMDAyIiB5MT0iNTUyLjA0OTk5IiB4Mj0iODM1Ljk4OTk5IiB5Mj0iNTAxLjA3OTk5IiBpZD0ibGluZWFyR3JhZGllbnQ0MTkzIiB4bGluazpocmVmPSIjbGluZWFyR3JhZGllbnQzNzU5IiBncmFkaWVudFVuaXRzPSJ1c2VyU3BhY2VPblVzZSIgZ3JhZGllbnRUcmFuc2Zvcm09Im1hdHJpeCgxLDAsMCwtMSwyMS40MzgsMTE1MS41KSIvPiYjeGE7ICAgIDxsaW5lYXJHcmFkaWVudCB4MT0iODg3LjkwMDAyIiB5MT0iNTI4LjM1OTk5IiB4Mj0iODA1LjI4OTk4IiB5Mj0iNTI5LjYwOTk5IiBpZD0ibGluZWFyR3JhZGllbnQ0MTk1IiB4bGluazpocmVmPSIjbGluZWFyR3JhZGllbnQzNzU5IiBncmFkaWVudFVuaXRzPSJ1c2VyU3BhY2VPblVzZSIgZ3JhZGllbnRUcmFuc2Zvcm09Im1hdHJpeCgwLjg5MzMyLDAsMCwtMC44OTMzMiw5NC4xNTYsMTA4Ny44KSIvPiYjeGE7ICAgIDxsaW5lYXJHcmFkaWVudCB4MT0iODc5LjkwMDAyIiB5MT0iNTM3LjUiIHgyPSI4MTIuMTQwMDEiIHkyPSI1MzMuNSIgaWQ9ImxpbmVhckdyYWRpZW50NDE5NyIgeGxpbms6aHJlZj0iI2xpbmVhckdyYWRpZW50Mzc1OSIgZ3JhZGllbnRVbml0cz0idXNlclNwYWNlT25Vc2UiIGdyYWRpZW50VHJhbnNmb3JtPSJtYXRyaXgoMC44OTMzMiwwLDAsLTAuODkzMzIsODAuMzQ5LDEwODQuMikiLz4mI3hhOyAgICA8bGluZWFyR3JhZGllbnQgeDE9IjIyOS43IiB5MT0iODczLjE0MDAxIiB4Mj0iMjA1LjU5IiB5Mj0iODY3LjY3OTk5IiBpZD0ibGluZWFyR3JhZGllbnQ0MTk5IiB4bGluazpocmVmPSIjbGluZWFyR3JhZGllbnQzNzU5IiBncmFkaWVudFVuaXRzPSJ1c2VyU3BhY2VPblVzZSIgZ3JhZGllbnRUcmFuc2Zvcm09Im1hdHJpeCgwLjk5MDQzLC0wLjEzNzk5LC0wLjEzNzk5LC0wLjk5MDQzLDE0Ni4wNSwxNDgzLjMpIi8+JiN4YTsgICAgPGxpbmVhckdyYWRpZW50IHgxPSIyMzguODMiIHkxPSI4NzMuMDYiIHgyPSIyMTYuNTYiIHkyPSI4NzIuNjUwMDIiIGlkPSJsaW5lYXJHcmFkaWVudDQyMDEiIHhsaW5rOmhyZWY9IiNsaW5lYXJHcmFkaWVudDM3NTkiIGdyYWRpZW50VW5pdHM9InVzZXJTcGFjZU9uVXNlIiBncmFkaWVudFRyYW5zZm9ybT0ibWF0cml4KDAuOTkwNDMsLTAuMTM3OTksLTAuMTM3OTksLTAuOTkwNDMsMTU2LjMxLDE0ODIpIi8+JiN4YTsgICAgPGxpbmVhckdyYWRpZW50IHgxPSI4ODcuOTAwMDIiIHkxPSI1MjguMzU5OTkiIHgyPSI4NzYuMTQwMDEiIHkyPSI1MjguNDE5OTgiIGlkPSJsaW5lYXJHcmFkaWVudDQyMDMiIHhsaW5rOmhyZWY9IiNsaW5lYXJHcmFkaWVudDM3NTkiIGdyYWRpZW50VW5pdHM9InVzZXJTcGFjZU9uVXNlIiBncmFkaWVudFRyYW5zZm9ybT0idHJhbnNsYXRlKDIxLjQzOCwyOTcuOTEpIi8+JiN4YTsgICAgPGxpbmVhckdyYWRpZW50IHgxPSI4OTcuMjE5OTciIHkxPSI1NDIuNDAwMDIiIHgyPSI4ODMuNzYwMDEiIHkyPSI1MzUuMzciIGlkPSJsaW5lYXJHcmFkaWVudDQyMDUiIHhsaW5rOmhyZWY9IiNsaW5lYXJHcmFkaWVudDM3NTkiIGdyYWRpZW50VW5pdHM9InVzZXJTcGFjZU9uVXNlIiBncmFkaWVudFRyYW5zZm9ybT0idHJhbnNsYXRlKDIxLjQzOCwyOTcuOTEpIi8+JiN4YTsgICAgPGxpbmVhckdyYWRpZW50IHgxPSI4ODAuNzEwMDIiIHkxPSI1NTIuMDQ5OTkiIHgyPSI4MzUuOTg5OTkiIHkyPSI1MDEuMDc5OTkiIGlkPSJsaW5lYXJHcmFkaWVudDQyMDciIHhsaW5rOmhyZWY9IiNsaW5lYXJHcmFkaWVudDM3NTkiIGdyYWRpZW50VW5pdHM9InVzZXJTcGFjZU9uVXNlIiBncmFkaWVudFRyYW5zZm9ybT0idHJhbnNsYXRlKDIxLjQzOCwyOTcuOTEpIi8+JiN4YTsgICAgPGxpbmVhckdyYWRpZW50IHgxPSI4ODcuOTAwMDIiIHkxPSI1MjguMzU5OTkiIHgyPSI4MDUuMjg5OTgiIHkyPSI1MjkuNjA5OTkiIGlkPSJsaW5lYXJHcmFkaWVudDQyMDkiIHhsaW5rOmhyZWY9IiNsaW5lYXJHcmFkaWVudDM3NTkiIGdyYWRpZW50VW5pdHM9InVzZXJTcGFjZU9uVXNlIiBncmFkaWVudFRyYW5zZm9ybT0ibWF0cml4KDAuODkzMzIsMCwwLDAuODkzMzIsOTQuMTU2LDM2MS41NykiLz4mI3hhOyAgICA8bGluZWFyR3JhZGllbnQgeDE9IjIyOS43IiB5MT0iODczLjE0MDAxIiB4Mj0iMjA1LjU5IiB5Mj0iODY3LjY3OTk5IiBpZD0ibGluZWFyR3JhZGllbnQ0MjExIiB4bGluazpocmVmPSIjbGluZWFyR3JhZGllbnQzNzU5IiBncmFkaWVudFVuaXRzPSJ1c2VyU3BhY2VPblVzZSIgZ3JhZGllbnRUcmFuc2Zvcm09Im1hdHJpeCgwLjk5MDQzLDAuMTM3OTksLTAuMTM3OTksMC45OTA0MywxNDYuMDUsLTMzLjg4NSkiLz4mI3hhOyAgICA8bGluZWFyR3JhZGllbnQgeDE9IjIzOC44MyIgeTE9Ijg3My4wNiIgeDI9IjIxNi41NiIgeTI9Ijg3Mi42NTAwMiIgaWQ9ImxpbmVhckdyYWRpZW50NDIxMyIgeGxpbms6aHJlZj0iI2xpbmVhckdyYWRpZW50Mzc1OSIgZ3JhZGllbnRVbml0cz0idXNlclNwYWNlT25Vc2UiIGdyYWRpZW50VHJhbnNmb3JtPSJtYXRyaXgoMC45OTA0MywwLjEzNzk5LC0wLjEzNzk5LDAuOTkwNDMsMTU2LjMxLC0zMi42MDMpIi8+JiN4YTsgIDwvZGVmcz4mI3hhOyAgPGcgdHJhbnNmb3JtPSJ0cmFuc2xhdGUoLTUyLjkzNywtNDg2LjY5KSIgaWQ9ImxheWVyMSI+JiN4YTsgICAgPGcgaWQ9ImczODkwIj4mI3hhOyAgICAgIDxwYXRoIGQ9Im0gNjEwLjUyLDQ5My42OSBjIC0xLjUwODYsMC4wMDkgLTQuNzIxMSwwLjMwNDkxIC02LjQ2ODcsMC45Mzc1IGwgLTMuNSwxLjUgOC42NTYyLDM1LjkzOCAtMTI0LjgxLDAuMjgxMjUgYyAtMi40MzYzLDAuMDA1IC00Ljg4NzYsLTAuMDE0IC03LjM0MzcsLTAuMDMxMiAtNC45MTIsLTAuMDM0MyAtOS44NjQ5LC0wLjEwNDU1IC0xNC44NDQsLTAuMjE4NzUgLTcuMjkyNiwtMC4xNjcyOCAtMTQuNjY5LC0wLjQxMjg4IC0yMi4wNjIsLTAuNzE4NzUgLTAuMzk1OTEsLTAuMDE2NCAtMC43OTEzNywtMC4wNDU3IC0xLjE4NzUsLTAuMDYyNSAtMTQuOTMyLC0wLjYzMDE4IC0zMC4wMDcsLTEuNDkxNyAtNDUuMDMxLC0yLjQzNzUgLTIwLjMyNiwtMS4yODI3IC00MC41MiwtMi43MDc0IC02MC4xMjQsLTMuODc1IC0xNC41MjgsLTAuODY1MyAtMjguNzMyLC0xLjU3OTYgLTQyLjM3NSwtMiAtOS4zNjkyLC0wLjI4ODczIC0xOC40NjQsLTAuNDU2NTUgLTI3LjI1LC0wLjQwNjI1IC00LjMxNTgsMC4wMjQ3IC04LjU2NzgsMC4wOTMzIC0xMi43MTksMC4yMTg3NSAtNC4xNTA4LDAuMTI1NDYgLTguMzgwMSwwLjM1NTMgLTEyLjY1NiwwLjY1NjI1IC0yLjEzOCwwLjE1MDQ3IC00LjI3NzgsMC4zMTAyNCAtNi40Mzc0LDAuNSAtNi40Njg5LDAuNTY4NCAtMTMuMDQ1LDEuMzIxNCAtMTkuNTk0LDIuMTg3NSAtMC4wMTAxLDEwZS00IC0wLjAyMTEsLTEwZS00IC0wLjAzMTIsMCAtNC4zNzI1LDAuNTc4NTggLTguNzE4NSwxLjIyNTUgLTEzLjA2MiwxLjkwNjIgLTQuMzQzOSwwLjY4MDczIC04LjY3MzQsMS4zOTc4IC0xMi45MzcsMi4xNTYyIC00LjI1MzcsMC43NTY2MiAtOC40NzA0LDEuNTY1NCAtMTIuNTk0LDIuMzc1IC0wLjAxLDAuMDAyIC0wLjAyMTIsLTAuMDAyIC0wLjAzMTIsMCAtMi4wNjY0LDAuNDA1ODYgLTQuMDY5NywwLjgwNDE3IC02LjA5MzcsMS4yMTg4IC02LjA2MTQsMS4yNDE2IC0xMS45MzQsMi41MTYgLTE3LjUsMy43ODEyIC0wLjAxMDEsMC4wMDIgLTAuMDIxMSwtMC4wMDIgLTAuMDMxMiwwIC0zLjcxNjUsMC44NDQ5IC03LjI4NzIsMS42NzUyIC0xMC43MTksMi41IC02Ljg2MzgsMS42NDg0IC0xMy4xMTUsMy4yMzQ2IC0xOC41MzEsNC42NTYyIC04LjEyMzYsMi4xMzI1IC0xNC4zODIsMy45MjcyIC0xOC4wOTQsNSAtMi40NzM2LDAuNzE1NzggLTMuODEyNSwxLjEyNSAtMy44MTI1LDEuMTI1IGwgLTEzLjY4NywzLjc1IGMgLTAuOTAyNCwwLjI0ODczIC0xLjc3ODEsMC42OTI5IC0yLjYyNSwxLjMxMjUgLTAuMjg3NzEsMC4yMTA1IC0wLjU2MjM0LDAuNDM1OTMgLTAuODQzNzQsMC42ODc1IC0xLjA5OTYsMC45Nzk2IC0yLjE1MSwyLjI3MDcgLTMuMTU2MiwzLjg0MzggLTAuMDA0NiwwLjAwNyAwLjAwNDYsMC4wMjQzIDAsMC4wMzEyIC0wLjUwMDM2LDAuNzg0NzMgLTEuMDIyNSwxLjY0MDUgLTEuNSwyLjU2MjUgLTAuMDA0MiwwLjAwOCAwLjAwNDIsMC4wMjMyIDAsMC4wMzEyIC0wLjQ3NzU3LDAuOTIzNyAtMC45NTExNCwxLjkxNDIgLTEuNDA2MiwyLjk2ODggLTAuMDAzNywwLjAwOSAwLjAwMzcsMC4wMjIyIDAsMC4wMzEyIC0zLjY2Nyw4LjUwOTUgLTYuNjIsMjEuMTMxIC04LjkzNzQsMzYuMjE5IC0wLjAwMTUsMC4wMSAwLjAwMTUsMC4wMjEyIDAsMC4wMzEyIC0wLjAzNTk1LDAuMjM0MTYgLTAuMDU4MSwwLjQ4MzQyIC0wLjA5Mzc1LDAuNzE4NzUgLTAuNTA0NjIsMy4zMzE1IC0wLjk5MjA0LDYuNzk4MiAtMS40Mzc1LDEwLjM0NCAtMC4wMzA0OCwwLjI0MjY1IC0wLjA2MzU1LDAuNDc1MTkgLTAuMDkzNzUsMC43MTg3NSAtMC41MDE1Nyw0LjA0MzIgLTAuOTQ2NzIsOC4yMDI1IC0xLjM3NSwxMi40NjkgLTAuMDAxLDAuMDEgOS45OWUtNCwwLjAyMTEgMCwwLjAzMTIgLTAuMjEzNTQsMi4xMjg0IC0wLjQyOTEyLDQuMjk0OCAtMC42MjQ5OSw2LjQ2ODggLTkuMjFlLTQsMC4wMSA5LjIxZS00LDAuMDIwOSAwLDAuMDMxMiAtMC4xOTU4MSwyLjE3NDMgLTAuMzgzOTcsNC4zNDkyIC0wLjU2MjQ5LDYuNTYyNSAtOC4yNmUtNCwwLjAxIDguMjVlLTQsMC4wMjA5IDAsMC4wMzEyIC0wLjM1Nzc1LDQuNDM3NiAtMC42NzgxNyw4Ljk0NTggLTAuOTY4NzQsMTMuNSAtNi41NmUtNCwwLjAxMDEgNi41NWUtNCwwLjAyMDkgMCwwLjAzMTIgLTAuODcyNiwxMy42ODQgLTEuNDU5NiwyNy43ODkgLTEuNzgxMiw0MS41NjIgLTIuNDVlLTQsMC4wMTA0IDIuNDRlLTQsMC4wMjA3IDAsMC4wMzEyIC0wLjIxNDQzLDkuMTg5NCAtMC4zMTI2LDE4LjIxMyAtMC4zMTI2LDI2LjkwNyAwLDAuOTY3NjMgMC4wMjc1NSwxLjk2MjkgMC4wMzEyNSwyLjkzNzUgLTAuMDAzNywwLjk3NDYyIC0wLjAzMTI1LDEuOTY5OSAtMC4wMzEyNSwyLjkzNzUgMCw4LjY5MzIgMC4wOTgxNiwxNy43MTcgMC4zMTI1LDI2LjkwNiAyLjQ0ZS00LDAuMDEwNSAtMi40NWUtNCwwLjAyMDggMCwwLjAzMTIgMC4zMjE2NSwxMy43NzQgMC45MDg2NCwyNy44NzggMS43ODEyLDQxLjU2MiA2LjU1ZS00LDAuMDEwMyAtNi41NmUtNCwwLjAyMTEgMCwwLjAzMTIgMC4yOTA1Nyw0LjU1NDIgMC42MTA5OSw5LjA2MjQgMC45Njg3NCwxMy41IDguMjVlLTQsMC4wMTAzIC04LjI2ZS00LDAuMDIxMSAwLDAuMDMxMiAwLjE3ODUyLDIuMjEzMyAwLjM2NjY4LDQuMzg4MiAwLjU2MjQ5LDYuNTYyNSA5LjIxZS00LDAuMDEwMyAtOS4yMWUtNCwwLjAyMTEgMCwwLjAzMTIgMC4xOTU4OCwyLjE3NCAwLjQxMTQ1LDQuMzQwNCAwLjYyNDk5LDYuNDY4OCA5Ljk5ZS00LDAuMDEwMiAtMC4wMDEsMC4wMjExIDAsMC4wMzEyIDAuNDI4MjYsNC4yNjYzIDAuODczNDIsOC40MjU2IDEuMzc1LDEyLjQ2OSAwLjAzMDIsMC4yNDM1NiAwLjA2MzI3LDAuNDc2MSAwLjA5Mzc1LDAuNzE4NzUgMC40NDU0NSwzLjU0NTYgMC45MzI4Nyw3LjAxMjMgMS40Mzc1LDEwLjM0NCAwLjAzNTY1LDAuMjM1MzMgMC4wNTc4LDAuNDg0NTkgMC4wOTM3NSwwLjcxODc1IDAuMDAxNSwwLjAxIC0wLjAwMTUsMC4wMjE1IDAsMC4wMzEyIDIuMzE3NCwxNS4wODcgNS4yNzA0LDI3LjcwOSA4LjkzNzQsMzYuMjE5IDAuMDAzNywwLjAwOSAtMC4wMDM3LDAuMDIyNiAwLDAuMDMxMiAwLjQ1NTA5LDEuMDU0NiAwLjkyODY2LDIuMDQ1IDEuNDA2MiwyLjk2ODggMC4wMDQyLDAuMDA4IC0wLjAwNDIsMC4wMjMxIDAsMC4wMzEyIDAuNDc3NTMsMC45MjIwNCAwLjk5OTYyLDEuNzc3OCAxLjUsMi41NjI1IDAuMDA0NiwwLjAwNyAtMC4wMDQ2LDAuMDI0MiAwLDAuMDMxMiAxLjAwNTIsMS41NzMxIDIuMDU2NiwyLjg2NDIgMy4xNTYyLDMuODQzOCAwLjI4MTQsMC4yNTE1NyAwLjU1NjAzLDAuNDc3IDAuODQzNzQsMC42ODc1IDAuODQ2ODYsMC42MTk2IDEuNzIyNiwxLjA2MzggMi42MjUsMS4zMTI1IGwgMTMuNjg3LDMuNzUgYyAwLDAgMS4zMzg4LDAuNDA5MjIgMy44MTI1LDEuMTI1IDMuNzExMSwxLjA3MjggOS45NywyLjg2NzUgMTguMDk0LDUgNS40MTU3LDEuNDIxNyAxMS42NjcsMy4wMDc4IDE4LjUzMSw0LjY1NjIgMy40MzE0LDAuODI0ODQgNy4wMDIyLDEuNjU1MSAxMC43MTksMi41IDAuMDEwMiwwLjAwMiAwLjAyMTEsLTAuMDAyIDAuMDMxMiwwIDUuNTY2MSwxLjI2NTIgMTEuNDM4LDIuNTM5NiAxNy41LDMuNzgxMiAyLjAyNCwwLjQxNDU4IDQuMDI3MywwLjgxMjg5IDYuMDkzNywxLjIxODggMC4wMTAxLDAuMDAyIDAuMDIxMiwtMC4wMDIgMC4wMzEyLDAgNC4xMjMyLDAuODA5NjUgOC4zMzk5LDEuNjE4NCAxMi41OTQsMi4zNzUgNC4yNjQsMC43NTg0MyA4LjU5MzUsMS40NzU1IDEyLjkzNywyLjE1NjIgNC4zNDM5LDAuNjgwNzMgOC42ODk4LDEuMzI3NyAxMy4wNjIsMS45MDYyIDAuMDEwMiwxMGUtNCAwLjAyMTEsLTEwZS00IDAuMDMxMiwwIDYuNTQ4NiwwLjg2NjExIDEzLjEyNSwxLjYxOTEgMTkuNTk0LDIuMTg3NSAyLjE1OTcsMC4xODk3NiA0LjI5OTQsMC4zNDk1MyA2LjQzNzQsMC41IDQuMjc2LDAuMzAwOTUgOC41MDUzLDAuNTMwNzkgMTIuNjU2LDAuNjU2MjUgNC4xNTA4LDAuMTI1NDYgOC40MDI4LDAuMTk0MDMgMTIuNzE5LDAuMjE4NzUgOC43ODU5LDAuMDUwMyAxNy44ODEsLTAuMTE3NTIgMjcuMjUsLTAuNDA2MjUgMTMuNjQyLC0wLjQyMDQzIDI3Ljg0NywtMS4xMzQ3IDQyLjM3NSwtMiAxOS42MDQsLTEuMTY3NiAzOS43OTgsLTIuNTkyMyA2MC4xMjQsLTMuODc1IDE1LjAyNCwtMC45NDU3OCAzMC4wOTgsLTEuODA3MyA0NS4wMzEsLTIuNDM3NSAwLjM5NjEyLC0wLjAxNjggMC43OTE1OCwtMC4wNDYxIDEuMTg3NSwtMC4wNjI1IDcuMzkzNCwtMC4zMDU4NyAxNC43NywtMC41NTE0NyAyMi4wNjIsLTAuNzE4NzUgNC45Nzg3LC0wLjExNDIgOS45MzE2LC0wLjE4NDQ3IDE0Ljg0NCwtMC4yMTg3NSAyLjQ1NiwtMC4wMTcyIDQuOTA3MywtMC4wMzY1IDcuMzQzNywtMC4wMzEyIGwgMTI0LjgxLDAuMjgxMjUgLTguNjU2MiwzNS45MzggMy41LDEuNSBjIDEuNzQ3NiwwLjYzMjU5IDQuOTYwMSwwLjkyODUxIDYuNDY4NywwLjkzNzUgMC44NDg2LDAuMDA1IDEuNzU1MSwtMC4wNzQxIDIuNjg3NSwtMC4yNSAwLjMxMDY5LC0wLjA1ODUgMC42MjM1MiwtMC4xNDEwNSAwLjkzNzQ5LC0wLjIxODc1IDAuMzA0NTksLTAuMDc1NiAwLjYzMjU4LC0wLjE1NjY4IDAuOTM3NDksLTAuMjUgMC42Mjg0NCwtMC4xOTMwNiAxLjI2MzUsLTAuNDIxNTYgMS44NzUsLTAuNjg3NSAxLjgyMTUsLTAuNzkzNTEgMy41MzQyLC0xLjkzMTQgNC43ODEyLC0zLjMxMjUgMC4wMSwtMC4wMTA3IDAuMDIxNywtMC4wMjA2IDAuMDMxMiwtMC4wMzEyIDAuNjI0OCwtMC42OTc5IDEuMTEyMywtMS40NTEyIDEuNDY4NywtMi4yODEyIGwgMTIuMTU2LC0zMS4zMTIgMTA5Ljk0LDAuMjUgYyAwLjc0NjksMC4zNzM5IDEuNDc2MSwwLjc0NTExIDIuMjE4NywxLjA5MzggMi45NzkyLDEuMzk5NSA1LjkxMSwyLjU5NyA4Ljg0MzYsMy42MjUgMS40NjIzLDAuNTEyNTkgMi45MTc4LDAuOTc1NDkgNC4zNzUsMS40MDYyIDUuMSwxLjUwNzUgMTAuMTg4LDIuNTUxNSAxNS4zNDQsMy4yNSAyLjk0NjIsMC4zOTkzMiA1LjkyNTksMC42OTM4OCA4LjkzNzQsMC45MDYyNSAxLjUwNTcsMC4xMDYxIDMuMDM0LDAuMTgwMTEgNC41NjI0LDAuMjUgMy4wNTcsMC4xMzk5NCA2LjEzODYsMC4yMTI4MyA5LjMxMjQsMC4yNSA2LjM0NzUsMC4wNzQxIDEyLjk3OSwwIDIwLDAgMTAuNDEsMCAyMC4zMjIsLTAuNTMxMjIgMjkuNzgxLC0xLjU2MjUgMy43ODM1LC0wLjQxMjUxIDcuNDkxMSwtMC44OTc0OSAxMS4xMjUsLTEuNDY4OCA3LjI2NzYsLTEuMTQyNSAxNC4yMjgsLTIuNjE4OSAyMC45MDYsLTQuMzc1IDEuNjY5NCwtMC40MzkwMyAzLjMzNTcsLTAuODk4NzQgNC45Njg3LC0xLjM3NSA0Ljg5OSwtMS40Mjg4IDkuNjEyOCwtMy4wMjU0IDE0LjE4NywtNC43ODEyIDEuNTI0OCwtMC41ODUyNyAzLjA0MiwtMS4xNjA1IDQuNTMxMiwtMS43ODEyIDIuOTc4MywtMS4yNDE0IDUuODgyLC0yLjU1NyA4LjcxODYsLTMuOTM3NSAxLjQxODMsLTAuNjkwMjcgMi44MzU1LC0xLjQwMDYgNC4yMTg3LC0yLjEyNSAyLjc2NjQsLTEuNDQ4OCA1LjQ2NjgsLTIuOTggOC4wOTM3LC00LjU2MjUgMS4zMTM1LC0wLjc5MTI1IDIuNTk2MSwtMS42MTM1IDMuODc1LC0yLjQzNzUgNi4zOTQzLC00LjEyMDEgMTIuMzYzLC04LjYyNTUgMTcuOTA2LC0xMy41MzEgNC40Mjg2LC0zLjkxOTUgOC42MDE1LC04LjA3OTggMTIuNSwtMTIuNDY5IDAuMDA1LC0wLjAwNiAtMC4wMDUsLTAuMDI1NCAwLC0wLjAzMTIgMC45NzA0NCwtMS4wOTI5IDEuOTM3LC0yLjE5MTYgMi44NzUsLTMuMzEyNSAwLjAwNSwtMC4wMDYgLTAuMDA1LC0wLjAyNTEgMCwtMC4wMzEyIDAuOTM3NzMsLTEuMTIwOSAxLjg3NTcsLTIuMjU3OCAyLjc4MTIsLTMuNDA2MiAwLjAwNSwtMC4wMDYgLTAuMDA1LC0wLjAyNDkgMCwtMC4wMzEyIDIuNzI1NiwtMy40NTgyIDUuMzEzMiwtNy4wMTg5IDcuNzQ5OSwtMTAuNzE5IDAuMDA1LC0wLjAwNyAtMC4wMDUsLTAuMDI0IDAsLTAuMDMxMiAwLjgwODgyLC0xLjIyODYgMS42Mjg5LC0yLjQ2NDQgMi40MDYyLC0zLjcxODggMC4wMDUsLTAuMDA4IC0wLjAwNSwtMC4wMjM4IDAsLTAuMDMxMiAyLjM0MDUsLTMuNzc4MSA0LjU2NjgsLTcuNjUyNSA2LjYyNDksLTExLjY1NiAwLjAwNCwtMC4wMDggLTAuMDA0LC0wLjAyMzEgMCwtMC4wMzEyIDAuNjgyOTksLTEuMzI5MiAxLjM0NzcsLTIuNjc4MSAyLC00LjAzMTIgMC4wMDQsLTAuMDA4IC0wLjAwNCwtMC4wMjI5IDAsLTAuMDMxMiAwLjY1MjA0LC0xLjM1MzMgMS4zMTYsLTIuNzE2OSAxLjkzNzUsLTQuMDkzOCAwLjAwNCwtMC4wMDkgLTAuMDA0LC0wLjAyMjcgMCwtMC4wMzEyIDEuMjQ2NCwtMi43NjI1IDIuNDM4LC01LjU1MTcgMy41NjI1LC04LjQwNjIgMC4wMDQsLTAuMDA5IC0wLjAwNCwtMC4wMjI0IDAsLTAuMDMxMiAwLjU2MDIzLC0xLjQyMjkgMS4wOTQ4LC0yLjg2NzQgMS42MjUsLTQuMzEyNSAwLjAwMywtMC4wMDkgLTAuMDAzLC0wLjAyMjIgMCwtMC4wMzEyIDAuNTMwMDIsLTEuNDQ1MiAxLjA2MjMsLTIuOTA4IDEuNTYyNSwtNC4zNzUgMC40OTk5OSwtMS40NjcxIDAuOTk4NDIsLTIuOTQ5IDEuNDY4NywtNC40Mzc1IDAuMDAzLC0wLjAwOSAtMC4wMDMsLTAuMDIyIDAsLTAuMDMxMiAwLjQ3MDEzLC0xLjQ4ODYgMC45MzQzNSwtMi45OTA1IDEuMzc1LC00LjUgMC4wMDMsLTAuMDEgLTAuMDAzLC0wLjAyMTcgMCwtMC4wMzEyIDAuNDQwNDUsLTEuNTA5NiAwLjg3MDA5LC0zLjAzMjQgMS4yODEyLC00LjU2MjUgMC4wMDMsLTAuMDEgLTAuMDAzLC0wLjAyMTcgMCwtMC4wMzEyIDEuMjM4MSwtNC42MTAxIDIuMzY4NCwtOS4zMDYgMy4zNDM3MiwtMTQuMDk0IHYgLTAuMDMxMiBjIDAuMzIzNiwtMS41ODk0IDAuNjExMiwtMy4yMDQ0IDAuOTA2MywtNC44MTI1IHYgLTAuMDMxMiBjIDIuMDc0NywtMTEuMzE4IDMuNDYyMSwtMjMuMDYyIDQuMTU2MiwtMzUuMjE5IDVlLTQsLTAuMDEwMyAtNmUtNCwtMC4wMjExIDAsLTAuMDMxMiAwLjA5OCwtMS43Mjc5IDAuMTc4NywtMy40NzU3IDAuMjUsLTUuMjE4OCA0ZS00LC0wLjAxMDMgLTRlLTQsLTAuMDIxMSAwLC0wLjAzMTIgMC4xNDI2LC0zLjQ5NjkgMC4yNDY3LC03LjAwNzIgMC4yODEyLC0xMC41NjIgMCwtMC4wMTAzIC0xMGUtNSwtMC4wMjExIDAsLTAuMDMxMiAwLjAxNywtMS43ODMgMC4wMSwtMy41NzggMCwtNS4zNzUgMCwtMC42MzU4IC0wLjAyMiwtMS4yNzE0IC0wLjAzMSwtMS45MDYyIDAuMDEsLTAuNjM0ODUgMC4wMzEsLTEuMjcwNCAwLjAzMSwtMS45MDYyIDAuMDEsLTEuNzk3IDAuMDE3LC0zLjU5MiAwLC01LjM3NSAtMTBlLTUsLTAuMDEwMiAwLC0wLjAyMDkgMCwtMC4wMzEyIC0wLjAzNCwtMy41NTUzIC0wLjEzODYsLTcuMDY1NiAtMC4yODEyLC0xMC41NjIgLTRlLTQsLTAuMDEwMiA0ZS00LC0wLjAyMDkgMCwtMC4wMzEyIC0wLjA3MSwtMS43NDMxIC0wLjE1MiwtMy40OTA4IC0wLjI1LC01LjIxODggLTZlLTQsLTAuMDEwMiA1ZS00LC0wLjAyMDkgMCwtMC4wMzEyIC0wLjY5NDEsLTEyLjE1NyAtMi4wODE1LC0yMy45IC00LjE1NjIsLTM1LjIxOSB2IC0wLjAzMTIgYyAtMC4yOTUxLC0xLjYwODEgLTAuNTgyNywtMy4yMjMxIC0wLjkwNjMsLTQuODEyNSB2IC0wLjAzMTIgYyAtMC45NzUzOSwtNC43ODc4IC0yLjEwNTYyLC05LjQ4MzYgLTMuMzQzNzIsLTE0LjA5NCAtMC4wMDMsLTAuMDEgMC4wMDMsLTAuMDIxMyAwLC0wLjAzMTIgLTAuNDExMTUsLTEuNTMwMSAtMC44NDA3OSwtMy4wNTI5IC0xLjI4MTIsLTQuNTYyNSAtMC4wMDMsLTAuMDEgMC4wMDMsLTAuMDIxMyAwLC0wLjAzMTIgLTAuNDQwNjMsLTEuNTA5NSAtMC45MDQ4NSwtMy4wMTE0IC0xLjM3NSwtNC41IC0wLjAwMywtMC4wMDkgMC4wMDMsLTAuMDIyMyAwLC0wLjAzMTIgLTAuNDcwMzIsLTEuNDg4NSAtMC45Njg3NSwtMi45NzA0IC0xLjQ2ODcsLTQuNDM3NSAtMC41MDAxNywtMS40NjcgLTEuMDMyNSwtMi45Mjk4IC0xLjU2MjUsLTQuMzc1IC0wLjAwMywtMC4wMDkgMC4wMDMsLTAuMDIyMyAwLC0wLjAzMTIgLTAuNTMwMjEsLTEuNDQ1MSAtMS4wNjQ4LC0yLjg4OTYgLTEuNjI1LC00LjMxMjUgLTAuMDA0LC0wLjAwOSAwLjAwNCwtMC4wMjIzIDAsLTAuMDMxMiAtMS4xMjQ0LC0yLjg1NDYgLTIuMzE2MSwtNS42NDM4IC0zLjU2MjUsLTguNDA2MiAtMC4wMDQsLTAuMDA4IDAuMDA0LC0wLjAyMjMgMCwtMC4wMzEyIC0wLjYyMTQ4LC0xLjM3NjggLTEuMjg1NCwtMi43NDA1IC0xLjkzNzUsLTQuMDkzOCAtMC4wMDQsLTAuMDA4IDAuMDA0LC0wLjAyMzMgMCwtMC4wMzEyIC0wLjY1MjI0LC0xLjM1MzIgLTEuMzE3LC0yLjcwMjEgLTIsLTQuMDMxMiAtMC4wMDQsLTAuMDA4IDAuMDA0LC0wLjAyMzMgMCwtMC4wMzEyIC0yLjA1ODIsLTQuMDAzOCAtNC4yODQ0LC03Ljg3ODIgLTYuNjI0OSwtMTEuNjU2IC0wLjAwNSwtMC4wMDcgMC4wMDUsLTAuMDIzMyAwLC0wLjAzMTIgLTAuNzc3MzMsLTEuMjU0MyAtMS41OTc0LC0yLjQ5MDIgLTIuNDA2MiwtMy43MTg4IC0wLjAwNSwtMC4wMDcgMC4wMDUsLTAuMDI0MiAwLC0wLjAzMTIgLTIuNDM2NywtMy42OTk5IC01LjAyNDMsLTcuMjYwNiAtNy43NDk5LC0xMC43MTkgLTAuMDA1LC0wLjAwNiAwLjAwNSwtMC4wMjUzIDAsLTAuMDMxMiAtMC45MDU0OSwtMS4xNDg1IC0xLjg0MzUsLTIuMjg1MyAtMi43ODEyLC0zLjQwNjIgLTAuMDA1LC0wLjAwNiAwLjAwNSwtMC4wMjUzIDAsLTAuMDMxMiAtMC45MzgwMSwtMS4xMjA5IC0xLjkwNDUsLTIuMjE5NiAtMi44NzUsLTMuMzEyNSAtMC4wMDUsLTAuMDA2IDAuMDA1LC0wLjAyNTMgMCwtMC4wMzEyIC0zLjg5ODMsLTQuMzg4OSAtOC4wNzEyLC04LjU0OTMgLTEyLjUsLTEyLjQ2OSAtNS41NDMsLTQuOTA1OCAtMTEuNTEyLC05LjQxMTIgLTE3LjkwNiwtMTMuNTMxIC0xLjI3ODksLTAuODI0MDIgLTIuNTYxNSwtMS42NDYyIC0zLjg3NSwtMi40Mzc1IC0yLjYyNjksLTEuNTgyNSAtNS4zMjczLC0zLjExMzcgLTguMDkzNywtNC41NjI1IC0xLjM4MzIsLTAuNzI0MzkgLTIuODAwNCwtMS40MzQ3IC00LjIxODcsLTIuMTI1IC0yLjgzNjcsLTEuMzgwNiAtNS43NDAzLC0yLjY5NjEgLTguNzE4NiwtMy45Mzc1IC0xLjQ4OTIsLTAuNjIwNzEgLTMuMDA2NCwtMS4xOTYgLTQuNTMxMiwtMS43ODEyIC00LjU3NDYsLTEuNzU1OCAtOS4yODgzLC0zLjM1MjUgLTE0LjE4NywtNC43ODEyIC0xLjYzMywtMC40NzYyNiAtMy4yOTkzLC0wLjkzNTk3IC00Ljk2ODcsLTEuMzc1IC02LjY3NzcsLTEuNzU2MSAtMTMuNjM4LC0zLjIzMjUgLTIwLjkwNiwtNC4zNzUgLTMuNjMzOCwtMC41NzEyNiAtNy4zNDE0LC0xLjA1NjIgLTExLjEyNSwtMS40Njg4IC05LjQ1ODYsLTEuMDMyNiAtMTkuMzcxLC0xLjU2MzggLTI5Ljc4MSwtMS41NjM4IC03LjAyMDQsMCAtMTMuNjUyLC0wLjA3NDEgLTIwLDAgLTMuMTczOCwwLjAzNzIgLTYuMjU1NCwwLjExMDA2IC05LjMxMjQsMC4yNSAtMS41Mjg1LDAuMDY5OSAtMy4wNTY4LDAuMTQzOSAtNC41NjI0LDAuMjUgLTMuMDExNSwwLjIxMjM3IC01Ljk5MTIsMC41MDY5MyAtOC45Mzc0LDAuOTA2MjUgLTUuMTU1NiwwLjY5ODQ5IC0xMC4yNDQsMS43NDI1IC0xNS4zNDQsMy4yNSAtMS40NTcyLDAuNDMwNzYgLTIuOTEyNywwLjg5MzY2IC00LjM3NSwxLjQwNjIgLTIuOTMyNywxLjAyOCAtNS44NjQ1LDIuMjI1NSAtOC44NDM2LDMuNjI1IC0wLjc0MjY3LDAuMzQ4NjQgLTEuNDcxOCwwLjcxOTg1IC0yLjIxODcsMS4wOTM4IGwgLTEwOS45NCwwLjI1IC0xMi4xNTYsLTMxLjMxMiBjIC0wLjM1NjQ0LC0wLjgzIC0wLjg0MzkzLC0xLjU4MzQgLTEuNDY4NywtMi4yODEyIC0wLjAxLC0wLjAxMDUgLTAuMDIxMywtMC4wMjA2IC0wLjAzMTIsLTAuMDMxMiAtMS4yNDcsLTEuMzgxMSAtMi45NTk3LC0yLjUxOSAtNC43ODEyLC0zLjMxMjUgLTAuNjExNDYsLTAuMjY1OTQgLTEuMjQ2NSwtMC40OTQ0NCAtMS44NzUsLTAuNjg3NSAtMC4zMDQ5MSwtMC4wOTMzIC0wLjYzMjksLTAuMTc0NCAtMC45Mzc0OSwtMC4yNSAtMC4zMTQwMiwtMC4wNzc3IC0wLjYyNjg1LC0wLjE2MDI1IC0wLjkzNzU0LC0wLjIxODc1IC0wLjkzMjQsLTAuMTc1OSAtMS44Mzg5LC0wLjI1NSAtMi42ODc1LC0wLjI1IHoiIGlkPSJwYXRoMzg1NSIgc3R5bGU9ImZpbGwtb3BhY2l0eTowLjk5NjA3OTk5O3N0cm9rZTojMTkxOTE5O3N0cm9rZS13aWR0aDoxNCIvPiYjeGE7ICAgICAgPHBhdGggZD0ibSA2MTAuNTIsNDkzLjY5IGMgLTEuNTA4NiwwLjAwOSAtNC43MjExLDAuMzA2MTEgLTYuNDY4NywwLjkzNzUgbCAtMy41LDEuNSA4LjY1NjIsMzUuODQ0IC0xMjQuODEsMC4yODEyNSBjIC03Ny45NjMsMC4xNjU0IC0xNjYuNTIsLTExLjUwNCAtMjMyLjkzLC05LjUgLTY2LjQxMiwyLjAwMzcgLTE1Mi4xMiwyOCAtMTUyLjEyLDI4IGwgLTEzLjY4NywzLjc4MTIgYyAtMTkuMjUxLDUuMjk2MyAtMjUuNzE4LDk3LjM2NyAtMjUuNzE4LDE2Ni43OCAwLDEuMTEzIDAuMDI2NjUsMi4yNTMxIDAuMDMxMjUsMy4zNzUgLTAuMDA0NiwxLjEyMTkgLTAuMDMxMjUsMi4yNjIgLTAuMDMxMjUsMy4zNzUgMCw2OS40MTQgNi40NjczLDE2MS40OCAyNS43MTgsMTY2Ljc4IGwgMTMuNjg3LDMuNzgxMiBjIDAsMCA4NS43MTEsMjUuOTk2IDE1Mi4xMiwyOCA2Ni40MTIsMi4wMDM3IDE1NC45NywtOS42NjU0IDIzMi45MywtOS41IGwgMTI0LjgxLDAuMjgxMjUgLTguNjU2MiwzNS44NDQgMy41LDEuNSBjIDEuNzQ3NiwwLjYzMTM5IDQuOTYsMC45Mjg1NCA2LjQ2ODcsMC45Mzc1IDAuODQ4NTksMC4wMDUgMS43NTUxLC0wLjA3NDQgMi42ODc1LC0wLjI1IDAuMzEwNywtMC4wNTg0IDAuNjIzNTIsLTAuMTQxMTkgMC45Mzc0OSwtMC4yMTg3NSAwLjMwNDU5LC0wLjA3NTQgMC42MzI1OSwtMC4xNTY4NiAwLjkzNzQ5LC0wLjI1IDAuNjI4NDQsLTAuMTkyNjkgMS4yNjM1LC0wLjQyMjA2IDEuODc1LC0wLjY4NzUgMS44MjE1LC0wLjc5MjAxIDMuNTM0MiwtMS45MDI4IDQuNzgxMiwtMy4yODEyIDAuMDEsLTAuMDEwNyAwLjAyMTcsLTAuMDIwOCAwLjAzMTIsLTAuMDMxMiAwLjYyNDgsLTAuNjk2NTggMS4xMTIzLC0xLjQ1MjggMS40Njg3LC0yLjI4MTIgbCAxMi4xNTYsLTMxLjI1IDEwOS45NCwwLjI1IGMgMjMuOSwxMS45NDIgNDUuNTExLDEwLjcxOSA3My41OTMsMTAuNzE5IDEzMy4yNSwwIDE4Ny42MzAwMiwtODYuNTg2IDE4Ny4wMDAwMiwtMjAxLjM4IDAsLTAuNzgwMiAtMC4wMTksLTEuNTY1NiAtMC4wMzEsLTIuMzQzOCAwLjAxMiwtMC43NzgxMSAwLjAzMSwtMS41NjM2IDAuMDMxLC0yLjM0MzggMC42MjgyLC0xMTQuNzkgLTUzLjc0OTAyLC0yMDEuMzggLTE4Ny4wMDAwMiwtMjAxLjM4IC0yOC4wODIsMCAtNDkuNjkzLC0xLjIyMzYgLTczLjU5MywxMC43MTkgbCAtMTA5Ljk0LDAuMjUgLTEyLjE1NiwtMzEuMjUgYyAtMC4zNTY0NSwtMC44Mjg0NCAtMC44NDM5MywtMS41ODQ3IC0xLjQ2ODcsLTIuMjgxMiAtMC4wMSwtMC4wMTA0IC0wLjAyMTMsLTAuMDIwNiAtMC4wMzEyLC0wLjAzMTIgLTEuMjQ3LC0xLjM3ODUgLTIuOTU5NywtMi40ODkyIC00Ljc4MTIsLTMuMjgxMiAtMC42MTE0OCwtMC4yNjU0NCAtMS4yNDY1LC0wLjQ5NDgxIC0xLjg3NSwtMC42ODc1IC0wLjMwNDksLTAuMDkzMSAtMC42MzI5LC0wLjE3NDYgLTAuOTM3NDksLTAuMjUgLTAuMzEzOTcsLTAuMDc3NiAtMC42MjY3OSwtMC4xNjAzNSAtMC45Mzc0OSwtMC4yMTg3NSAtMC45MzIzOSwtMC4xNzU2IC0xLjgzODksLTAuMjU1IC0yLjY4NzUsLTAuMjUgeiIgaWQ9InBhdGgyODUzIiBzdHlsZT0iZmlsbDojMzI3OGZmO2ZpbGwtb3BhY2l0eTowLjk5NjA3OTk5Ii8+JiN4YTsgICAgICA8cGF0aCBkPSJtIDQwMC4zNCw4NTUuMjQgYyAtMzMuMzY0LDAgLTY1LjMwNywxLjggLTk0LjgxMSw1LjA2MjUgMjUuNjYsNDguNzE0IDk3Ljk4NSwzMC4yNjUgMjA1LjU2LDMxLjUzMSA0OS42ODYsMC41ODQ3MSA4OS41NDMsMS44NzkzIDEyMS41MywyLjM3NSAtNDcuMTYsLTIzLjMzNCAtMTMzLjUzLC0zOC45NjkgLTIzMi4yOCwtMzguOTY5IHoiIGlkPSJwYXRoMzY0MyIgc3R5bGU9Im9wYWNpdHk6MC45O2ZpbGw6IzI2MjYyNjtmaWxsLW9wYWNpdHk6MC45OTYwNzk5OSIvPiYjeGE7ICAgICAgPHBhdGggZD0ibSA0MDAuMzQsODU1LjI0IGMgLTMuMjA2NCwwIC02LjM4MzEsMC4wMjk1IC05LjU2MjQsMC4wNjI1IDAuODE4MjUsMTYuMTcxIDYuNDI4MSwzMC4yNTcgMTQuNTk0LDM4Ljg0NCA0LjY3MTQsLTAuMDc1NiA5LjQ5NTEsLTAuMTk2NTUgMTQuNDM3LC0wLjM0Mzc1IC04LjU2NTcsLTguMTkyMyAtMTQuNTkzLC0yMi4yMjggLTE1LjcxOSwtMzguNTYyIC0xLjI1MTIsLTAuMDA1IC0yLjQ5NDcsMCAtMy43NSwwIHoiIGlkPSJwYXRoMzY1OCIgc3R5bGU9Im9wYWNpdHk6MC41O2ZpbGwtb3BhY2l0eTowLjk5NjA3OTk5Ii8+JiN4YTsgICAgICA8cGF0aCBkPSJtIDk4OS4wMiw4MjcuNSAtNS4wOTM3LDAuNTkzNzUgYyAtMjEuNTQ1LDIuNTEyNyAtMzcuNjg4LDI1Ljk3OSAtMzkuMjgxLDU0LjUzMSBsIC0wLjM3NDk5LDcuMTI1IDUuMjQ5OSwtNC44NDM4IGMgMTUuODg5LC0xNC42OCAyOC4zMDMsLTMyLjUwNyAzNy40MDYsLTUyLjc1IGwgMi4wOSwtNC42NSB6IiBpZD0icGF0aDM3MDciIHN0eWxlPSJ0ZXh0LWluZGVudDowO3RleHQtdHJhbnNmb3JtOm5vbmU7YmxvY2stcHJvZ3Jlc3Npb246dGI7Y29sb3I6IzAwMDAwMDtmaWxsOiMyMTIxMjE7c3Ryb2tlOiMxOTE5MTk7c3Ryb2tlLXdpZHRoOjUiLz4mI3hhOyAgICAgIDxwYXRoIGQ9Im0gNzgzLjQ3LDgzOC41IGMgMCwwIDc5LjY3NywtMjIuNTk2IDEwNS4zOCwtMzEuOTgyIDI2LjgzOSwtOS44MDE4IDk4Ljg1OSwtMzkuMTQ2IDk4Ljg1OSwtMzkuMTQ2IDAsMCAtOC43NDA5LDQyLjQ3IC0zMC40ODMsNTcuOTE4IC03Ny4yMyw1NC44NyAtMjMyLjY5LDUzLjg1IC0yMzIuNjksNTMuODUiIGlkPSJwYXRoMzcxNSIgc3R5bGU9Im9wYWNpdHk6MC41O2ZpbGw6bm9uZTtzdHJva2U6IzI5MjkyOTtzdHJva2Utd2lkdGg6NjtzdHJva2UtbGluZWNhcDpyb3VuZDtzdHJva2UtbGluZWpvaW46cm91bmQiLz4mI3hhOyAgICAgIDxwYXRoIGQ9Im0gODY5Ljk3LDgxNy44NCAtNC40Mzc0LDIuMzQzOCBjIDAuOTg5MTIsMS4xNTY4IDEuNzk1NSwyLjQyODYgMi4zNzUsMy44NDM4IDQuNzk3OSwxMS43MTcgLTEwLjczNiwyOS4yMzYgLTI2Ljg3NSwzNS43ODEgLTAuNTE2NzUsMC4yMDk1OCAtMS44MTI5LDAuODQwNjYgLTMuNDA2MiwxLjY1NjIgbCAxMy42MjUsLTMuODc1IGMgMTcuMzA2LC04LjQ1NzYgMjcuNDcsLTIzLjA4MiAyMywtMzQgLTAuOTE2MTUsLTIuMjM3MyAtMi4zNzUyLC00LjE2NjEgLTQuMjgxMiwtNS43NSB6IiBpZD0icGF0aDM3NTciIHN0eWxlPSJmaWxsOnVybCgjbGluZWFyR3JhZGllbnQ0MTQ5KSIvPiYjeGE7ICAgICAgPHBhdGggZD0ibSA4NzguNTUsODEzLjM4IC00LjQzNzUsMi4zNDM4IGMgMC45ODkxMywxLjE1NjggMS43OTU1LDIuNDI4NiAyLjM3NSwzLjg0MzggNC43OTc5LDExLjcxNyAtMTAuNzM2LDI5LjIzNiAtMjYuODc1LDM1Ljc4MSAtMC41MTY3NiwwLjIwOTU4IC0xLjgxMjksMC44NDA2NiAtMy40MDYyLDEuNjU2MiBsIDEzLjYyNSwtMy44NzUgYyAxNy4zMDYsLTguNDU3NiAyNy40NywtMjMuMDgyIDIzLC0zNCAtMC45MTYxNSwtMi4yMzczIC0yLjM3NTIsLTQuMTY2MSAtNC4yODEyLC01Ljc1IHoiIGlkPSJwYXRoMzc4NyIgc3R5bGU9ImZpbGw6dXJsKCNsaW5lYXJHcmFkaWVudDQyMDMpIi8+JiN4YTsgICAgICA8cGF0aCBkPSJtIDg4NC43NCw4MTEuOTYgLTQuNDM3NCwyLjM0MzggYyAwLjk4OTEzLDEuMTU2OCAxLjc5NTUsMi40Mjg2IDIuMzc1LDMuODQzOCA0Ljc5NzksMTEuNzE3IC0xMC43MzYsMjkuMjM2IC0yNi44NzUsMzUuNzgxIC0wLjUxNjc1LDAuMjA5NTggLTEuODEyOSwwLjg0MDY2IC0zLjQwNjIsMS42NTYyIGwgMTMuNjI1LC0zLjg3NSBjIDE3LjMwNiwtOC40NTc2IDI3LjQ3LC0yMy4wODIgMjMsLTM0IC0wLjkxNjE1LC0yLjIzNzMgLTIuMzc1MiwtNC4xNjYxIC00LjI4MTIsLTUuNzUgeiIgaWQ9InBhdGgzNzUyIiBzdHlsZT0iZmlsbDp1cmwoI2xpbmVhckdyYWRpZW50NDE1NSkiLz4mI3hhOyAgICAgIDxwYXRoIGQ9Im0gOTAxLjY1LDgwNy42OSAtNi4xODc0LDEuODQzOCBjIDAuOTYwMTUsMS43MTI4IDEuNjU0NSwzLjUzMjMgMi4wMzEyLDUuNDY4OCAzLjExOTQsMTYuMDM0IC0yMC45NjIsMzQuMjg0IC00My4wMzEsMzguNSAtMy4zOTUsMC42NDg2NCAtMjguODg0LDguNTc2IC0zMi4xNTgsOC44MDQ0IHYgNC4xMjUgbCA0MS40MzksLTEyLjE0OCBjIDI2LjI4NSwtNS40OTYzIDQ0Ljk0OSwtMjIuNDQ4IDQxLjg3NSwtMzguMjUgLTAuNTk1NjQsLTMuMDYxNiAtMS45NTYsLTUuODU5NSAtMy45Njg3LC04LjM0MzggeiIgaWQ9InBhdGgzNzM1IiBzdHlsZT0iZmlsbDp1cmwoI2xpbmVhckdyYWRpZW50NDIwNSkiLz4mI3hhOyAgICAgIDxwYXRoIGQ9Im0gOTAxLjY1LDgwNy42OSAtNi4xODc0LDEuODQzOCBjIDAuOTYwMTUsMS43MTI4IDEuNjU0NSwzLjUzMjMgMi4wMzEyLDUuNDY4OCAzLjExOTQsMTYuMDM0IC0yMC45NjIsMzQuMjg0IC00My4wMzEsMzguNSAtMy4zOTUsMC42NDg2NCAtMjguODg0LDguNTc2IC0zMi4xNTgsOC44MDQ0IHYgNC4xMjUgbCA0MS40MzksLTEyLjE0OCBjIDI2LjI4NSwtNS40OTYzIDQ0Ljk0OSwtMjIuNDQ4IDQxLjg3NSwtMzguMjUgLTAuNTk1NjQsLTMuMDYxNiAtMS45NTYsLTUuODU5NSAtMy45Njg3LC04LjM0MzggeiIgaWQ9InBhdGgzNzgzIiBzdHlsZT0iZmlsbDp1cmwoI2xpbmVhckdyYWRpZW50NDIwNykiLz4mI3hhOyAgICAgIDxwYXRoIGQ9Im0gODU3LjEyLDgyMi40NiAtMy45NjQxLDIuMDkzNyBjIDAuODgzNjEsMS4wMzM0IDEuNjA0LDIuMTY5NiAyLjEyMTYsMy40MzM3IDQuMjg2MSwxMC40NjcgLTkuNTkwNiwyNi4xMTcgLTI0LjAwOCwzMS45NjQgLTAuNDYxNjMsMC4xODcyMyAtMS42MTk1LDAuNzUwOTggLTMuMDQyOCwxLjQ3OTYgbCAxMi4xNzEsLTMuNDYxNiBjIDE1LjQ2LC03LjU1NTQgMjQuNTQsLTIwLjYyIDIwLjU0NiwtMzAuMzczIC0wLjgxODQyLC0xLjk5ODcgLTIuMTIxOCwtMy43MjE2IC0zLjgyNDUsLTUuMTM2NiB6IiBpZD0icGF0aDM3OTkiIHN0eWxlPSJmaWxsOnVybCgjbGluZWFyR3JhZGllbnQ0MjA5KSIvPiYjeGE7ICAgICAgPHBhdGggZD0ibSA4NDMuMzIsODI2LjAzIC0zLjk2NDEsMi4wOTM3IGMgMC44ODM2MSwxLjAzMzQgMS42MDQsMi4xNjk2IDIuMTIxNiwzLjQzMzcgNC4yODYxLDEwLjQ2NyAtOS41OTA2LDI2LjExNyAtMjQuMDA4LDMxLjk2NCAtMC40NjE2MiwwLjE4NzIzIC0xLjYxOTUsMC43NTA5OCAtMy4wNDI4LDEuNDc5NiBsIDEyLjE3MSwtMy40NjE2IGMgMTUuNDYsLTcuNTU1NCAyNC41NCwtMjAuNjIgMjAuNTQ2LC0zMC4zNzMgLTAuODE4NDIsLTEuOTk4NyAtMi4xMjE4LC0zLjcyMTYgLTMuODI0NSwtNS4xMzY2IHoiIGlkPSJwYXRoMzgwMyIgc3R5bGU9ImZpbGw6dXJsKCNsaW5lYXJHcmFkaWVudDQxNTMpIi8+JiN4YTsgICAgICA8cGF0aCBkPSJtIDIzMy4yNyw4NDUuNzIgYyA4LjI5MywtMi4wMjM0IDE1LjQ4NiwtMS40Nzg4IDE5Ljc5Nyw1Ljc4NzIgbCAtMi40OTM0LDE3Ljg5NyBjIC02Ljg3NTEsNi4xNzMyIC0xMy43NSw0Ljk1MDkgLTIwLjYyNSwwLjE1NTQzIGwgMy4zMjEyLC0yMy44MzkgeiIgaWQ9InJlY3QzODYxIiBzdHlsZT0iZmlsbDp1cmwoI2xpbmVhckdyYWRpZW50NDIxMSkiLz4mI3hhOyAgICAgIDxwYXRoIGQ9Im0gMjUzLjU0LDg0OC45OSBjIDguMTUwMiwtMS4yMTAyIDE1LjE2NywtMC41NzI4IDE4Ljg0Myw1LjUwODEgbCAtMi4zNzMxLDE3LjAzNCBjIC02LjQ4MzksMi45NzQ4IC0xMi45ODMsNS4yMDk2IC0xOS42MzEsMC4xNDc5MyBsIDMuMTYxMSwtMjIuNjkgeiIgaWQ9InBhdGgzODY0IiBzdHlsZT0iZmlsbDp1cmwoI2xpbmVhckdyYWRpZW50NDIxMykiLz4mI3hhOyAgICAgIDxwYXRoIGQ9Im0gNDAwLjM0LDg1Mi43NSBjIC0zMy40NTQsMCAtNjUuNDkyLDEuNzg5NCAtOTUuMDkzLDUuMDYyNSBsIC0zLjY1NjIsMC40MDYyNSAxLjcxODcsMy4yNSBjIDYuNjcxMSwxMi42NjQgMTYuNTYyLDIxLjExMyAyOS4wNjIsMjYuNDM4IDEyLjUwMSw1LjMyNDEgMjcuNTcyLDcuNjEyNiA0NS4wOTMsOC40Mzc1IDM1LjA0MiwxLjY0OTggNzkuOTU0LC0yLjYzMTIgMTMzLjU5LC0yIDQ5LjY1OSwwLjU4NDM4IDg5LjUwOCwxLjg3ODcgMTIxLjUzLDIuMzc1IGwgMS4xMjUsLTQuNzUgYyAtNDcuODQsLTIzLjY4IC0xMzQuMzQsLTM5LjIyIC0yMzMuMzYsLTM5LjIyIHogbSAwLDUgYyA5MS4xNjksMCAxNzEuNzUsMTMuNDc5IDIyMC4wOSwzMy43MTkgLTI5Ljk1MiwtMC41ODI0MSAtNjUuMjEyLC0xLjYwNiAtMTA5LjMxLC0yLjEyNSAtNTMuOTM3LC0wLjYzNDczIC05OC45NzYsMy42NTIyIC0xMzMuNCwyLjAzMTIgLTE3LjIxNCwtMC44MTA0NiAtMzEuNzY3LC0zLjEwNTQgLTQzLjQwNiwtOC4wNjI1IC0xMC40NTMsLTQuNDUyMSAtMTguNDg1LC0xMS4xNTQgLTI0LjUsLTIwLjkwNiAyOC4zMDcsLTIuOTgzMSA1OC43MzUsLTQuNjU2MiA5MC41MywtNC42NTYyIHoiIGlkPSJwYXRoNDAyNSIgc3R5bGU9InRleHQtaW5kZW50OjA7dGV4dC10cmFuc2Zvcm06bm9uZTtibG9jay1wcm9ncmVzc2lvbjp0YjtvcGFjaXR5OjAuOTtjb2xvcjojMDAwMDAwO2ZpbGw6IzE5MTkxOSIvPiYjeGE7ICAgICAgPHBhdGggZD0ibSAyNjAuNSw2MDcuMzggLTc3Ljc0OSwxMi40NjkgYyAtMjcuMTUsNC4zNTQyIC00OC45NDcsNDguNzczIC01MC45OTksMTA0Ljg0IDIuMDUyMyw1Ni4wNzEgMjMuODQ5LDEwMC40OSA1MC45OTksMTA0Ljg0IGwgNzcuNzQ5LDEyLjQ2OSBjIDEzLjI5NiwwIDI0LC0xMC43MDQgMjQsLTI0IHYgLTE4Ni42MiBjIDAsLTEzLjI5NiAtMTAuNzA0LC0yNCAtMjQsLTI0IHoiIGlkPSJyZWN0Mjg2NCIgc3R5bGU9Im9wYWNpdHk6MC45O2ZpbGw6IzI2MjYyNjtmaWxsLW9wYWNpdHk6MC45OTYwNzk5OTtzdHJva2U6IzE5MTkxOTtzdHJva2Utd2lkdGg6NSIvPiYjeGE7ICAgICAgPHBhdGggZD0ibSA2OTEuOTYsNTczLjE2IGMgLTIuOTY5MiwwIC01Ljg5MzMsMC4zMzIxNSAtOC43ODEyLDAuOTY4NzUgLTAuMDEwNCwtMC4wMSAtMC4wMjA4LC0wLjAyMSAtMC4wMzEyLC0wLjAzMTIgbCAtNjMuODQzLDEyLjMxMiBjIC0xNy43MjgsNi42MDQ3IC0zMiwxNC4yNzIgLTMyLDMyIHYgMjEyLjU2IGMgMCwxNy43MjggMTQuMjcyLDI1LjM5NSAzMiwzMiBsIDYzLjg0MywxMi4zMTIgYyAwLjAxMDUsLTAuMDEwMiAwLjAyMDgsLTAuMDIxMSAwLjAzMTIsLTAuMDMxMiAyLjg4NzksMC42MzY2IDUuODEyLDAuOTY4NzUgOC43ODEyLDAuOTY4NzUgNDUuMzk1LDAgODIuMTk4LC01Ny4zNjMgODIuMzEyLC0xNTEuNTMgLTAuMTE0MDgsLTk0LjE2OSAtMzYuOTE2LC0xNTEuNTMgLTgyLjMxMiwtMTUxLjUzIHoiIGlkPSJwYXRoMzcwMyIgc3R5bGU9Im9wYWNpdHk6MC45O2ZpbGw6IzI2MjYyNjtmaWxsLW9wYWNpdHk6MC45OTYwNzk5OTtzdHJva2U6IzE5MTkxOTtzdHJva2Utd2lkdGg6NSIvPiYjeGE7ICAgICAgPHBhdGggZD0ibSA0MDAuMzQsNTk0LjE1IGMgLTMzLjM2NCwwIC02NS4zMDcsLTEuOCAtOTQuODExLC01LjA2MjUgMjUuNjYsLTQ4LjcxNCA5Ny45ODUsLTMwLjI2NSAyMDUuNTYsLTMxLjUzMSA0OS42ODYsLTAuNTg0NzEgODkuNTQzLC0xLjg3OTMgMTIxLjUzLC0yLjM3NSAtNDcuMTYsMjMuMzM0IC0xMzMuNTMsMzguOTY5IC0yMzIuMjgsMzguOTY5IHoiIGlkPSJwYXRoNDE1NyIgc3R5bGU9Im9wYWNpdHk6MC45O2ZpbGw6IzI2MjYyNjtmaWxsLW9wYWNpdHk6MC45OTYwNzk5OSIvPiYjeGE7ICAgICAgPHBhdGggZD0ibSA0MDAuMzQsNTk0LjE1IGMgLTMuMjA2NCwwIC02LjM4MzEsLTAuMDI5NSAtOS41NjI0LC0wLjA2MjUgMC44MTgyNSwtMTYuMTcxIDYuNDI4MSwtMzAuMjU3IDE0LjU5NCwtMzguODQ0IDQuNjcxNCwwLjA3NTYgOS40OTUxLDAuMTk2NTUgMTQuNDM3LDAuMzQzNzUgLTguNTY1Nyw4LjE5MjMgLTE0LjU5MywyMi4yMjggLTE1LjcxOSwzOC41NjIgLTEuMjUxMiwwLjAwNSAtMi40OTQ3LDAgLTMuNzUsMCB6IiBpZD0icGF0aDQxNTkiIHN0eWxlPSJvcGFjaXR5OjAuNTtmaWxsLW9wYWNpdHk6MC45OTYwNzk5OSIvPiYjeGE7ICAgICAgPHBhdGggZD0ibSA5ODkuMDIsNjIxLjg5IC01LjA5MzcsLTAuNTkzNzUgYyAtMjEuNTQ1LC0yLjUxMjcgLTM3LjY4OCwtMjUuOTc5IC0zOS4yODEsLTU0LjUzMSBsIC0wLjM3NDk5LC03LjEyNSA1LjI0OTksNC44NDM4IGMgMTUuODg5LDE0LjY4IDI4LjMwMywzMi41MDcgMzcuNDA2LDUyLjc1IGwgMi4wOTM3LDQuNjU2MiB6IiBpZD0icGF0aDQxNjEiIHN0eWxlPSJ0ZXh0LWluZGVudDowO3RleHQtdHJhbnNmb3JtOm5vbmU7YmxvY2stcHJvZ3Jlc3Npb246dGI7Y29sb3I6IzAwMDAwMDtmaWxsOiMyMTIxMjE7c3Ryb2tlOiMxOTE5MTk7c3Ryb2tlLXdpZHRoOjUiLz4mI3hhOyAgICAgIDxwYXRoIGQ9Im0gNzgzLjQ3LDYxMC44OSBjIDAsMCA3OS42NzcsMjIuNTk2IDEwNS4zOCwzMS45ODIgMjYuODM5LDkuODAxOCA5OC44NTksMzkuMTQ2IDk4Ljg1OSwzOS4xNDYgMCwwIC04Ljc0MDksLTQyLjQ3IC0zMC40ODMsLTU3LjkxOCAtNzcuMjMsLTU0Ljg3IC0yMzIuNjksLTUzLjg2IC0yMzIuNjksLTUzLjg2IiBpZD0icGF0aDQxNjMiIHN0eWxlPSJvcGFjaXR5OjAuNTtmaWxsOm5vbmU7c3Ryb2tlOiMyOTI5Mjk7c3Ryb2tlLXdpZHRoOjY7c3Ryb2tlLWxpbmVjYXA6cm91bmQ7c3Ryb2tlLWxpbmVqb2luOnJvdW5kIi8+JiN4YTsgICAgICA8cGF0aCBkPSJtIDg2OS45Nyw2MzEuNTUgLTQuNDM3NCwtMi4zNDM4IGMgMC45ODkxMiwtMS4xNTY4IDEuNzk1NSwtMi40Mjg2IDIuMzc1LC0zLjg0MzggNC43OTc5LC0xMS43MTcgLTEwLjczNiwtMjkuMjM2IC0yNi44NzUsLTM1Ljc4MSAtMC41MTY3NSwtMC4yMDk1OCAtMS44MTI5LC0wLjg0MDY2IC0zLjQwNjIsLTEuNjU2MiBsIDEzLjYyNSwzLjg3NSBjIDE3LjMwNiw4LjQ1NzYgMjcuNDcsMjMuMDgyIDIzLDM0IC0wLjkxNjE1LDIuMjM3MyAtMi4zNzUyLDQuMTY2MSAtNC4yODEyLDUuNzUgeiIgaWQ9InBhdGg0MTY1IiBzdHlsZT0iZmlsbDp1cmwoI2xpbmVhckdyYWRpZW50NDE4NSkiLz4mI3hhOyAgICAgIDxwYXRoIGQ9Im0gODc4LjU1LDYzNi4wMSAtNC40Mzc1LC0yLjM0MzggYyAwLjk4OTEzLC0xLjE1NjggMS43OTU1LC0yLjQyODYgMi4zNzUsLTMuODQzOCA0Ljc5NzksLTExLjcxNyAtMTAuNzM2LC0yOS4yMzYgLTI2Ljg3NSwtMzUuNzgxIC0wLjUxNjc2LC0wLjIwOTU4IC0xLjgxMjksLTAuODQwNjYgLTMuNDA2MiwtMS42NTYyIGwgMTMuNjI1LDMuODc1IGMgMTcuMzA2LDguNDU3NiAyNy40NywyMy4wODIgMjMsMzQgLTAuOTE2MTUsMi4yMzczIC0yLjM3NTIsNC4xNjYxIC00LjI4MTIsNS43NSB6IiBpZD0icGF0aDQxNjciIHN0eWxlPSJmaWxsOnVybCgjbGluZWFyR3JhZGllbnQ0MTg3KSIvPiYjeGE7ICAgICAgPHBhdGggZD0ibSA4ODQuNzQsNjM3LjQyIC00LjQzNzQsLTIuMzQzOCBjIDAuOTg5MTMsLTEuMTU2OCAxLjc5NTUsLTIuNDI4NiAyLjM3NSwtMy44NDM4IDQuNzk3OSwtMTEuNzE3IC0xMC43MzYsLTI5LjIzNiAtMjYuODc1LC0zNS43ODEgLTAuNTE2NzUsLTAuMjA5NTggLTEuODEyOSwtMC44NDA2NiAtMy40MDYyLC0xLjY1NjIgbCAxMy42MjUsMy44NzUgYyAxNy4zMDYsOC40NTc2IDI3LjQ3LDIzLjA4MiAyMywzNCAtMC45MTYxNSwyLjIzNzMgLTIuMzc1Miw0LjE2NjEgLTQuMjgxMiw1Ljc1IHoiIGlkPSJwYXRoNDE2OSIgc3R5bGU9ImZpbGw6dXJsKCNsaW5lYXJHcmFkaWVudDQxODkpIi8+JiN4YTsgICAgICA8cGF0aCBkPSJtIDkwMS42NSw2NDEuNyAtNi4xODc0LC0xLjg0MzggYyAwLjk2MDE1LC0xLjcxMjggMS42NTQ1LC0zLjUzMjMgMi4wMzEyLC01LjQ2ODggMy4xMTk0LC0xNi4wMzQgLTIwLjk2MiwtMzQuMjg0IC00My4wMzEsLTM4LjUgLTMuMzk1LC0wLjY0ODY0IC0yOC44ODQsLTguNTc2IC0zMi4xNTgsLTguODA0NCB2IC00LjEyNSBsIDQxLjQzOSwxMi4xNDggYyAyNi4yODUsNS40OTYzIDQ0Ljk0OSwyMi40NDggNDEuODc1LDM4LjI1IC0wLjU5NTY0LDMuMDYxNiAtMS45NTYsNS44NTk1IC0zLjk2ODcsOC4zNDM4IHoiIGlkPSJwYXRoNDE3MSIgc3R5bGU9ImZpbGw6dXJsKCNsaW5lYXJHcmFkaWVudDQxOTEpIi8+JiN4YTsgICAgICA8cGF0aCBkPSJtIDkwMS42NSw2NDEuNyAtNi4xODc0LC0xLjg0MzggYyAwLjk2MDE1LC0xLjcxMjggMS42NTQ1LC0zLjUzMjMgMi4wMzEyLC01LjQ2ODggMy4xMTk0LC0xNi4wMzQgLTIwLjk2MiwtMzQuMjg0IC00My4wMzEsLTM4LjUgLTMuMzk1LC0wLjY0ODY0IC0yOC44ODQsLTguNTc2IC0zMi4xNTgsLTguODA0NCB2IC00LjEyNSBsIDQxLjQzOSwxMi4xNDggYyAyNi4yODUsNS40OTYzIDQ0Ljk0OSwyMi40NDggNDEuODc1LDM4LjI1IC0wLjU5NTY0LDMuMDYxNiAtMS45NTYsNS44NTk1IC0zLjk2ODcsOC4zNDM4IHoiIGlkPSJwYXRoNDE3MyIgc3R5bGU9ImZpbGw6dXJsKCNsaW5lYXJHcmFkaWVudDQxOTMpIi8+JiN4YTsgICAgICA8cGF0aCBkPSJtIDg1Ny4xMiw2MjYuOTMgLTMuOTY0MSwtMi4wOTM3IGMgMC44ODM2MSwtMS4wMzM0IDEuNjA0LC0yLjE2OTYgMi4xMjE2LC0zLjQzMzcgNC4yODYxLC0xMC40NjcgLTkuNTkwNiwtMjYuMTE3IC0yNC4wMDgsLTMxLjk2NCAtMC40NjE2MywtMC4xODcyMyAtMS42MTk1LC0wLjc1MDk4IC0zLjA0MjgsLTEuNDc5NiBsIDEyLjE3MSwzLjQ2MTYgYyAxNS40Niw3LjU1NTQgMjQuNTQsMjAuNjIgMjAuNTQ2LDMwLjM3MyAtMC44MTg0MiwxLjk5ODcgLTIuMTIxOCwzLjcyMTYgLTMuODI0NSw1LjEzNjYgeiIgaWQ9InBhdGg0MTc1IiBzdHlsZT0iZmlsbDp1cmwoI2xpbmVhckdyYWRpZW50NDE5NSkiLz4mI3hhOyAgICAgIDxwYXRoIGQ9Im0gODQzLjMyLDYyMy4zNiAtMy45NjQxLC0yLjA5MzcgYyAwLjg4MzYxLC0xLjAzMzQgMS42MDQsLTIuMTY5NiAyLjEyMTYsLTMuNDMzNyA0LjI4NjEsLTEwLjQ2NyAtOS41OTA2LC0yNi4xMTcgLTI0LjAwOCwtMzEuOTY0IC0wLjQ2MTYyLC0wLjE4NzIzIC0xLjYxOTUsLTAuNzUwOTggLTMuMDQyOCwtMS40Nzk2IGwgMTIuMTcxLDMuNDYxNiBjIDE1LjQ2LDcuNTU1NCAyNC41NCwyMC42MiAyMC41NDYsMzAuMzczIC0wLjgxODQyLDEuOTk4NyAtMi4xMjE4LDMuNzIxNiAtMy44MjQ1LDUuMTM2NiB6IiBpZD0icGF0aDQxNzciIHN0eWxlPSJmaWxsOnVybCgjbGluZWFyR3JhZGllbnQ0MTk3KSIvPiYjeGE7ICAgICAgPHBhdGggZD0ibSAyMzMuMjcsNjAzLjY2IGMgOC4yOTMsMi4wMjM0IDE1LjQ4NiwxLjQ3ODggMTkuNzk3LC01Ljc4NzIgbCAtMi40OTM0LC0xNy44OTcgYyAtNi44NzUxLC02LjE3MzIgLTEzLjc1LC00Ljk1MDkgLTIwLjYyNSwtMC4xNTU0MyBsIDMuMzIxMiwyMy44MzkgeiIgaWQ9InBhdGg0MTc5IiBzdHlsZT0iZmlsbDp1cmwoI2xpbmVhckdyYWRpZW50NDE5OSkiLz4mI3hhOyAgICAgIDxwYXRoIGQ9Im0gMjUzLjU0LDYwMC40IGMgOC4xNTAyLDEuMjEwMiAxNS4xNjcsMC41NzI4IDE4Ljg0MywtNS41MDgxIGwgLTIuMzczMSwtMTcuMDM0IGMgLTYuNDgzOSwtMi45NzQ4IC0xMi45ODMsLTUuMjA5NiAtMTkuNjMxLC0wLjE0NzkzIGwgMy4xNjExLDIyLjY5IHoiIGlkPSJwYXRoNDE4MSIgc3R5bGU9ImZpbGw6dXJsKCNsaW5lYXJHcmFkaWVudDQyMDEpIi8+JiN4YTsgICAgICA8cGF0aCBkPSJtIDQwMC4zNCw1OTYuNjQgYyAtMzMuNDU0LDAgLTY1LjQ5MiwtMS43ODk0IC05NS4wOTMsLTUuMDYyNSBsIC0zLjY1NjIsLTAuNDA2MjUgMS43MTg3LC0zLjI1IGMgNi42NzExLC0xMi42NjQgMTYuNTYyLC0yMS4xMTMgMjkuMDYyLC0yNi40MzggMTIuNTAxLC01LjMyNDEgMjcuNTcyLC03LjYxMjYgNDUuMDkzLC04LjQzNzUgMzUuMDQyLC0xLjY0OTggNzkuOTU0LDIuNjMxMiAxMzMuNTksMiA0OS42NTksLTAuNTg0MzggODkuNTA4LC0xLjg3ODcgMTIxLjUzLC0yLjM3NSBsIDEuMTI1LDQuNzUgYyAtNDcuODQ5LDIzLjY3NSAtMTM0LjM2LDM5LjIxOSAtMjMzLjM3LDM5LjIxOSB6IG0gMCwtNSBjIDkxLjE2OSwwIDE3MS43NSwtMTMuNDc5IDIyMC4wOSwtMzMuNzE5IC0yOS45NTIsMC41ODI0MSAtNjUuMjEyLDEuNjA2IC0xMDkuMzEsMi4xMjUgLTUzLjkzNywwLjYzNDczIC05OC45NzYsLTMuNjUyMiAtMTMzLjQsLTIuMDMxMiAtMTcuMjE0LDAuODEwNDYgLTMxLjc2NywzLjEwNTQgLTQzLjQwNiw4LjA2MjUgLTEwLjQ1Myw0LjQ1MjEgLTE4LjQ4NSwxMS4xNTQgLTI0LjUsMjAuOTA2IDI4LjMwNywyLjk4MzEgNTguNzM1LDQuNjU2MiA5MC41Myw0LjY1NjIgeiIgaWQ9InBhdGg0MTgzIiBzdHlsZT0idGV4dC1pbmRlbnQ6MDt0ZXh0LXRyYW5zZm9ybTpub25lO2Jsb2NrLXByb2dyZXNzaW9uOnRiO29wYWNpdHk6MC45O2NvbG9yOiMwMDAwMDA7ZmlsbDojMTkxOTE5Ii8+JiN4YTsgICAgPC9nPiYjeGE7ICA8L2c+JiN4YTsgIDxtZXRhZGF0YSBpZD0ibWV0YWRhdGE2MCI+JiN4YTsgICAgPHJkZjpSREY+JiN4YTsgICAgICA8Y2M6V29yaz4mI3hhOyAgICAgICAgPGRjOmZvcm1hdD5pbWFnZS9zdmcreG1sPC9kYzpmb3JtYXQ+JiN4YTsgICAgICAgIDxkYzp0eXBlIHJkZjpyZXNvdXJjZT0iaHR0cDovL3B1cmwub3JnL2RjL2RjbWl0eXBlL1N0aWxsSW1hZ2UiLz4mI3hhOyAgICAgICAgPGNjOmxpY2Vuc2UgcmRmOnJlc291cmNlPSJodHRwOi8vY3JlYXRpdmVjb21tb25zLm9yZy9saWNlbnNlcy9wdWJsaWNkb21haW4vIi8+JiN4YTsgICAgICAgIDxkYzpwdWJsaXNoZXI+JiN4YTsgICAgICAgICAgPGNjOkFnZW50IHJkZjphYm91dD0iaHR0cDovL29wZW5jbGlwYXJ0Lm9yZy8iPiYjeGE7ICAgICAgICAgICAgPGRjOnRpdGxlPk9wZW5jbGlwYXJ0PC9kYzp0aXRsZT4mI3hhOyAgICAgICAgICA8L2NjOkFnZW50PiYjeGE7ICAgICAgICA8L2RjOnB1Ymxpc2hlcj4mI3hhOyAgICAgICAgPGRjOnRpdGxlPlJlZCBDYXIgLSBUb3AgVmlldzwvZGM6dGl0bGU+JiN4YTsgICAgICAgIDxkYzpkYXRlPjIwMTAtMDUtMTlUMTU6MDI6MTI8L2RjOmRhdGU+JiN4YTsgICAgICAgIDxkYzpkZXNjcmlwdGlvbj5JIHdhcyB0aGlua2luZyBvZiBUcm9waHkgKCBodHRwOi8vdHJvcGh5LnNvdXJjZWZvcmdlLm5ldC9pbmRleC5waHA/Ym9keT1zY3JlZW5zaG90cyApIHdoZW4gcmVtaXhpbmcgdGhpcyBvbmUgOik8L2RjOmRlc2NyaXB0aW9uPiYjeGE7ICAgICAgICA8ZGM6c291cmNlPmh0dHA6Ly9vcGVuY2xpcGFydC5vcmcvZGV0YWlsLzYxMjAxL3JlZC1yYWNpbmctY2FyLXRvcC12aWV3LWJ5LXF1Ym9kdXA8L2RjOnNvdXJjZT4mI3hhOyAgICAgICAgPGRjOmNyZWF0b3I+JiN4YTsgICAgICAgICAgPGNjOkFnZW50PiYjeGE7ICAgICAgICAgICAgPGRjOnRpdGxlPnF1Ym9kdXA8L2RjOnRpdGxlPiYjeGE7ICAgICAgICAgIDwvY2M6QWdlbnQ+JiN4YTsgICAgICAgIDwvZGM6Y3JlYXRvcj4mI3hhOyAgICAgICAgPGRjOnN1YmplY3Q+JiN4YTsgICAgICAgICAgPHJkZjpCYWc+JiN4YTsgICAgICAgICAgICA8cmRmOmxpPmNhcjwvcmRmOmxpPiYjeGE7ICAgICAgICAgICAgPHJkZjpsaT5jbGlwIGFydDwvcmRmOmxpPiYjeGE7ICAgICAgICAgICAgPHJkZjpsaT5jbGlwYXJ0PC9yZGY6bGk+JiN4YTsgICAgICAgICAgICA8cmRmOmxpPmdhbWU8L3JkZjpsaT4mI3hhOyAgICAgICAgICAgIDxyZGY6bGk+Z2FtZSBzcHJpdGU8L3JkZjpsaT4mI3hhOyAgICAgICAgICAgIDxyZGY6bGk+cmFjaW5nPC9yZGY6bGk+JiN4YTsgICAgICAgICAgICA8cmRmOmxpPnJhY2luZyBjYXI8L3JkZjpsaT4mI3hhOyAgICAgICAgICAgIDxyZGY6bGk+cmVkPC9yZGY6bGk+JiN4YTsgICAgICAgICAgICA8cmRmOmxpPnJlZCBjYXI8L3JkZjpsaT4mI3hhOyAgICAgICAgICAgIDxyZGY6bGk+c2ltcGxlPC9yZGY6bGk+JiN4YTsgICAgICAgICAgICA8cmRmOmxpPnNpbXBsZSBjYXI8L3JkZjpsaT4mI3hhOyAgICAgICAgICAgIDxyZGY6bGk+c3ByaXRlPC9yZGY6bGk+JiN4YTsgICAgICAgICAgICA8cmRmOmxpPnRyYW5zcG9ydDwvcmRmOmxpPiYjeGE7ICAgICAgICAgICAgPHJkZjpsaT50cmFuc3BvcnRhdGlvbjwvcmRmOmxpPiYjeGE7ICAgICAgICAgICAgPHJkZjpsaT50cmF2ZWw8L3JkZjpsaT4mI3hhOyAgICAgICAgICAgIDxyZGY6bGk+dmlkZW8gZ2FtZTwvcmRmOmxpPiYjeGE7ICAgICAgICAgICAgPHJkZjpsaT52aWRlbyBnYW1lIGFydDwvcmRmOmxpPiYjeGE7ICAgICAgICAgICAgPHJkZjpsaT52aWRlbyBnYW1lIHNwcml0ZTwvcmRmOmxpPiYjeGE7ICAgICAgICAgIDwvcmRmOkJhZz4mI3hhOyAgICAgICAgPC9kYzpzdWJqZWN0PiYjeGE7ICAgICAgPC9jYzpXb3JrPiYjeGE7ICAgICAgPGNjOkxpY2Vuc2UgcmRmOmFib3V0PSJodHRwOi8vY3JlYXRpdmVjb21tb25zLm9yZy9saWNlbnNlcy9wdWJsaWNkb21haW4vIj4mI3hhOyAgICAgICAgPGNjOnBlcm1pdHMgcmRmOnJlc291cmNlPSJodHRwOi8vY3JlYXRpdmVjb21tb25zLm9yZy9ucyNSZXByb2R1Y3Rpb24iLz4mI3hhOyAgICAgICAgPGNjOnBlcm1pdHMgcmRmOnJlc291cmNlPSJodHRwOi8vY3JlYXRpdmVjb21tb25zLm9yZy9ucyNEaXN0cmlidXRpb24iLz4mI3hhOyAgICAgICAgPGNjOnBlcm1pdHMgcmRmOnJlc291cmNlPSJodHRwOi8vY3JlYXRpdmVjb21tb25zLm9yZy9ucyNEZXJpdmF0aXZlV29ya3MiLz4mI3hhOyAgICAgIDwvY2M6TGljZW5zZT4mI3hhOyAgICA8L3JkZjpSREY+JiN4YTsgIDwvbWV0YWRhdGE+JiN4YTs8L3N2Zz4=;" vertex="1" parent="1">
                    <mxGeometry x="672.5" y="587" width="79" height="39" as="geometry"/>
                </mxCell>
                <mxCell id="144" value="" style="rounded=0;whiteSpace=wrap;html=1;fillColor=#999999;strokeColor=#FFFFFF;fontColor=#ffffff;direction=south;" vertex="1" parent="1">
                    <mxGeometry x="61" y="510" width="480" height="170" as="geometry"/>
                </mxCell>
                <mxCell id="146" value="" style="endArrow=none;dashed=1;html=1;exitX=0.75;exitY=0;exitDx=0;exitDy=0;entryX=0.75;entryY=1;entryDx=0;entryDy=0;strokeColor=#FFFFFF;strokeWidth=4;" edge="1" parent="1" source="144" target="144">
                    <mxGeometry width="50" height="50" relative="1" as="geometry">
                        <mxPoint x="231" y="330" as="sourcePoint"/>
                        <mxPoint x="211" y="460" as="targetPoint"/>
                        <Array as="points"/>
                    </mxGeometry>
                </mxCell>
                <mxCell id="147" value="" style="endArrow=none;html=1;strokeColor=#020203;strokeWidth=2;entryX=0;entryY=0;entryDx=0;entryDy=0;" edge="1" parent="1" source="148" target="153">
                    <mxGeometry width="50" height="50" relative="1" as="geometry">
                        <mxPoint x="362" y="511" as="sourcePoint"/>
                        <mxPoint x="362" y="605" as="targetPoint"/>
                    </mxGeometry>
                </mxCell>
                <mxCell id="148" value="merge end point" style="text;html=1;resizable=0;points=[];autosize=1;align=left;verticalAlign=top;spacingTop=-4;fontColor=#050505;fontSize=14;" vertex="1" parent="1">
                    <mxGeometry x="281" y="480" width="120" height="20" as="geometry"/>
                </mxCell>
                <mxCell id="149" value="merge start point" style="text;html=1;resizable=0;points=[];autosize=1;align=left;verticalAlign=top;spacingTop=-4;fontColor=#050505;fontSize=14;" vertex="1" parent="1">
                    <mxGeometry x="151" y="480" width="120" height="20" as="geometry"/>
                </mxCell>
                <mxCell id="150" value="" style="shape=image;verticalLabelPosition=bottom;labelBackgroundColor=#ffffff;verticalAlign=top;aspect=fixed;imageAspect=0;image=data:image/svg+xml,PHN2ZyB4bWxuczpkYz0iaHR0cDovL3B1cmwub3JnL2RjL2VsZW1lbnRzLzEuMS8iIHhtbG5zOmNjPSJodHRwOi8vY3JlYXRpdmVjb21tb25zLm9yZy9ucyMiIHhtbG5zOnJkZj0iaHR0cDovL3d3dy53My5vcmcvMTk5OS8wMi8yMi1yZGYtc3ludGF4LW5zIyIgeG1sbnM6c3ZnPSJodHRwOi8vd3d3LnczLm9yZy8yMDAwL3N2ZyIgeG1sbnM9Imh0dHA6Ly93d3cudzMub3JnLzIwMDAvc3ZnIiB4bWxuczp4bGluaz0iaHR0cDovL3d3dy53My5vcmcvMTk5OS94bGluayIgdmVyc2lvbj0iMS4xIiB3aWR0aD0iMTAwJSIgaGVpZ2h0PSIxMDAlIiB2aWV3Qm94PSIwIDAgOTYwIDQ3NiIgaWQ9InN2ZzIiPiYjeGE7ICA8dGl0bGUgaWQ9InRpdGxlMzk2OCI+UmVkIENhciAtIFRvcCBWaWV3PC90aXRsZT4mI3hhOyAgPGRlZnMgaWQ9ImRlZnM0Ij4mI3hhOyAgICA8bGluZWFyR3JhZGllbnQgaWQ9ImxpbmVhckdyYWRpZW50Mzc1OSI+JiN4YTsgICAgICA8c3RvcCBpZD0ic3RvcDM3NjEiIHN0eWxlPSJzdG9wLWNvbG9yOiMxYTFhMWE7c3RvcC1vcGFjaXR5OjEiIG9mZnNldD0iMCIvPiYjeGE7ICAgICAgPHN0b3AgaWQ9InN0b3AzNzYzIiBzdHlsZT0ic3RvcC1jb2xvcjojMDAwMDAwO3N0b3Atb3BhY2l0eTowIiBvZmZzZXQ9IjEiLz4mI3hhOyAgICA8L2xpbmVhckdyYWRpZW50PiYjeGE7ICAgIDxsaW5lYXJHcmFkaWVudCB4MT0iODcxLjMzMDAyIiB5MT0iODQyLjI5OTk5IiB4Mj0iODQ4LjE1OTk3IiB5Mj0iODM0LjY3OTk5IiBpZD0ibGluZWFyR3JhZGllbnQ0MTQ5IiB4bGluazpocmVmPSIjbGluZWFyR3JhZGllbnQzNzU5IiBncmFkaWVudFVuaXRzPSJ1c2VyU3BhY2VPblVzZSIgZ3JhZGllbnRUcmFuc2Zvcm09InRyYW5zbGF0ZSg4LjMwODUsLTIuNjUxOCkiLz4mI3hhOyAgICA8bGluZWFyR3JhZGllbnQgeDE9Ijg3OS45MDAwMiIgeTE9IjUzNy41IiB4Mj0iODEyLjE0MDAxIiB5Mj0iNTMzLjUiIGlkPSJsaW5lYXJHcmFkaWVudDQxNTMiIHhsaW5rOmhyZWY9IiNsaW5lYXJHcmFkaWVudDM3NTkiIGdyYWRpZW50VW5pdHM9InVzZXJTcGFjZU9uVXNlIiBncmFkaWVudFRyYW5zZm9ybT0ibWF0cml4KDAuODkzMzIsMCwwLDAuODkzMzIsODAuMzQ5LDM2NS4xNSkiLz4mI3hhOyAgICA8bGluZWFyR3JhZGllbnQgeDE9Ijg3OS45MDAwMiIgeTE9IjUzNy41IiB4Mj0iODE1LjgyMDAxIiB5Mj0iNTMxLjkwOTk3IiBpZD0ibGluZWFyR3JhZGllbnQ0MTU1IiB4bGluazpocmVmPSIjbGluZWFyR3JhZGllbnQzNzU5IiBncmFkaWVudFVuaXRzPSJ1c2VyU3BhY2VPblVzZSIgZ3JhZGllbnRUcmFuc2Zvcm09InRyYW5zbGF0ZSgyNy42MjUsMjk2LjQ5KSIvPiYjeGE7ICAgIDxsaW5lYXJHcmFkaWVudCB4MT0iODcxLjMzMDAyIiB5MT0iODQyLjI5OTk5IiB4Mj0iODQ4LjE1OTk3IiB5Mj0iODM0LjY3OTk5IiBpZD0ibGluZWFyR3JhZGllbnQ0MTg1IiB4bGluazpocmVmPSIjbGluZWFyR3JhZGllbnQzNzU5IiBncmFkaWVudFVuaXRzPSJ1c2VyU3BhY2VPblVzZSIgZ3JhZGllbnRUcmFuc2Zvcm09Im1hdHJpeCgxLDAsMCwtMSw4LjMwODUsMTQ1MikiLz4mI3hhOyAgICA8bGluZWFyR3JhZGllbnQgeDE9Ijg4Ny45MDAwMiIgeTE9IjUyOC4zNTk5OSIgeDI9Ijg3Ni4xNDAwMSIgeTI9IjUyOC40MTk5OCIgaWQ9ImxpbmVhckdyYWRpZW50NDE4NyIgeGxpbms6aHJlZj0iI2xpbmVhckdyYWRpZW50Mzc1OSIgZ3JhZGllbnRVbml0cz0idXNlclNwYWNlT25Vc2UiIGdyYWRpZW50VHJhbnNmb3JtPSJtYXRyaXgoMSwwLDAsLTEsMjEuNDM4LDExNTEuNSkiLz4mI3hhOyAgICA8bGluZWFyR3JhZGllbnQgeDE9Ijg3OS45MDAwMiIgeTE9IjUzNy41IiB4Mj0iODE1LjgyMDAxIiB5Mj0iNTMxLjkwOTk3IiBpZD0ibGluZWFyR3JhZGllbnQ0MTg5IiB4bGluazpocmVmPSIjbGluZWFyR3JhZGllbnQzNzU5IiBncmFkaWVudFVuaXRzPSJ1c2VyU3BhY2VPblVzZSIgZ3JhZGllbnRUcmFuc2Zvcm09Im1hdHJpeCgxLDAsMCwtMSwyNy42MjUsMTE1Mi45KSIvPiYjeGE7ICAgIDxsaW5lYXJHcmFkaWVudCB4MT0iODk3LjIxOTk3IiB5MT0iNTQyLjQwMDAyIiB4Mj0iODgzLjc2MDAxIiB5Mj0iNTM1LjM3IiBpZD0ibGluZWFyR3JhZGllbnQ0MTkxIiB4bGluazpocmVmPSIjbGluZWFyR3JhZGllbnQzNzU5IiBncmFkaWVudFVuaXRzPSJ1c2VyU3BhY2VPblVzZSIgZ3JhZGllbnRUcmFuc2Zvcm09Im1hdHJpeCgxLDAsMCwtMSwyMS40MzgsMTE1MS41KSIvPiYjeGE7ICAgIDxsaW5lYXJHcmFkaWVudCB4MT0iODgwLjcxMDAyIiB5MT0iNTUyLjA0OTk5IiB4Mj0iODM1Ljk4OTk5IiB5Mj0iNTAxLjA3OTk5IiBpZD0ibGluZWFyR3JhZGllbnQ0MTkzIiB4bGluazpocmVmPSIjbGluZWFyR3JhZGllbnQzNzU5IiBncmFkaWVudFVuaXRzPSJ1c2VyU3BhY2VPblVzZSIgZ3JhZGllbnRUcmFuc2Zvcm09Im1hdHJpeCgxLDAsMCwtMSwyMS40MzgsMTE1MS41KSIvPiYjeGE7ICAgIDxsaW5lYXJHcmFkaWVudCB4MT0iODg3LjkwMDAyIiB5MT0iNTI4LjM1OTk5IiB4Mj0iODA1LjI4OTk4IiB5Mj0iNTI5LjYwOTk5IiBpZD0ibGluZWFyR3JhZGllbnQ0MTk1IiB4bGluazpocmVmPSIjbGluZWFyR3JhZGllbnQzNzU5IiBncmFkaWVudFVuaXRzPSJ1c2VyU3BhY2VPblVzZSIgZ3JhZGllbnRUcmFuc2Zvcm09Im1hdHJpeCgwLjg5MzMyLDAsMCwtMC44OTMzMiw5NC4xNTYsMTA4Ny44KSIvPiYjeGE7ICAgIDxsaW5lYXJHcmFkaWVudCB4MT0iODc5LjkwMDAyIiB5MT0iNTM3LjUiIHgyPSI4MTIuMTQwMDEiIHkyPSI1MzMuNSIgaWQ9ImxpbmVhckdyYWRpZW50NDE5NyIgeGxpbms6aHJlZj0iI2xpbmVhckdyYWRpZW50Mzc1OSIgZ3JhZGllbnRVbml0cz0idXNlclNwYWNlT25Vc2UiIGdyYWRpZW50VHJhbnNmb3JtPSJtYXRyaXgoMC44OTMzMiwwLDAsLTAuODkzMzIsODAuMzQ5LDEwODQuMikiLz4mI3hhOyAgICA8bGluZWFyR3JhZGllbnQgeDE9IjIyOS43IiB5MT0iODczLjE0MDAxIiB4Mj0iMjA1LjU5IiB5Mj0iODY3LjY3OTk5IiBpZD0ibGluZWFyR3JhZGllbnQ0MTk5IiB4bGluazpocmVmPSIjbGluZWFyR3JhZGllbnQzNzU5IiBncmFkaWVudFVuaXRzPSJ1c2VyU3BhY2VPblVzZSIgZ3JhZGllbnRUcmFuc2Zvcm09Im1hdHJpeCgwLjk5MDQzLC0wLjEzNzk5LC0wLjEzNzk5LC0wLjk5MDQzLDE0Ni4wNSwxNDgzLjMpIi8+JiN4YTsgICAgPGxpbmVhckdyYWRpZW50IHgxPSIyMzguODMiIHkxPSI4NzMuMDYiIHgyPSIyMTYuNTYiIHkyPSI4NzIuNjUwMDIiIGlkPSJsaW5lYXJHcmFkaWVudDQyMDEiIHhsaW5rOmhyZWY9IiNsaW5lYXJHcmFkaWVudDM3NTkiIGdyYWRpZW50VW5pdHM9InVzZXJTcGFjZU9uVXNlIiBncmFkaWVudFRyYW5zZm9ybT0ibWF0cml4KDAuOTkwNDMsLTAuMTM3OTksLTAuMTM3OTksLTAuOTkwNDMsMTU2LjMxLDE0ODIpIi8+JiN4YTsgICAgPGxpbmVhckdyYWRpZW50IHgxPSI4ODcuOTAwMDIiIHkxPSI1MjguMzU5OTkiIHgyPSI4NzYuMTQwMDEiIHkyPSI1MjguNDE5OTgiIGlkPSJsaW5lYXJHcmFkaWVudDQyMDMiIHhsaW5rOmhyZWY9IiNsaW5lYXJHcmFkaWVudDM3NTkiIGdyYWRpZW50VW5pdHM9InVzZXJTcGFjZU9uVXNlIiBncmFkaWVudFRyYW5zZm9ybT0idHJhbnNsYXRlKDIxLjQzOCwyOTcuOTEpIi8+JiN4YTsgICAgPGxpbmVhckdyYWRpZW50IHgxPSI4OTcuMjE5OTciIHkxPSI1NDIuNDAwMDIiIHgyPSI4ODMuNzYwMDEiIHkyPSI1MzUuMzciIGlkPSJsaW5lYXJHcmFkaWVudDQyMDUiIHhsaW5rOmhyZWY9IiNsaW5lYXJHcmFkaWVudDM3NTkiIGdyYWRpZW50VW5pdHM9InVzZXJTcGFjZU9uVXNlIiBncmFkaWVudFRyYW5zZm9ybT0idHJhbnNsYXRlKDIxLjQzOCwyOTcuOTEpIi8+JiN4YTsgICAgPGxpbmVhckdyYWRpZW50IHgxPSI4ODAuNzEwMDIiIHkxPSI1NTIuMDQ5OTkiIHgyPSI4MzUuOTg5OTkiIHkyPSI1MDEuMDc5OTkiIGlkPSJsaW5lYXJHcmFkaWVudDQyMDciIHhsaW5rOmhyZWY9IiNsaW5lYXJHcmFkaWVudDM3NTkiIGdyYWRpZW50VW5pdHM9InVzZXJTcGFjZU9uVXNlIiBncmFkaWVudFRyYW5zZm9ybT0idHJhbnNsYXRlKDIxLjQzOCwyOTcuOTEpIi8+JiN4YTsgICAgPGxpbmVhckdyYWRpZW50IHgxPSI4ODcuOTAwMDIiIHkxPSI1MjguMzU5OTkiIHgyPSI4MDUuMjg5OTgiIHkyPSI1MjkuNjA5OTkiIGlkPSJsaW5lYXJHcmFkaWVudDQyMDkiIHhsaW5rOmhyZWY9IiNsaW5lYXJHcmFkaWVudDM3NTkiIGdyYWRpZW50VW5pdHM9InVzZXJTcGFjZU9uVXNlIiBncmFkaWVudFRyYW5zZm9ybT0ibWF0cml4KDAuODkzMzIsMCwwLDAuODkzMzIsOTQuMTU2LDM2MS41NykiLz4mI3hhOyAgICA8bGluZWFyR3JhZGllbnQgeDE9IjIyOS43IiB5MT0iODczLjE0MDAxIiB4Mj0iMjA1LjU5IiB5Mj0iODY3LjY3OTk5IiBpZD0ibGluZWFyR3JhZGllbnQ0MjExIiB4bGluazpocmVmPSIjbGluZWFyR3JhZGllbnQzNzU5IiBncmFkaWVudFVuaXRzPSJ1c2VyU3BhY2VPblVzZSIgZ3JhZGllbnRUcmFuc2Zvcm09Im1hdHJpeCgwLjk5MDQzLDAuMTM3OTksLTAuMTM3OTksMC45OTA0MywxNDYuMDUsLTMzLjg4NSkiLz4mI3hhOyAgICA8bGluZWFyR3JhZGllbnQgeDE9IjIzOC44MyIgeTE9Ijg3My4wNiIgeDI9IjIxNi41NiIgeTI9Ijg3Mi42NTAwMiIgaWQ9ImxpbmVhckdyYWRpZW50NDIxMyIgeGxpbms6aHJlZj0iI2xpbmVhckdyYWRpZW50Mzc1OSIgZ3JhZGllbnRVbml0cz0idXNlclNwYWNlT25Vc2UiIGdyYWRpZW50VHJhbnNmb3JtPSJtYXRyaXgoMC45OTA0MywwLjEzNzk5LC0wLjEzNzk5LDAuOTkwNDMsMTU2LjMxLC0zMi42MDMpIi8+JiN4YTsgIDwvZGVmcz4mI3hhOyAgPGcgdHJhbnNmb3JtPSJ0cmFuc2xhdGUoLTUyLjkzNywtNDg2LjY5KSIgaWQ9ImxheWVyMSI+JiN4YTsgICAgPGcgaWQ9ImczODkwIj4mI3hhOyAgICAgIDxwYXRoIGQ9Im0gNjEwLjUyLDQ5My42OSBjIC0xLjUwODYsMC4wMDkgLTQuNzIxMSwwLjMwNDkxIC02LjQ2ODcsMC45Mzc1IGwgLTMuNSwxLjUgOC42NTYyLDM1LjkzOCAtMTI0LjgxLDAuMjgxMjUgYyAtMi40MzYzLDAuMDA1IC00Ljg4NzYsLTAuMDE0IC03LjM0MzcsLTAuMDMxMiAtNC45MTIsLTAuMDM0MyAtOS44NjQ5LC0wLjEwNDU1IC0xNC44NDQsLTAuMjE4NzUgLTcuMjkyNiwtMC4xNjcyOCAtMTQuNjY5LC0wLjQxMjg4IC0yMi4wNjIsLTAuNzE4NzUgLTAuMzk1OTEsLTAuMDE2NCAtMC43OTEzNywtMC4wNDU3IC0xLjE4NzUsLTAuMDYyNSAtMTQuOTMyLC0wLjYzMDE4IC0zMC4wMDcsLTEuNDkxNyAtNDUuMDMxLC0yLjQzNzUgLTIwLjMyNiwtMS4yODI3IC00MC41MiwtMi43MDc0IC02MC4xMjQsLTMuODc1IC0xNC41MjgsLTAuODY1MyAtMjguNzMyLC0xLjU3OTYgLTQyLjM3NSwtMiAtOS4zNjkyLC0wLjI4ODczIC0xOC40NjQsLTAuNDU2NTUgLTI3LjI1LC0wLjQwNjI1IC00LjMxNTgsMC4wMjQ3IC04LjU2NzgsMC4wOTMzIC0xMi43MTksMC4yMTg3NSAtNC4xNTA4LDAuMTI1NDYgLTguMzgwMSwwLjM1NTMgLTEyLjY1NiwwLjY1NjI1IC0yLjEzOCwwLjE1MDQ3IC00LjI3NzgsMC4zMTAyNCAtNi40Mzc0LDAuNSAtNi40Njg5LDAuNTY4NCAtMTMuMDQ1LDEuMzIxNCAtMTkuNTk0LDIuMTg3NSAtMC4wMTAxLDEwZS00IC0wLjAyMTEsLTEwZS00IC0wLjAzMTIsMCAtNC4zNzI1LDAuNTc4NTggLTguNzE4NSwxLjIyNTUgLTEzLjA2MiwxLjkwNjIgLTQuMzQzOSwwLjY4MDczIC04LjY3MzQsMS4zOTc4IC0xMi45MzcsMi4xNTYyIC00LjI1MzcsMC43NTY2MiAtOC40NzA0LDEuNTY1NCAtMTIuNTk0LDIuMzc1IC0wLjAxLDAuMDAyIC0wLjAyMTIsLTAuMDAyIC0wLjAzMTIsMCAtMi4wNjY0LDAuNDA1ODYgLTQuMDY5NywwLjgwNDE3IC02LjA5MzcsMS4yMTg4IC02LjA2MTQsMS4yNDE2IC0xMS45MzQsMi41MTYgLTE3LjUsMy43ODEyIC0wLjAxMDEsMC4wMDIgLTAuMDIxMSwtMC4wMDIgLTAuMDMxMiwwIC0zLjcxNjUsMC44NDQ5IC03LjI4NzIsMS42NzUyIC0xMC43MTksMi41IC02Ljg2MzgsMS42NDg0IC0xMy4xMTUsMy4yMzQ2IC0xOC41MzEsNC42NTYyIC04LjEyMzYsMi4xMzI1IC0xNC4zODIsMy45MjcyIC0xOC4wOTQsNSAtMi40NzM2LDAuNzE1NzggLTMuODEyNSwxLjEyNSAtMy44MTI1LDEuMTI1IGwgLTEzLjY4NywzLjc1IGMgLTAuOTAyNCwwLjI0ODczIC0xLjc3ODEsMC42OTI5IC0yLjYyNSwxLjMxMjUgLTAuMjg3NzEsMC4yMTA1IC0wLjU2MjM0LDAuNDM1OTMgLTAuODQzNzQsMC42ODc1IC0xLjA5OTYsMC45Nzk2IC0yLjE1MSwyLjI3MDcgLTMuMTU2MiwzLjg0MzggLTAuMDA0NiwwLjAwNyAwLjAwNDYsMC4wMjQzIDAsMC4wMzEyIC0wLjUwMDM2LDAuNzg0NzMgLTEuMDIyNSwxLjY0MDUgLTEuNSwyLjU2MjUgLTAuMDA0MiwwLjAwOCAwLjAwNDIsMC4wMjMyIDAsMC4wMzEyIC0wLjQ3NzU3LDAuOTIzNyAtMC45NTExNCwxLjkxNDIgLTEuNDA2MiwyLjk2ODggLTAuMDAzNywwLjAwOSAwLjAwMzcsMC4wMjIyIDAsMC4wMzEyIC0zLjY2Nyw4LjUwOTUgLTYuNjIsMjEuMTMxIC04LjkzNzQsMzYuMjE5IC0wLjAwMTUsMC4wMSAwLjAwMTUsMC4wMjEyIDAsMC4wMzEyIC0wLjAzNTk1LDAuMjM0MTYgLTAuMDU4MSwwLjQ4MzQyIC0wLjA5Mzc1LDAuNzE4NzUgLTAuNTA0NjIsMy4zMzE1IC0wLjk5MjA0LDYuNzk4MiAtMS40Mzc1LDEwLjM0NCAtMC4wMzA0OCwwLjI0MjY1IC0wLjA2MzU1LDAuNDc1MTkgLTAuMDkzNzUsMC43MTg3NSAtMC41MDE1Nyw0LjA0MzIgLTAuOTQ2NzIsOC4yMDI1IC0xLjM3NSwxMi40NjkgLTAuMDAxLDAuMDEgOS45OWUtNCwwLjAyMTEgMCwwLjAzMTIgLTAuMjEzNTQsMi4xMjg0IC0wLjQyOTEyLDQuMjk0OCAtMC42MjQ5OSw2LjQ2ODggLTkuMjFlLTQsMC4wMSA5LjIxZS00LDAuMDIwOSAwLDAuMDMxMiAtMC4xOTU4MSwyLjE3NDMgLTAuMzgzOTcsNC4zNDkyIC0wLjU2MjQ5LDYuNTYyNSAtOC4yNmUtNCwwLjAxIDguMjVlLTQsMC4wMjA5IDAsMC4wMzEyIC0wLjM1Nzc1LDQuNDM3NiAtMC42NzgxNyw4Ljk0NTggLTAuOTY4NzQsMTMuNSAtNi41NmUtNCwwLjAxMDEgNi41NWUtNCwwLjAyMDkgMCwwLjAzMTIgLTAuODcyNiwxMy42ODQgLTEuNDU5NiwyNy43ODkgLTEuNzgxMiw0MS41NjIgLTIuNDVlLTQsMC4wMTA0IDIuNDRlLTQsMC4wMjA3IDAsMC4wMzEyIC0wLjIxNDQzLDkuMTg5NCAtMC4zMTI2LDE4LjIxMyAtMC4zMTI2LDI2LjkwNyAwLDAuOTY3NjMgMC4wMjc1NSwxLjk2MjkgMC4wMzEyNSwyLjkzNzUgLTAuMDAzNywwLjk3NDYyIC0wLjAzMTI1LDEuOTY5OSAtMC4wMzEyNSwyLjkzNzUgMCw4LjY5MzIgMC4wOTgxNiwxNy43MTcgMC4zMTI1LDI2LjkwNiAyLjQ0ZS00LDAuMDEwNSAtMi40NWUtNCwwLjAyMDggMCwwLjAzMTIgMC4zMjE2NSwxMy43NzQgMC45MDg2NCwyNy44NzggMS43ODEyLDQxLjU2MiA2LjU1ZS00LDAuMDEwMyAtNi41NmUtNCwwLjAyMTEgMCwwLjAzMTIgMC4yOTA1Nyw0LjU1NDIgMC42MTA5OSw5LjA2MjQgMC45Njg3NCwxMy41IDguMjVlLTQsMC4wMTAzIC04LjI2ZS00LDAuMDIxMSAwLDAuMDMxMiAwLjE3ODUyLDIuMjEzMyAwLjM2NjY4LDQuMzg4MiAwLjU2MjQ5LDYuNTYyNSA5LjIxZS00LDAuMDEwMyAtOS4yMWUtNCwwLjAyMTEgMCwwLjAzMTIgMC4xOTU4OCwyLjE3NCAwLjQxMTQ1LDQuMzQwNCAwLjYyNDk5LDYuNDY4OCA5Ljk5ZS00LDAuMDEwMiAtMC4wMDEsMC4wMjExIDAsMC4wMzEyIDAuNDI4MjYsNC4yNjYzIDAuODczNDIsOC40MjU2IDEuMzc1LDEyLjQ2OSAwLjAzMDIsMC4yNDM1NiAwLjA2MzI3LDAuNDc2MSAwLjA5Mzc1LDAuNzE4NzUgMC40NDU0NSwzLjU0NTYgMC45MzI4Nyw3LjAxMjMgMS40Mzc1LDEwLjM0NCAwLjAzNTY1LDAuMjM1MzMgMC4wNTc4LDAuNDg0NTkgMC4wOTM3NSwwLjcxODc1IDAuMDAxNSwwLjAxIC0wLjAwMTUsMC4wMjE1IDAsMC4wMzEyIDIuMzE3NCwxNS4wODcgNS4yNzA0LDI3LjcwOSA4LjkzNzQsMzYuMjE5IDAuMDAzNywwLjAwOSAtMC4wMDM3LDAuMDIyNiAwLDAuMDMxMiAwLjQ1NTA5LDEuMDU0NiAwLjkyODY2LDIuMDQ1IDEuNDA2MiwyLjk2ODggMC4wMDQyLDAuMDA4IC0wLjAwNDIsMC4wMjMxIDAsMC4wMzEyIDAuNDc3NTMsMC45MjIwNCAwLjk5OTYyLDEuNzc3OCAxLjUsMi41NjI1IDAuMDA0NiwwLjAwNyAtMC4wMDQ2LDAuMDI0MiAwLDAuMDMxMiAxLjAwNTIsMS41NzMxIDIuMDU2NiwyLjg2NDIgMy4xNTYyLDMuODQzOCAwLjI4MTQsMC4yNTE1NyAwLjU1NjAzLDAuNDc3IDAuODQzNzQsMC42ODc1IDAuODQ2ODYsMC42MTk2IDEuNzIyNiwxLjA2MzggMi42MjUsMS4zMTI1IGwgMTMuNjg3LDMuNzUgYyAwLDAgMS4zMzg4LDAuNDA5MjIgMy44MTI1LDEuMTI1IDMuNzExMSwxLjA3MjggOS45NywyLjg2NzUgMTguMDk0LDUgNS40MTU3LDEuNDIxNyAxMS42NjcsMy4wMDc4IDE4LjUzMSw0LjY1NjIgMy40MzE0LDAuODI0ODQgNy4wMDIyLDEuNjU1MSAxMC43MTksMi41IDAuMDEwMiwwLjAwMiAwLjAyMTEsLTAuMDAyIDAuMDMxMiwwIDUuNTY2MSwxLjI2NTIgMTEuNDM4LDIuNTM5NiAxNy41LDMuNzgxMiAyLjAyNCwwLjQxNDU4IDQuMDI3MywwLjgxMjg5IDYuMDkzNywxLjIxODggMC4wMTAxLDAuMDAyIDAuMDIxMiwtMC4wMDIgMC4wMzEyLDAgNC4xMjMyLDAuODA5NjUgOC4zMzk5LDEuNjE4NCAxMi41OTQsMi4zNzUgNC4yNjQsMC43NTg0MyA4LjU5MzUsMS40NzU1IDEyLjkzNywyLjE1NjIgNC4zNDM5LDAuNjgwNzMgOC42ODk4LDEuMzI3NyAxMy4wNjIsMS45MDYyIDAuMDEwMiwxMGUtNCAwLjAyMTEsLTEwZS00IDAuMDMxMiwwIDYuNTQ4NiwwLjg2NjExIDEzLjEyNSwxLjYxOTEgMTkuNTk0LDIuMTg3NSAyLjE1OTcsMC4xODk3NiA0LjI5OTQsMC4zNDk1MyA2LjQzNzQsMC41IDQuMjc2LDAuMzAwOTUgOC41MDUzLDAuNTMwNzkgMTIuNjU2LDAuNjU2MjUgNC4xNTA4LDAuMTI1NDYgOC40MDI4LDAuMTk0MDMgMTIuNzE5LDAuMjE4NzUgOC43ODU5LDAuMDUwMyAxNy44ODEsLTAuMTE3NTIgMjcuMjUsLTAuNDA2MjUgMTMuNjQyLC0wLjQyMDQzIDI3Ljg0NywtMS4xMzQ3IDQyLjM3NSwtMiAxOS42MDQsLTEuMTY3NiAzOS43OTgsLTIuNTkyMyA2MC4xMjQsLTMuODc1IDE1LjAyNCwtMC45NDU3OCAzMC4wOTgsLTEuODA3MyA0NS4wMzEsLTIuNDM3NSAwLjM5NjEyLC0wLjAxNjggMC43OTE1OCwtMC4wNDYxIDEuMTg3NSwtMC4wNjI1IDcuMzkzNCwtMC4zMDU4NyAxNC43NywtMC41NTE0NyAyMi4wNjIsLTAuNzE4NzUgNC45Nzg3LC0wLjExNDIgOS45MzE2LC0wLjE4NDQ3IDE0Ljg0NCwtMC4yMTg3NSAyLjQ1NiwtMC4wMTcyIDQuOTA3MywtMC4wMzY1IDcuMzQzNywtMC4wMzEyIGwgMTI0LjgxLDAuMjgxMjUgLTguNjU2MiwzNS45MzggMy41LDEuNSBjIDEuNzQ3NiwwLjYzMjU5IDQuOTYwMSwwLjkyODUxIDYuNDY4NywwLjkzNzUgMC44NDg2LDAuMDA1IDEuNzU1MSwtMC4wNzQxIDIuNjg3NSwtMC4yNSAwLjMxMDY5LC0wLjA1ODUgMC42MjM1MiwtMC4xNDEwNSAwLjkzNzQ5LC0wLjIxODc1IDAuMzA0NTksLTAuMDc1NiAwLjYzMjU4LC0wLjE1NjY4IDAuOTM3NDksLTAuMjUgMC42Mjg0NCwtMC4xOTMwNiAxLjI2MzUsLTAuNDIxNTYgMS44NzUsLTAuNjg3NSAxLjgyMTUsLTAuNzkzNTEgMy41MzQyLC0xLjkzMTQgNC43ODEyLC0zLjMxMjUgMC4wMSwtMC4wMTA3IDAuMDIxNywtMC4wMjA2IDAuMDMxMiwtMC4wMzEyIDAuNjI0OCwtMC42OTc5IDEuMTEyMywtMS40NTEyIDEuNDY4NywtMi4yODEyIGwgMTIuMTU2LC0zMS4zMTIgMTA5Ljk0LDAuMjUgYyAwLjc0NjksMC4zNzM5IDEuNDc2MSwwLjc0NTExIDIuMjE4NywxLjA5MzggMi45NzkyLDEuMzk5NSA1LjkxMSwyLjU5NyA4Ljg0MzYsMy42MjUgMS40NjIzLDAuNTEyNTkgMi45MTc4LDAuOTc1NDkgNC4zNzUsMS40MDYyIDUuMSwxLjUwNzUgMTAuMTg4LDIuNTUxNSAxNS4zNDQsMy4yNSAyLjk0NjIsMC4zOTkzMiA1LjkyNTksMC42OTM4OCA4LjkzNzQsMC45MDYyNSAxLjUwNTcsMC4xMDYxIDMuMDM0LDAuMTgwMTEgNC41NjI0LDAuMjUgMy4wNTcsMC4xMzk5NCA2LjEzODYsMC4yMTI4MyA5LjMxMjQsMC4yNSA2LjM0NzUsMC4wNzQxIDEyLjk3OSwwIDIwLDAgMTAuNDEsMCAyMC4zMjIsLTAuNTMxMjIgMjkuNzgxLC0xLjU2MjUgMy43ODM1LC0wLjQxMjUxIDcuNDkxMSwtMC44OTc0OSAxMS4xMjUsLTEuNDY4OCA3LjI2NzYsLTEuMTQyNSAxNC4yMjgsLTIuNjE4OSAyMC45MDYsLTQuMzc1IDEuNjY5NCwtMC40MzkwMyAzLjMzNTcsLTAuODk4NzQgNC45Njg3LC0xLjM3NSA0Ljg5OSwtMS40Mjg4IDkuNjEyOCwtMy4wMjU0IDE0LjE4NywtNC43ODEyIDEuNTI0OCwtMC41ODUyNyAzLjA0MiwtMS4xNjA1IDQuNTMxMiwtMS43ODEyIDIuOTc4MywtMS4yNDE0IDUuODgyLC0yLjU1NyA4LjcxODYsLTMuOTM3NSAxLjQxODMsLTAuNjkwMjcgMi44MzU1LC0xLjQwMDYgNC4yMTg3LC0yLjEyNSAyLjc2NjQsLTEuNDQ4OCA1LjQ2NjgsLTIuOTggOC4wOTM3LC00LjU2MjUgMS4zMTM1LC0wLjc5MTI1IDIuNTk2MSwtMS42MTM1IDMuODc1LC0yLjQzNzUgNi4zOTQzLC00LjEyMDEgMTIuMzYzLC04LjYyNTUgMTcuOTA2LC0xMy41MzEgNC40Mjg2LC0zLjkxOTUgOC42MDE1LC04LjA3OTggMTIuNSwtMTIuNDY5IDAuMDA1LC0wLjAwNiAtMC4wMDUsLTAuMDI1NCAwLC0wLjAzMTIgMC45NzA0NCwtMS4wOTI5IDEuOTM3LC0yLjE5MTYgMi44NzUsLTMuMzEyNSAwLjAwNSwtMC4wMDYgLTAuMDA1LC0wLjAyNTEgMCwtMC4wMzEyIDAuOTM3NzMsLTEuMTIwOSAxLjg3NTcsLTIuMjU3OCAyLjc4MTIsLTMuNDA2MiAwLjAwNSwtMC4wMDYgLTAuMDA1LC0wLjAyNDkgMCwtMC4wMzEyIDIuNzI1NiwtMy40NTgyIDUuMzEzMiwtNy4wMTg5IDcuNzQ5OSwtMTAuNzE5IDAuMDA1LC0wLjAwNyAtMC4wMDUsLTAuMDI0IDAsLTAuMDMxMiAwLjgwODgyLC0xLjIyODYgMS42Mjg5LC0yLjQ2NDQgMi40MDYyLC0zLjcxODggMC4wMDUsLTAuMDA4IC0wLjAwNSwtMC4wMjM4IDAsLTAuMDMxMiAyLjM0MDUsLTMuNzc4MSA0LjU2NjgsLTcuNjUyNSA2LjYyNDksLTExLjY1NiAwLjAwNCwtMC4wMDggLTAuMDA0LC0wLjAyMzEgMCwtMC4wMzEyIDAuNjgyOTksLTEuMzI5MiAxLjM0NzcsLTIuNjc4MSAyLC00LjAzMTIgMC4wMDQsLTAuMDA4IC0wLjAwNCwtMC4wMjI5IDAsLTAuMDMxMiAwLjY1MjA0LC0xLjM1MzMgMS4zMTYsLTIuNzE2OSAxLjkzNzUsLTQuMDkzOCAwLjAwNCwtMC4wMDkgLTAuMDA0LC0wLjAyMjcgMCwtMC4wMzEyIDEuMjQ2NCwtMi43NjI1IDIuNDM4LC01LjU1MTcgMy41NjI1LC04LjQwNjIgMC4wMDQsLTAuMDA5IC0wLjAwNCwtMC4wMjI0IDAsLTAuMDMxMiAwLjU2MDIzLC0xLjQyMjkgMS4wOTQ4LC0yLjg2NzQgMS42MjUsLTQuMzEyNSAwLjAwMywtMC4wMDkgLTAuMDAzLC0wLjAyMjIgMCwtMC4wMzEyIDAuNTMwMDIsLTEuNDQ1MiAxLjA2MjMsLTIuOTA4IDEuNTYyNSwtNC4zNzUgMC40OTk5OSwtMS40NjcxIDAuOTk4NDIsLTIuOTQ5IDEuNDY4NywtNC40Mzc1IDAuMDAzLC0wLjAwOSAtMC4wMDMsLTAuMDIyIDAsLTAuMDMxMiAwLjQ3MDEzLC0xLjQ4ODYgMC45MzQzNSwtMi45OTA1IDEuMzc1LC00LjUgMC4wMDMsLTAuMDEgLTAuMDAzLC0wLjAyMTcgMCwtMC4wMzEyIDAuNDQwNDUsLTEuNTA5NiAwLjg3MDA5LC0zLjAzMjQgMS4yODEyLC00LjU2MjUgMC4wMDMsLTAuMDEgLTAuMDAzLC0wLjAyMTcgMCwtMC4wMzEyIDEuMjM4MSwtNC42MTAxIDIuMzY4NCwtOS4zMDYgMy4zNDM3MiwtMTQuMDk0IHYgLTAuMDMxMiBjIDAuMzIzNiwtMS41ODk0IDAuNjExMiwtMy4yMDQ0IDAuOTA2MywtNC44MTI1IHYgLTAuMDMxMiBjIDIuMDc0NywtMTEuMzE4IDMuNDYyMSwtMjMuMDYyIDQuMTU2MiwtMzUuMjE5IDVlLTQsLTAuMDEwMyAtNmUtNCwtMC4wMjExIDAsLTAuMDMxMiAwLjA5OCwtMS43Mjc5IDAuMTc4NywtMy40NzU3IDAuMjUsLTUuMjE4OCA0ZS00LC0wLjAxMDMgLTRlLTQsLTAuMDIxMSAwLC0wLjAzMTIgMC4xNDI2LC0zLjQ5NjkgMC4yNDY3LC03LjAwNzIgMC4yODEyLC0xMC41NjIgMCwtMC4wMTAzIC0xMGUtNSwtMC4wMjExIDAsLTAuMDMxMiAwLjAxNywtMS43ODMgMC4wMSwtMy41NzggMCwtNS4zNzUgMCwtMC42MzU4IC0wLjAyMiwtMS4yNzE0IC0wLjAzMSwtMS45MDYyIDAuMDEsLTAuNjM0ODUgMC4wMzEsLTEuMjcwNCAwLjAzMSwtMS45MDYyIDAuMDEsLTEuNzk3IDAuMDE3LC0zLjU5MiAwLC01LjM3NSAtMTBlLTUsLTAuMDEwMiAwLC0wLjAyMDkgMCwtMC4wMzEyIC0wLjAzNCwtMy41NTUzIC0wLjEzODYsLTcuMDY1NiAtMC4yODEyLC0xMC41NjIgLTRlLTQsLTAuMDEwMiA0ZS00LC0wLjAyMDkgMCwtMC4wMzEyIC0wLjA3MSwtMS43NDMxIC0wLjE1MiwtMy40OTA4IC0wLjI1LC01LjIxODggLTZlLTQsLTAuMDEwMiA1ZS00LC0wLjAyMDkgMCwtMC4wMzEyIC0wLjY5NDEsLTEyLjE1NyAtMi4wODE1LC0yMy45IC00LjE1NjIsLTM1LjIxOSB2IC0wLjAzMTIgYyAtMC4yOTUxLC0xLjYwODEgLTAuNTgyNywtMy4yMjMxIC0wLjkwNjMsLTQuODEyNSB2IC0wLjAzMTIgYyAtMC45NzUzOSwtNC43ODc4IC0yLjEwNTYyLC05LjQ4MzYgLTMuMzQzNzIsLTE0LjA5NCAtMC4wMDMsLTAuMDEgMC4wMDMsLTAuMDIxMyAwLC0wLjAzMTIgLTAuNDExMTUsLTEuNTMwMSAtMC44NDA3OSwtMy4wNTI5IC0xLjI4MTIsLTQuNTYyNSAtMC4wMDMsLTAuMDEgMC4wMDMsLTAuMDIxMyAwLC0wLjAzMTIgLTAuNDQwNjMsLTEuNTA5NSAtMC45MDQ4NSwtMy4wMTE0IC0xLjM3NSwtNC41IC0wLjAwMywtMC4wMDkgMC4wMDMsLTAuMDIyMyAwLC0wLjAzMTIgLTAuNDcwMzIsLTEuNDg4NSAtMC45Njg3NSwtMi45NzA0IC0xLjQ2ODcsLTQuNDM3NSAtMC41MDAxNywtMS40NjcgLTEuMDMyNSwtMi45Mjk4IC0xLjU2MjUsLTQuMzc1IC0wLjAwMywtMC4wMDkgMC4wMDMsLTAuMDIyMyAwLC0wLjAzMTIgLTAuNTMwMjEsLTEuNDQ1MSAtMS4wNjQ4LC0yLjg4OTYgLTEuNjI1LC00LjMxMjUgLTAuMDA0LC0wLjAwOSAwLjAwNCwtMC4wMjIzIDAsLTAuMDMxMiAtMS4xMjQ0LC0yLjg1NDYgLTIuMzE2MSwtNS42NDM4IC0zLjU2MjUsLTguNDA2MiAtMC4wMDQsLTAuMDA4IDAuMDA0LC0wLjAyMjMgMCwtMC4wMzEyIC0wLjYyMTQ4LC0xLjM3NjggLTEuMjg1NCwtMi43NDA1IC0xLjkzNzUsLTQuMDkzOCAtMC4wMDQsLTAuMDA4IDAuMDA0LC0wLjAyMzMgMCwtMC4wMzEyIC0wLjY1MjI0LC0xLjM1MzIgLTEuMzE3LC0yLjcwMjEgLTIsLTQuMDMxMiAtMC4wMDQsLTAuMDA4IDAuMDA0LC0wLjAyMzMgMCwtMC4wMzEyIC0yLjA1ODIsLTQuMDAzOCAtNC4yODQ0LC03Ljg3ODIgLTYuNjI0OSwtMTEuNjU2IC0wLjAwNSwtMC4wMDcgMC4wMDUsLTAuMDIzMyAwLC0wLjAzMTIgLTAuNzc3MzMsLTEuMjU0MyAtMS41OTc0LC0yLjQ5MDIgLTIuNDA2MiwtMy43MTg4IC0wLjAwNSwtMC4wMDcgMC4wMDUsLTAuMDI0MiAwLC0wLjAzMTIgLTIuNDM2NywtMy42OTk5IC01LjAyNDMsLTcuMjYwNiAtNy43NDk5LC0xMC43MTkgLTAuMDA1LC0wLjAwNiAwLjAwNSwtMC4wMjUzIDAsLTAuMDMxMiAtMC45MDU0OSwtMS4xNDg1IC0xLjg0MzUsLTIuMjg1MyAtMi43ODEyLC0zLjQwNjIgLTAuMDA1LC0wLjAwNiAwLjAwNSwtMC4wMjUzIDAsLTAuMDMxMiAtMC45MzgwMSwtMS4xMjA5IC0xLjkwNDUsLTIuMjE5NiAtMi44NzUsLTMuMzEyNSAtMC4wMDUsLTAuMDA2IDAuMDA1LC0wLjAyNTMgMCwtMC4wMzEyIC0zLjg5ODMsLTQuMzg4OSAtOC4wNzEyLC04LjU0OTMgLTEyLjUsLTEyLjQ2OSAtNS41NDMsLTQuOTA1OCAtMTEuNTEyLC05LjQxMTIgLTE3LjkwNiwtMTMuNTMxIC0xLjI3ODksLTAuODI0MDIgLTIuNTYxNSwtMS42NDYyIC0zLjg3NSwtMi40Mzc1IC0yLjYyNjksLTEuNTgyNSAtNS4zMjczLC0zLjExMzcgLTguMDkzNywtNC41NjI1IC0xLjM4MzIsLTAuNzI0MzkgLTIuODAwNCwtMS40MzQ3IC00LjIxODcsLTIuMTI1IC0yLjgzNjcsLTEuMzgwNiAtNS43NDAzLC0yLjY5NjEgLTguNzE4NiwtMy45Mzc1IC0xLjQ4OTIsLTAuNjIwNzEgLTMuMDA2NCwtMS4xOTYgLTQuNTMxMiwtMS43ODEyIC00LjU3NDYsLTEuNzU1OCAtOS4yODgzLC0zLjM1MjUgLTE0LjE4NywtNC43ODEyIC0xLjYzMywtMC40NzYyNiAtMy4yOTkzLC0wLjkzNTk3IC00Ljk2ODcsLTEuMzc1IC02LjY3NzcsLTEuNzU2MSAtMTMuNjM4LC0zLjIzMjUgLTIwLjkwNiwtNC4zNzUgLTMuNjMzOCwtMC41NzEyNiAtNy4zNDE0LC0xLjA1NjIgLTExLjEyNSwtMS40Njg4IC05LjQ1ODYsLTEuMDMyNiAtMTkuMzcxLC0xLjU2MzggLTI5Ljc4MSwtMS41NjM4IC03LjAyMDQsMCAtMTMuNjUyLC0wLjA3NDEgLTIwLDAgLTMuMTczOCwwLjAzNzIgLTYuMjU1NCwwLjExMDA2IC05LjMxMjQsMC4yNSAtMS41Mjg1LDAuMDY5OSAtMy4wNTY4LDAuMTQzOSAtNC41NjI0LDAuMjUgLTMuMDExNSwwLjIxMjM3IC01Ljk5MTIsMC41MDY5MyAtOC45Mzc0LDAuOTA2MjUgLTUuMTU1NiwwLjY5ODQ5IC0xMC4yNDQsMS43NDI1IC0xNS4zNDQsMy4yNSAtMS40NTcyLDAuNDMwNzYgLTIuOTEyNywwLjg5MzY2IC00LjM3NSwxLjQwNjIgLTIuOTMyNywxLjAyOCAtNS44NjQ1LDIuMjI1NSAtOC44NDM2LDMuNjI1IC0wLjc0MjY3LDAuMzQ4NjQgLTEuNDcxOCwwLjcxOTg1IC0yLjIxODcsMS4wOTM4IGwgLTEwOS45NCwwLjI1IC0xMi4xNTYsLTMxLjMxMiBjIC0wLjM1NjQ0LC0wLjgzIC0wLjg0MzkzLC0xLjU4MzQgLTEuNDY4NywtMi4yODEyIC0wLjAxLC0wLjAxMDUgLTAuMDIxMywtMC4wMjA2IC0wLjAzMTIsLTAuMDMxMiAtMS4yNDcsLTEuMzgxMSAtMi45NTk3LC0yLjUxOSAtNC43ODEyLC0zLjMxMjUgLTAuNjExNDYsLTAuMjY1OTQgLTEuMjQ2NSwtMC40OTQ0NCAtMS44NzUsLTAuNjg3NSAtMC4zMDQ5MSwtMC4wOTMzIC0wLjYzMjksLTAuMTc0NCAtMC45Mzc0OSwtMC4yNSAtMC4zMTQwMiwtMC4wNzc3IC0wLjYyNjg1LC0wLjE2MDI1IC0wLjkzNzU0LC0wLjIxODc1IC0wLjkzMjQsLTAuMTc1OSAtMS44Mzg5LC0wLjI1NSAtMi42ODc1LC0wLjI1IHoiIGlkPSJwYXRoMzg1NSIgc3R5bGU9ImZpbGwtb3BhY2l0eTowLjk5NjA3OTk5O3N0cm9rZTojMTkxOTE5O3N0cm9rZS13aWR0aDoxNCIvPiYjeGE7ICAgICAgPHBhdGggZD0ibSA2MTAuNTIsNDkzLjY5IGMgLTEuNTA4NiwwLjAwOSAtNC43MjExLDAuMzA2MTEgLTYuNDY4NywwLjkzNzUgbCAtMy41LDEuNSA4LjY1NjIsMzUuODQ0IC0xMjQuODEsMC4yODEyNSBjIC03Ny45NjMsMC4xNjU0IC0xNjYuNTIsLTExLjUwNCAtMjMyLjkzLC05LjUgLTY2LjQxMiwyLjAwMzcgLTE1Mi4xMiwyOCAtMTUyLjEyLDI4IGwgLTEzLjY4NywzLjc4MTIgYyAtMTkuMjUxLDUuMjk2MyAtMjUuNzE4LDk3LjM2NyAtMjUuNzE4LDE2Ni43OCAwLDEuMTEzIDAuMDI2NjUsMi4yNTMxIDAuMDMxMjUsMy4zNzUgLTAuMDA0NiwxLjEyMTkgLTAuMDMxMjUsMi4yNjIgLTAuMDMxMjUsMy4zNzUgMCw2OS40MTQgNi40NjczLDE2MS40OCAyNS43MTgsMTY2Ljc4IGwgMTMuNjg3LDMuNzgxMiBjIDAsMCA4NS43MTEsMjUuOTk2IDE1Mi4xMiwyOCA2Ni40MTIsMi4wMDM3IDE1NC45NywtOS42NjU0IDIzMi45MywtOS41IGwgMTI0LjgxLDAuMjgxMjUgLTguNjU2MiwzNS44NDQgMy41LDEuNSBjIDEuNzQ3NiwwLjYzMTM5IDQuOTYsMC45Mjg1NCA2LjQ2ODcsMC45Mzc1IDAuODQ4NTksMC4wMDUgMS43NTUxLC0wLjA3NDQgMi42ODc1LC0wLjI1IDAuMzEwNywtMC4wNTg0IDAuNjIzNTIsLTAuMTQxMTkgMC45Mzc0OSwtMC4yMTg3NSAwLjMwNDU5LC0wLjA3NTQgMC42MzI1OSwtMC4xNTY4NiAwLjkzNzQ5LC0wLjI1IDAuNjI4NDQsLTAuMTkyNjkgMS4yNjM1LC0wLjQyMjA2IDEuODc1LC0wLjY4NzUgMS44MjE1LC0wLjc5MjAxIDMuNTM0MiwtMS45MDI4IDQuNzgxMiwtMy4yODEyIDAuMDEsLTAuMDEwNyAwLjAyMTcsLTAuMDIwOCAwLjAzMTIsLTAuMDMxMiAwLjYyNDgsLTAuNjk2NTggMS4xMTIzLC0xLjQ1MjggMS40Njg3LC0yLjI4MTIgbCAxMi4xNTYsLTMxLjI1IDEwOS45NCwwLjI1IGMgMjMuOSwxMS45NDIgNDUuNTExLDEwLjcxOSA3My41OTMsMTAuNzE5IDEzMy4yNSwwIDE4Ny42MzAwMiwtODYuNTg2IDE4Ny4wMDAwMiwtMjAxLjM4IDAsLTAuNzgwMiAtMC4wMTksLTEuNTY1NiAtMC4wMzEsLTIuMzQzOCAwLjAxMiwtMC43NzgxMSAwLjAzMSwtMS41NjM2IDAuMDMxLC0yLjM0MzggMC42MjgyLC0xMTQuNzkgLTUzLjc0OTAyLC0yMDEuMzggLTE4Ny4wMDAwMiwtMjAxLjM4IC0yOC4wODIsMCAtNDkuNjkzLC0xLjIyMzYgLTczLjU5MywxMC43MTkgbCAtMTA5Ljk0LDAuMjUgLTEyLjE1NiwtMzEuMjUgYyAtMC4zNTY0NSwtMC44Mjg0NCAtMC44NDM5MywtMS41ODQ3IC0xLjQ2ODcsLTIuMjgxMiAtMC4wMSwtMC4wMTA0IC0wLjAyMTMsLTAuMDIwNiAtMC4wMzEyLC0wLjAzMTIgLTEuMjQ3LC0xLjM3ODUgLTIuOTU5NywtMi40ODkyIC00Ljc4MTIsLTMuMjgxMiAtMC42MTE0OCwtMC4yNjU0NCAtMS4yNDY1LC0wLjQ5NDgxIC0xLjg3NSwtMC42ODc1IC0wLjMwNDksLTAuMDkzMSAtMC42MzI5LC0wLjE3NDYgLTAuOTM3NDksLTAuMjUgLTAuMzEzOTcsLTAuMDc3NiAtMC42MjY3OSwtMC4xNjAzNSAtMC45Mzc0OSwtMC4yMTg3NSAtMC45MzIzOSwtMC4xNzU2IC0xLjgzODksLTAuMjU1IC0yLjY4NzUsLTAuMjUgeiIgaWQ9InBhdGgyODUzIiBzdHlsZT0iZmlsbDojMzI3OGZmO2ZpbGwtb3BhY2l0eTowLjk5NjA3OTk5Ii8+JiN4YTsgICAgICA8cGF0aCBkPSJtIDQwMC4zNCw4NTUuMjQgYyAtMzMuMzY0LDAgLTY1LjMwNywxLjggLTk0LjgxMSw1LjA2MjUgMjUuNjYsNDguNzE0IDk3Ljk4NSwzMC4yNjUgMjA1LjU2LDMxLjUzMSA0OS42ODYsMC41ODQ3MSA4OS41NDMsMS44NzkzIDEyMS41MywyLjM3NSAtNDcuMTYsLTIzLjMzNCAtMTMzLjUzLC0zOC45NjkgLTIzMi4yOCwtMzguOTY5IHoiIGlkPSJwYXRoMzY0MyIgc3R5bGU9Im9wYWNpdHk6MC45O2ZpbGw6IzI2MjYyNjtmaWxsLW9wYWNpdHk6MC45OTYwNzk5OSIvPiYjeGE7ICAgICAgPHBhdGggZD0ibSA0MDAuMzQsODU1LjI0IGMgLTMuMjA2NCwwIC02LjM4MzEsMC4wMjk1IC05LjU2MjQsMC4wNjI1IDAuODE4MjUsMTYuMTcxIDYuNDI4MSwzMC4yNTcgMTQuNTk0LDM4Ljg0NCA0LjY3MTQsLTAuMDc1NiA5LjQ5NTEsLTAuMTk2NTUgMTQuNDM3LC0wLjM0Mzc1IC04LjU2NTcsLTguMTkyMyAtMTQuNTkzLC0yMi4yMjggLTE1LjcxOSwtMzguNTYyIC0xLjI1MTIsLTAuMDA1IC0yLjQ5NDcsMCAtMy43NSwwIHoiIGlkPSJwYXRoMzY1OCIgc3R5bGU9Im9wYWNpdHk6MC41O2ZpbGwtb3BhY2l0eTowLjk5NjA3OTk5Ii8+JiN4YTsgICAgICA8cGF0aCBkPSJtIDk4OS4wMiw4MjcuNSAtNS4wOTM3LDAuNTkzNzUgYyAtMjEuNTQ1LDIuNTEyNyAtMzcuNjg4LDI1Ljk3OSAtMzkuMjgxLDU0LjUzMSBsIC0wLjM3NDk5LDcuMTI1IDUuMjQ5OSwtNC44NDM4IGMgMTUuODg5LC0xNC42OCAyOC4zMDMsLTMyLjUwNyAzNy40MDYsLTUyLjc1IGwgMi4wOSwtNC42NSB6IiBpZD0icGF0aDM3MDciIHN0eWxlPSJ0ZXh0LWluZGVudDowO3RleHQtdHJhbnNmb3JtOm5vbmU7YmxvY2stcHJvZ3Jlc3Npb246dGI7Y29sb3I6IzAwMDAwMDtmaWxsOiMyMTIxMjE7c3Ryb2tlOiMxOTE5MTk7c3Ryb2tlLXdpZHRoOjUiLz4mI3hhOyAgICAgIDxwYXRoIGQ9Im0gNzgzLjQ3LDgzOC41IGMgMCwwIDc5LjY3NywtMjIuNTk2IDEwNS4zOCwtMzEuOTgyIDI2LjgzOSwtOS44MDE4IDk4Ljg1OSwtMzkuMTQ2IDk4Ljg1OSwtMzkuMTQ2IDAsMCAtOC43NDA5LDQyLjQ3IC0zMC40ODMsNTcuOTE4IC03Ny4yMyw1NC44NyAtMjMyLjY5LDUzLjg1IC0yMzIuNjksNTMuODUiIGlkPSJwYXRoMzcxNSIgc3R5bGU9Im9wYWNpdHk6MC41O2ZpbGw6bm9uZTtzdHJva2U6IzI5MjkyOTtzdHJva2Utd2lkdGg6NjtzdHJva2UtbGluZWNhcDpyb3VuZDtzdHJva2UtbGluZWpvaW46cm91bmQiLz4mI3hhOyAgICAgIDxwYXRoIGQ9Im0gODY5Ljk3LDgxNy44NCAtNC40Mzc0LDIuMzQzOCBjIDAuOTg5MTIsMS4xNTY4IDEuNzk1NSwyLjQyODYgMi4zNzUsMy44NDM4IDQuNzk3OSwxMS43MTcgLTEwLjczNiwyOS4yMzYgLTI2Ljg3NSwzNS43ODEgLTAuNTE2NzUsMC4yMDk1OCAtMS44MTI5LDAuODQwNjYgLTMuNDA2MiwxLjY1NjIgbCAxMy42MjUsLTMuODc1IGMgMTcuMzA2LC04LjQ1NzYgMjcuNDcsLTIzLjA4MiAyMywtMzQgLTAuOTE2MTUsLTIuMjM3MyAtMi4zNzUyLC00LjE2NjEgLTQuMjgxMiwtNS43NSB6IiBpZD0icGF0aDM3NTciIHN0eWxlPSJmaWxsOnVybCgjbGluZWFyR3JhZGllbnQ0MTQ5KSIvPiYjeGE7ICAgICAgPHBhdGggZD0ibSA4NzguNTUsODEzLjM4IC00LjQzNzUsMi4zNDM4IGMgMC45ODkxMywxLjE1NjggMS43OTU1LDIuNDI4NiAyLjM3NSwzLjg0MzggNC43OTc5LDExLjcxNyAtMTAuNzM2LDI5LjIzNiAtMjYuODc1LDM1Ljc4MSAtMC41MTY3NiwwLjIwOTU4IC0xLjgxMjksMC44NDA2NiAtMy40MDYyLDEuNjU2MiBsIDEzLjYyNSwtMy44NzUgYyAxNy4zMDYsLTguNDU3NiAyNy40NywtMjMuMDgyIDIzLC0zNCAtMC45MTYxNSwtMi4yMzczIC0yLjM3NTIsLTQuMTY2MSAtNC4yODEyLC01Ljc1IHoiIGlkPSJwYXRoMzc4NyIgc3R5bGU9ImZpbGw6dXJsKCNsaW5lYXJHcmFkaWVudDQyMDMpIi8+JiN4YTsgICAgICA8cGF0aCBkPSJtIDg4NC43NCw4MTEuOTYgLTQuNDM3NCwyLjM0MzggYyAwLjk4OTEzLDEuMTU2OCAxLjc5NTUsMi40Mjg2IDIuMzc1LDMuODQzOCA0Ljc5NzksMTEuNzE3IC0xMC43MzYsMjkuMjM2IC0yNi44NzUsMzUuNzgxIC0wLjUxNjc1LDAuMjA5NTggLTEuODEyOSwwLjg0MDY2IC0zLjQwNjIsMS42NTYyIGwgMTMuNjI1LC0zLjg3NSBjIDE3LjMwNiwtOC40NTc2IDI3LjQ3LC0yMy4wODIgMjMsLTM0IC0wLjkxNjE1LC0yLjIzNzMgLTIuMzc1MiwtNC4xNjYxIC00LjI4MTIsLTUuNzUgeiIgaWQ9InBhdGgzNzUyIiBzdHlsZT0iZmlsbDp1cmwoI2xpbmVhckdyYWRpZW50NDE1NSkiLz4mI3hhOyAgICAgIDxwYXRoIGQ9Im0gOTAxLjY1LDgwNy42OSAtNi4xODc0LDEuODQzOCBjIDAuOTYwMTUsMS43MTI4IDEuNjU0NSwzLjUzMjMgMi4wMzEyLDUuNDY4OCAzLjExOTQsMTYuMDM0IC0yMC45NjIsMzQuMjg0IC00My4wMzEsMzguNSAtMy4zOTUsMC42NDg2NCAtMjguODg0LDguNTc2IC0zMi4xNTgsOC44MDQ0IHYgNC4xMjUgbCA0MS40MzksLTEyLjE0OCBjIDI2LjI4NSwtNS40OTYzIDQ0Ljk0OSwtMjIuNDQ4IDQxLjg3NSwtMzguMjUgLTAuNTk1NjQsLTMuMDYxNiAtMS45NTYsLTUuODU5NSAtMy45Njg3LC04LjM0MzggeiIgaWQ9InBhdGgzNzM1IiBzdHlsZT0iZmlsbDp1cmwoI2xpbmVhckdyYWRpZW50NDIwNSkiLz4mI3hhOyAgICAgIDxwYXRoIGQ9Im0gOTAxLjY1LDgwNy42OSAtNi4xODc0LDEuODQzOCBjIDAuOTYwMTUsMS43MTI4IDEuNjU0NSwzLjUzMjMgMi4wMzEyLDUuNDY4OCAzLjExOTQsMTYuMDM0IC0yMC45NjIsMzQuMjg0IC00My4wMzEsMzguNSAtMy4zOTUsMC42NDg2NCAtMjguODg0LDguNTc2IC0zMi4xNTgsOC44MDQ0IHYgNC4xMjUgbCA0MS40MzksLTEyLjE0OCBjIDI2LjI4NSwtNS40OTYzIDQ0Ljk0OSwtMjIuNDQ4IDQxLjg3NSwtMzguMjUgLTAuNTk1NjQsLTMuMDYxNiAtMS45NTYsLTUuODU5NSAtMy45Njg3LC04LjM0MzggeiIgaWQ9InBhdGgzNzgzIiBzdHlsZT0iZmlsbDp1cmwoI2xpbmVhckdyYWRpZW50NDIwNykiLz4mI3hhOyAgICAgIDxwYXRoIGQ9Im0gODU3LjEyLDgyMi40NiAtMy45NjQxLDIuMDkzNyBjIDAuODgzNjEsMS4wMzM0IDEuNjA0LDIuMTY5NiAyLjEyMTYsMy40MzM3IDQuMjg2MSwxMC40NjcgLTkuNTkwNiwyNi4xMTcgLTI0LjAwOCwzMS45NjQgLTAuNDYxNjMsMC4xODcyMyAtMS42MTk1LDAuNzUwOTggLTMuMDQyOCwxLjQ3OTYgbCAxMi4xNzEsLTMuNDYxNiBjIDE1LjQ2LC03LjU1NTQgMjQuNTQsLTIwLjYyIDIwLjU0NiwtMzAuMzczIC0wLjgxODQyLC0xLjk5ODcgLTIuMTIxOCwtMy43MjE2IC0zLjgyNDUsLTUuMTM2NiB6IiBpZD0icGF0aDM3OTkiIHN0eWxlPSJmaWxsOnVybCgjbGluZWFyR3JhZGllbnQ0MjA5KSIvPiYjeGE7ICAgICAgPHBhdGggZD0ibSA4NDMuMzIsODI2LjAzIC0zLjk2NDEsMi4wOTM3IGMgMC44ODM2MSwxLjAzMzQgMS42MDQsMi4xNjk2IDIuMTIxNiwzLjQzMzcgNC4yODYxLDEwLjQ2NyAtOS41OTA2LDI2LjExNyAtMjQuMDA4LDMxLjk2NCAtMC40NjE2MiwwLjE4NzIzIC0xLjYxOTUsMC43NTA5OCAtMy4wNDI4LDEuNDc5NiBsIDEyLjE3MSwtMy40NjE2IGMgMTUuNDYsLTcuNTU1NCAyNC41NCwtMjAuNjIgMjAuNTQ2LC0zMC4zNzMgLTAuODE4NDIsLTEuOTk4NyAtMi4xMjE4LC0zLjcyMTYgLTMuODI0NSwtNS4xMzY2IHoiIGlkPSJwYXRoMzgwMyIgc3R5bGU9ImZpbGw6dXJsKCNsaW5lYXJHcmFkaWVudDQxNTMpIi8+JiN4YTsgICAgICA8cGF0aCBkPSJtIDIzMy4yNyw4NDUuNzIgYyA4LjI5MywtMi4wMjM0IDE1LjQ4NiwtMS40Nzg4IDE5Ljc5Nyw1Ljc4NzIgbCAtMi40OTM0LDE3Ljg5NyBjIC02Ljg3NTEsNi4xNzMyIC0xMy43NSw0Ljk1MDkgLTIwLjYyNSwwLjE1NTQzIGwgMy4zMjEyLC0yMy44MzkgeiIgaWQ9InJlY3QzODYxIiBzdHlsZT0iZmlsbDp1cmwoI2xpbmVhckdyYWRpZW50NDIxMSkiLz4mI3hhOyAgICAgIDxwYXRoIGQ9Im0gMjUzLjU0LDg0OC45OSBjIDguMTUwMiwtMS4yMTAyIDE1LjE2NywtMC41NzI4IDE4Ljg0Myw1LjUwODEgbCAtMi4zNzMxLDE3LjAzNCBjIC02LjQ4MzksMi45NzQ4IC0xMi45ODMsNS4yMDk2IC0xOS42MzEsMC4xNDc5MyBsIDMuMTYxMSwtMjIuNjkgeiIgaWQ9InBhdGgzODY0IiBzdHlsZT0iZmlsbDp1cmwoI2xpbmVhckdyYWRpZW50NDIxMykiLz4mI3hhOyAgICAgIDxwYXRoIGQ9Im0gNDAwLjM0LDg1Mi43NSBjIC0zMy40NTQsMCAtNjUuNDkyLDEuNzg5NCAtOTUuMDkzLDUuMDYyNSBsIC0zLjY1NjIsMC40MDYyNSAxLjcxODcsMy4yNSBjIDYuNjcxMSwxMi42NjQgMTYuNTYyLDIxLjExMyAyOS4wNjIsMjYuNDM4IDEyLjUwMSw1LjMyNDEgMjcuNTcyLDcuNjEyNiA0NS4wOTMsOC40Mzc1IDM1LjA0MiwxLjY0OTggNzkuOTU0LC0yLjYzMTIgMTMzLjU5LC0yIDQ5LjY1OSwwLjU4NDM4IDg5LjUwOCwxLjg3ODcgMTIxLjUzLDIuMzc1IGwgMS4xMjUsLTQuNzUgYyAtNDcuODQsLTIzLjY4IC0xMzQuMzQsLTM5LjIyIC0yMzMuMzYsLTM5LjIyIHogbSAwLDUgYyA5MS4xNjksMCAxNzEuNzUsMTMuNDc5IDIyMC4wOSwzMy43MTkgLTI5Ljk1MiwtMC41ODI0MSAtNjUuMjEyLC0xLjYwNiAtMTA5LjMxLC0yLjEyNSAtNTMuOTM3LC0wLjYzNDczIC05OC45NzYsMy42NTIyIC0xMzMuNCwyLjAzMTIgLTE3LjIxNCwtMC44MTA0NiAtMzEuNzY3LC0zLjEwNTQgLTQzLjQwNiwtOC4wNjI1IC0xMC40NTMsLTQuNDUyMSAtMTguNDg1LC0xMS4xNTQgLTI0LjUsLTIwLjkwNiAyOC4zMDcsLTIuOTgzMSA1OC43MzUsLTQuNjU2MiA5MC41MywtNC42NTYyIHoiIGlkPSJwYXRoNDAyNSIgc3R5bGU9InRleHQtaW5kZW50OjA7dGV4dC10cmFuc2Zvcm06bm9uZTtibG9jay1wcm9ncmVzc2lvbjp0YjtvcGFjaXR5OjAuOTtjb2xvcjojMDAwMDAwO2ZpbGw6IzE5MTkxOSIvPiYjeGE7ICAgICAgPHBhdGggZD0ibSAyNjAuNSw2MDcuMzggLTc3Ljc0OSwxMi40NjkgYyAtMjcuMTUsNC4zNTQyIC00OC45NDcsNDguNzczIC01MC45OTksMTA0Ljg0IDIuMDUyMyw1Ni4wNzEgMjMuODQ5LDEwMC40OSA1MC45OTksMTA0Ljg0IGwgNzcuNzQ5LDEyLjQ2OSBjIDEzLjI5NiwwIDI0LC0xMC43MDQgMjQsLTI0IHYgLTE4Ni42MiBjIDAsLTEzLjI5NiAtMTAuNzA0LC0yNCAtMjQsLTI0IHoiIGlkPSJyZWN0Mjg2NCIgc3R5bGU9Im9wYWNpdHk6MC45O2ZpbGw6IzI2MjYyNjtmaWxsLW9wYWNpdHk6MC45OTYwNzk5OTtzdHJva2U6IzE5MTkxOTtzdHJva2Utd2lkdGg6NSIvPiYjeGE7ICAgICAgPHBhdGggZD0ibSA2OTEuOTYsNTczLjE2IGMgLTIuOTY5MiwwIC01Ljg5MzMsMC4zMzIxNSAtOC43ODEyLDAuOTY4NzUgLTAuMDEwNCwtMC4wMSAtMC4wMjA4LC0wLjAyMSAtMC4wMzEyLC0wLjAzMTIgbCAtNjMuODQzLDEyLjMxMiBjIC0xNy43MjgsNi42MDQ3IC0zMiwxNC4yNzIgLTMyLDMyIHYgMjEyLjU2IGMgMCwxNy43MjggMTQuMjcyLDI1LjM5NSAzMiwzMiBsIDYzLjg0MywxMi4zMTIgYyAwLjAxMDUsLTAuMDEwMiAwLjAyMDgsLTAuMDIxMSAwLjAzMTIsLTAuMDMxMiAyLjg4NzksMC42MzY2IDUuODEyLDAuOTY4NzUgOC43ODEyLDAuOTY4NzUgNDUuMzk1LDAgODIuMTk4LC01Ny4zNjMgODIuMzEyLC0xNTEuNTMgLTAuMTE0MDgsLTk0LjE2OSAtMzYuOTE2LC0xNTEuNTMgLTgyLjMxMiwtMTUxLjUzIHoiIGlkPSJwYXRoMzcwMyIgc3R5bGU9Im9wYWNpdHk6MC45O2ZpbGw6IzI2MjYyNjtmaWxsLW9wYWNpdHk6MC45OTYwNzk5OTtzdHJva2U6IzE5MTkxOTtzdHJva2Utd2lkdGg6NSIvPiYjeGE7ICAgICAgPHBhdGggZD0ibSA0MDAuMzQsNTk0LjE1IGMgLTMzLjM2NCwwIC02NS4zMDcsLTEuOCAtOTQuODExLC01LjA2MjUgMjUuNjYsLTQ4LjcxNCA5Ny45ODUsLTMwLjI2NSAyMDUuNTYsLTMxLjUzMSA0OS42ODYsLTAuNTg0NzEgODkuNTQzLC0xLjg3OTMgMTIxLjUzLC0yLjM3NSAtNDcuMTYsMjMuMzM0IC0xMzMuNTMsMzguOTY5IC0yMzIuMjgsMzguOTY5IHoiIGlkPSJwYXRoNDE1NyIgc3R5bGU9Im9wYWNpdHk6MC45O2ZpbGw6IzI2MjYyNjtmaWxsLW9wYWNpdHk6MC45OTYwNzk5OSIvPiYjeGE7ICAgICAgPHBhdGggZD0ibSA0MDAuMzQsNTk0LjE1IGMgLTMuMjA2NCwwIC02LjM4MzEsLTAuMDI5NSAtOS41NjI0LC0wLjA2MjUgMC44MTgyNSwtMTYuMTcxIDYuNDI4MSwtMzAuMjU3IDE0LjU5NCwtMzguODQ0IDQuNjcxNCwwLjA3NTYgOS40OTUxLDAuMTk2NTUgMTQuNDM3LDAuMzQzNzUgLTguNTY1Nyw4LjE5MjMgLTE0LjU5MywyMi4yMjggLTE1LjcxOSwzOC41NjIgLTEuMjUxMiwwLjAwNSAtMi40OTQ3LDAgLTMuNzUsMCB6IiBpZD0icGF0aDQxNTkiIHN0eWxlPSJvcGFjaXR5OjAuNTtmaWxsLW9wYWNpdHk6MC45OTYwNzk5OSIvPiYjeGE7ICAgICAgPHBhdGggZD0ibSA5ODkuMDIsNjIxLjg5IC01LjA5MzcsLTAuNTkzNzUgYyAtMjEuNTQ1LC0yLjUxMjcgLTM3LjY4OCwtMjUuOTc5IC0zOS4yODEsLTU0LjUzMSBsIC0wLjM3NDk5LC03LjEyNSA1LjI0OTksNC44NDM4IGMgMTUuODg5LDE0LjY4IDI4LjMwMywzMi41MDcgMzcuNDA2LDUyLjc1IGwgMi4wOTM3LDQuNjU2MiB6IiBpZD0icGF0aDQxNjEiIHN0eWxlPSJ0ZXh0LWluZGVudDowO3RleHQtdHJhbnNmb3JtOm5vbmU7YmxvY2stcHJvZ3Jlc3Npb246dGI7Y29sb3I6IzAwMDAwMDtmaWxsOiMyMTIxMjE7c3Ryb2tlOiMxOTE5MTk7c3Ryb2tlLXdpZHRoOjUiLz4mI3hhOyAgICAgIDxwYXRoIGQ9Im0gNzgzLjQ3LDYxMC44OSBjIDAsMCA3OS42NzcsMjIuNTk2IDEwNS4zOCwzMS45ODIgMjYuODM5LDkuODAxOCA5OC44NTksMzkuMTQ2IDk4Ljg1OSwzOS4xNDYgMCwwIC04Ljc0MDksLTQyLjQ3IC0zMC40ODMsLTU3LjkxOCAtNzcuMjMsLTU0Ljg3IC0yMzIuNjksLTUzLjg2IC0yMzIuNjksLTUzLjg2IiBpZD0icGF0aDQxNjMiIHN0eWxlPSJvcGFjaXR5OjAuNTtmaWxsOm5vbmU7c3Ryb2tlOiMyOTI5Mjk7c3Ryb2tlLXdpZHRoOjY7c3Ryb2tlLWxpbmVjYXA6cm91bmQ7c3Ryb2tlLWxpbmVqb2luOnJvdW5kIi8+JiN4YTsgICAgICA8cGF0aCBkPSJtIDg2OS45Nyw2MzEuNTUgLTQuNDM3NCwtMi4zNDM4IGMgMC45ODkxMiwtMS4xNTY4IDEuNzk1NSwtMi40Mjg2IDIuMzc1LC0zLjg0MzggNC43OTc5LC0xMS43MTcgLTEwLjczNiwtMjkuMjM2IC0yNi44NzUsLTM1Ljc4MSAtMC41MTY3NSwtMC4yMDk1OCAtMS44MTI5LC0wLjg0MDY2IC0zLjQwNjIsLTEuNjU2MiBsIDEzLjYyNSwzLjg3NSBjIDE3LjMwNiw4LjQ1NzYgMjcuNDcsMjMuMDgyIDIzLDM0IC0wLjkxNjE1LDIuMjM3MyAtMi4zNzUyLDQuMTY2MSAtNC4yODEyLDUuNzUgeiIgaWQ9InBhdGg0MTY1IiBzdHlsZT0iZmlsbDp1cmwoI2xpbmVhckdyYWRpZW50NDE4NSkiLz4mI3hhOyAgICAgIDxwYXRoIGQ9Im0gODc4LjU1LDYzNi4wMSAtNC40Mzc1LC0yLjM0MzggYyAwLjk4OTEzLC0xLjE1NjggMS43OTU1LC0yLjQyODYgMi4zNzUsLTMuODQzOCA0Ljc5NzksLTExLjcxNyAtMTAuNzM2LC0yOS4yMzYgLTI2Ljg3NSwtMzUuNzgxIC0wLjUxNjc2LC0wLjIwOTU4IC0xLjgxMjksLTAuODQwNjYgLTMuNDA2MiwtMS42NTYyIGwgMTMuNjI1LDMuODc1IGMgMTcuMzA2LDguNDU3NiAyNy40NywyMy4wODIgMjMsMzQgLTAuOTE2MTUsMi4yMzczIC0yLjM3NTIsNC4xNjYxIC00LjI4MTIsNS43NSB6IiBpZD0icGF0aDQxNjciIHN0eWxlPSJmaWxsOnVybCgjbGluZWFyR3JhZGllbnQ0MTg3KSIvPiYjeGE7ICAgICAgPHBhdGggZD0ibSA4ODQuNzQsNjM3LjQyIC00LjQzNzQsLTIuMzQzOCBjIDAuOTg5MTMsLTEuMTU2OCAxLjc5NTUsLTIuNDI4NiAyLjM3NSwtMy44NDM4IDQuNzk3OSwtMTEuNzE3IC0xMC43MzYsLTI5LjIzNiAtMjYuODc1LC0zNS43ODEgLTAuNTE2NzUsLTAuMjA5NTggLTEuODEyOSwtMC44NDA2NiAtMy40MDYyLC0xLjY1NjIgbCAxMy42MjUsMy44NzUgYyAxNy4zMDYsOC40NTc2IDI3LjQ3LDIzLjA4MiAyMywzNCAtMC45MTYxNSwyLjIzNzMgLTIuMzc1Miw0LjE2NjEgLTQuMjgxMiw1Ljc1IHoiIGlkPSJwYXRoNDE2OSIgc3R5bGU9ImZpbGw6dXJsKCNsaW5lYXJHcmFkaWVudDQxODkpIi8+JiN4YTsgICAgICA8cGF0aCBkPSJtIDkwMS42NSw2NDEuNyAtNi4xODc0LC0xLjg0MzggYyAwLjk2MDE1LC0xLjcxMjggMS42NTQ1LC0zLjUzMjMgMi4wMzEyLC01LjQ2ODggMy4xMTk0LC0xNi4wMzQgLTIwLjk2MiwtMzQuMjg0IC00My4wMzEsLTM4LjUgLTMuMzk1LC0wLjY0ODY0IC0yOC44ODQsLTguNTc2IC0zMi4xNTgsLTguODA0NCB2IC00LjEyNSBsIDQxLjQzOSwxMi4xNDggYyAyNi4yODUsNS40OTYzIDQ0Ljk0OSwyMi40NDggNDEuODc1LDM4LjI1IC0wLjU5NTY0LDMuMDYxNiAtMS45NTYsNS44NTk1IC0zLjk2ODcsOC4zNDM4IHoiIGlkPSJwYXRoNDE3MSIgc3R5bGU9ImZpbGw6dXJsKCNsaW5lYXJHcmFkaWVudDQxOTEpIi8+JiN4YTsgICAgICA8cGF0aCBkPSJtIDkwMS42NSw2NDEuNyAtNi4xODc0LC0xLjg0MzggYyAwLjk2MDE1LC0xLjcxMjggMS42NTQ1LC0zLjUzMjMgMi4wMzEyLC01LjQ2ODggMy4xMTk0LC0xNi4wMzQgLTIwLjk2MiwtMzQuMjg0IC00My4wMzEsLTM4LjUgLTMuMzk1LC0wLjY0ODY0IC0yOC44ODQsLTguNTc2IC0zMi4xNTgsLTguODA0NCB2IC00LjEyNSBsIDQxLjQzOSwxMi4xNDggYyAyNi4yODUsNS40OTYzIDQ0Ljk0OSwyMi40NDggNDEuODc1LDM4LjI1IC0wLjU5NTY0LDMuMDYxNiAtMS45NTYsNS44NTk1IC0zLjk2ODcsOC4zNDM4IHoiIGlkPSJwYXRoNDE3MyIgc3R5bGU9ImZpbGw6dXJsKCNsaW5lYXJHcmFkaWVudDQxOTMpIi8+JiN4YTsgICAgICA8cGF0aCBkPSJtIDg1Ny4xMiw2MjYuOTMgLTMuOTY0MSwtMi4wOTM3IGMgMC44ODM2MSwtMS4wMzM0IDEuNjA0LC0yLjE2OTYgMi4xMjE2LC0zLjQzMzcgNC4yODYxLC0xMC40NjcgLTkuNTkwNiwtMjYuMTE3IC0yNC4wMDgsLTMxLjk2NCAtMC40NjE2MywtMC4xODcyMyAtMS42MTk1LC0wLjc1MDk4IC0zLjA0MjgsLTEuNDc5NiBsIDEyLjE3MSwzLjQ2MTYgYyAxNS40Niw3LjU1NTQgMjQuNTQsMjAuNjIgMjAuNTQ2LDMwLjM3MyAtMC44MTg0MiwxLjk5ODcgLTIuMTIxOCwzLjcyMTYgLTMuODI0NSw1LjEzNjYgeiIgaWQ9InBhdGg0MTc1IiBzdHlsZT0iZmlsbDp1cmwoI2xpbmVhckdyYWRpZW50NDE5NSkiLz4mI3hhOyAgICAgIDxwYXRoIGQ9Im0gODQzLjMyLDYyMy4zNiAtMy45NjQxLC0yLjA5MzcgYyAwLjg4MzYxLC0xLjAzMzQgMS42MDQsLTIuMTY5NiAyLjEyMTYsLTMuNDMzNyA0LjI4NjEsLTEwLjQ2NyAtOS41OTA2LC0yNi4xMTcgLTI0LjAwOCwtMzEuOTY0IC0wLjQ2MTYyLC0wLjE4NzIzIC0xLjYxOTUsLTAuNzUwOTggLTMuMDQyOCwtMS40Nzk2IGwgMTIuMTcxLDMuNDYxNiBjIDE1LjQ2LDcuNTU1NCAyNC41NCwyMC42MiAyMC41NDYsMzAuMzczIC0wLjgxODQyLDEuOTk4NyAtMi4xMjE4LDMuNzIxNiAtMy44MjQ1LDUuMTM2NiB6IiBpZD0icGF0aDQxNzciIHN0eWxlPSJmaWxsOnVybCgjbGluZWFyR3JhZGllbnQ0MTk3KSIvPiYjeGE7ICAgICAgPHBhdGggZD0ibSAyMzMuMjcsNjAzLjY2IGMgOC4yOTMsMi4wMjM0IDE1LjQ4NiwxLjQ3ODggMTkuNzk3LC01Ljc4NzIgbCAtMi40OTM0LC0xNy44OTcgYyAtNi44NzUxLC02LjE3MzIgLTEzLjc1LC00Ljk1MDkgLTIwLjYyNSwtMC4xNTU0MyBsIDMuMzIxMiwyMy44MzkgeiIgaWQ9InBhdGg0MTc5IiBzdHlsZT0iZmlsbDp1cmwoI2xpbmVhckdyYWRpZW50NDE5OSkiLz4mI3hhOyAgICAgIDxwYXRoIGQ9Im0gMjUzLjU0LDYwMC40IGMgOC4xNTAyLDEuMjEwMiAxNS4xNjcsMC41NzI4IDE4Ljg0MywtNS41MDgxIGwgLTIuMzczMSwtMTcuMDM0IGMgLTYuNDgzOSwtMi45NzQ4IC0xMi45ODMsLTUuMjA5NiAtMTkuNjMxLC0wLjE0NzkzIGwgMy4xNjExLDIyLjY5IHoiIGlkPSJwYXRoNDE4MSIgc3R5bGU9ImZpbGw6dXJsKCNsaW5lYXJHcmFkaWVudDQyMDEpIi8+JiN4YTsgICAgICA8cGF0aCBkPSJtIDQwMC4zNCw1OTYuNjQgYyAtMzMuNDU0LDAgLTY1LjQ5MiwtMS43ODk0IC05NS4wOTMsLTUuMDYyNSBsIC0zLjY1NjIsLTAuNDA2MjUgMS43MTg3LC0zLjI1IGMgNi42NzExLC0xMi42NjQgMTYuNTYyLC0yMS4xMTMgMjkuMDYyLC0yNi40MzggMTIuNTAxLC01LjMyNDEgMjcuNTcyLC03LjYxMjYgNDUuMDkzLC04LjQzNzUgMzUuMDQyLC0xLjY0OTggNzkuOTU0LDIuNjMxMiAxMzMuNTksMiA0OS42NTksLTAuNTg0MzggODkuNTA4LC0xLjg3ODcgMTIxLjUzLC0yLjM3NSBsIDEuMTI1LDQuNzUgYyAtNDcuODQ5LDIzLjY3NSAtMTM0LjM2LDM5LjIxOSAtMjMzLjM3LDM5LjIxOSB6IG0gMCwtNSBjIDkxLjE2OSwwIDE3MS43NSwtMTMuNDc5IDIyMC4wOSwtMzMuNzE5IC0yOS45NTIsMC41ODI0MSAtNjUuMjEyLDEuNjA2IC0xMDkuMzEsMi4xMjUgLTUzLjkzNywwLjYzNDczIC05OC45NzYsLTMuNjUyMiAtMTMzLjQsLTIuMDMxMiAtMTcuMjE0LDAuODEwNDYgLTMxLjc2NywzLjEwNTQgLTQzLjQwNiw4LjA2MjUgLTEwLjQ1Myw0LjQ1MjEgLTE4LjQ4NSwxMS4xNTQgLTI0LjUsMjAuOTA2IDI4LjMwNywyLjk4MzEgNTguNzM1LDQuNjU2MiA5MC41Myw0LjY1NjIgeiIgaWQ9InBhdGg0MTgzIiBzdHlsZT0idGV4dC1pbmRlbnQ6MDt0ZXh0LXRyYW5zZm9ybTpub25lO2Jsb2NrLXByb2dyZXNzaW9uOnRiO29wYWNpdHk6MC45O2NvbG9yOiMwMDAwMDA7ZmlsbDojMTkxOTE5Ii8+JiN4YTsgICAgPC9nPiYjeGE7ICA8L2c+JiN4YTsgIDxtZXRhZGF0YSBpZD0ibWV0YWRhdGE2MCI+JiN4YTsgICAgPHJkZjpSREY+JiN4YTsgICAgICA8Y2M6V29yaz4mI3hhOyAgICAgICAgPGRjOmZvcm1hdD5pbWFnZS9zdmcreG1sPC9kYzpmb3JtYXQ+JiN4YTsgICAgICAgIDxkYzp0eXBlIHJkZjpyZXNvdXJjZT0iaHR0cDovL3B1cmwub3JnL2RjL2RjbWl0eXBlL1N0aWxsSW1hZ2UiLz4mI3hhOyAgICAgICAgPGNjOmxpY2Vuc2UgcmRmOnJlc291cmNlPSJodHRwOi8vY3JlYXRpdmVjb21tb25zLm9yZy9saWNlbnNlcy9wdWJsaWNkb21haW4vIi8+JiN4YTsgICAgICAgIDxkYzpwdWJsaXNoZXI+JiN4YTsgICAgICAgICAgPGNjOkFnZW50IHJkZjphYm91dD0iaHR0cDovL29wZW5jbGlwYXJ0Lm9yZy8iPiYjeGE7ICAgICAgICAgICAgPGRjOnRpdGxlPk9wZW5jbGlwYXJ0PC9kYzp0aXRsZT4mI3hhOyAgICAgICAgICA8L2NjOkFnZW50PiYjeGE7ICAgICAgICA8L2RjOnB1Ymxpc2hlcj4mI3hhOyAgICAgICAgPGRjOnRpdGxlPlJlZCBDYXIgLSBUb3AgVmlldzwvZGM6dGl0bGU+JiN4YTsgICAgICAgIDxkYzpkYXRlPjIwMTAtMDUtMTlUMTU6MDI6MTI8L2RjOmRhdGU+JiN4YTsgICAgICAgIDxkYzpkZXNjcmlwdGlvbj5JIHdhcyB0aGlua2luZyBvZiBUcm9waHkgKCBodHRwOi8vdHJvcGh5LnNvdXJjZWZvcmdlLm5ldC9pbmRleC5waHA/Ym9keT1zY3JlZW5zaG90cyApIHdoZW4gcmVtaXhpbmcgdGhpcyBvbmUgOik8L2RjOmRlc2NyaXB0aW9uPiYjeGE7ICAgICAgICA8ZGM6c291cmNlPmh0dHA6Ly9vcGVuY2xpcGFydC5vcmcvZGV0YWlsLzYxMjAxL3JlZC1yYWNpbmctY2FyLXRvcC12aWV3LWJ5LXF1Ym9kdXA8L2RjOnNvdXJjZT4mI3hhOyAgICAgICAgPGRjOmNyZWF0b3I+JiN4YTsgICAgICAgICAgPGNjOkFnZW50PiYjeGE7ICAgICAgICAgICAgPGRjOnRpdGxlPnF1Ym9kdXA8L2RjOnRpdGxlPiYjeGE7ICAgICAgICAgIDwvY2M6QWdlbnQ+JiN4YTsgICAgICAgIDwvZGM6Y3JlYXRvcj4mI3hhOyAgICAgICAgPGRjOnN1YmplY3Q+JiN4YTsgICAgICAgICAgPHJkZjpCYWc+JiN4YTsgICAgICAgICAgICA8cmRmOmxpPmNhcjwvcmRmOmxpPiYjeGE7ICAgICAgICAgICAgPHJkZjpsaT5jbGlwIGFydDwvcmRmOmxpPiYjeGE7ICAgICAgICAgICAgPHJkZjpsaT5jbGlwYXJ0PC9yZGY6bGk+JiN4YTsgICAgICAgICAgICA8cmRmOmxpPmdhbWU8L3JkZjpsaT4mI3hhOyAgICAgICAgICAgIDxyZGY6bGk+Z2FtZSBzcHJpdGU8L3JkZjpsaT4mI3hhOyAgICAgICAgICAgIDxyZGY6bGk+cmFjaW5nPC9yZGY6bGk+JiN4YTsgICAgICAgICAgICA8cmRmOmxpPnJhY2luZyBjYXI8L3JkZjpsaT4mI3hhOyAgICAgICAgICAgIDxyZGY6bGk+cmVkPC9yZGY6bGk+JiN4YTsgICAgICAgICAgICA8cmRmOmxpPnJlZCBjYXI8L3JkZjpsaT4mI3hhOyAgICAgICAgICAgIDxyZGY6bGk+c2ltcGxlPC9yZGY6bGk+JiN4YTsgICAgICAgICAgICA8cmRmOmxpPnNpbXBsZSBjYXI8L3JkZjpsaT4mI3hhOyAgICAgICAgICAgIDxyZGY6bGk+c3ByaXRlPC9yZGY6bGk+JiN4YTsgICAgICAgICAgICA8cmRmOmxpPnRyYW5zcG9ydDwvcmRmOmxpPiYjeGE7ICAgICAgICAgICAgPHJkZjpsaT50cmFuc3BvcnRhdGlvbjwvcmRmOmxpPiYjeGE7ICAgICAgICAgICAgPHJkZjpsaT50cmF2ZWw8L3JkZjpsaT4mI3hhOyAgICAgICAgICAgIDxyZGY6bGk+dmlkZW8gZ2FtZTwvcmRmOmxpPiYjeGE7ICAgICAgICAgICAgPHJkZjpsaT52aWRlbyBnYW1lIGFydDwvcmRmOmxpPiYjeGE7ICAgICAgICAgICAgPHJkZjpsaT52aWRlbyBnYW1lIHNwcml0ZTwvcmRmOmxpPiYjeGE7ICAgICAgICAgIDwvcmRmOkJhZz4mI3hhOyAgICAgICAgPC9kYzpzdWJqZWN0PiYjeGE7ICAgICAgPC9jYzpXb3JrPiYjeGE7ICAgICAgPGNjOkxpY2Vuc2UgcmRmOmFib3V0PSJodHRwOi8vY3JlYXRpdmVjb21tb25zLm9yZy9saWNlbnNlcy9wdWJsaWNkb21haW4vIj4mI3hhOyAgICAgICAgPGNjOnBlcm1pdHMgcmRmOnJlc291cmNlPSJodHRwOi8vY3JlYXRpdmVjb21tb25zLm9yZy9ucyNSZXByb2R1Y3Rpb24iLz4mI3hhOyAgICAgICAgPGNjOnBlcm1pdHMgcmRmOnJlc291cmNlPSJodHRwOi8vY3JlYXRpdmVjb21tb25zLm9yZy9ucyNEaXN0cmlidXRpb24iLz4mI3hhOyAgICAgICAgPGNjOnBlcm1pdHMgcmRmOnJlc291cmNlPSJodHRwOi8vY3JlYXRpdmVjb21tb25zLm9yZy9ucyNEZXJpdmF0aXZlV29ya3MiLz4mI3hhOyAgICAgIDwvY2M6TGljZW5zZT4mI3hhOyAgICA8L3JkZjpSREY+JiN4YTsgIDwvbWV0YWRhdGE+JiN4YTs8L3N2Zz4=;" vertex="1" parent="1">
                    <mxGeometry x="101" y="582" width="79" height="39" as="geometry"/>
                </mxCell>
                <mxCell id="151" value="" style="endArrow=none;html=1;entryX=0.336;entryY=-0.008;entryDx=0;entryDy=0;entryPerimeter=0;strokeWidth=5;strokeColor=#FFFFFF;" edge="1" parent="1" target="144">
                    <mxGeometry width="50" height="50" relative="1" as="geometry">
                        <mxPoint x="60" y="567" as="sourcePoint"/>
                        <mxPoint x="541" y="595" as="targetPoint"/>
                    </mxGeometry>
                </mxCell>
                <mxCell id="152" value="" style="endArrow=classic;html=1;strokeColor=#FF8000;strokeWidth=3;exitX=1;exitY=0.5;exitDx=0;exitDy=0;startArrow=none;" edge="1" parent="1" source="157">
                    <mxGeometry width="50" height="50" relative="1" as="geometry">
                        <mxPoint x="241" y="560.5" as="sourcePoint"/>
                        <mxPoint x="511" y="560" as="targetPoint"/>
                        <Array as="points">
                            <mxPoint x="281" y="602"/>
                            <mxPoint x="311" y="590"/>
                            <mxPoint x="341" y="570"/>
                            <mxPoint x="371" y="560"/>
                            <mxPoint x="401" y="560"/>
                            <mxPoint x="431" y="560"/>
                        </Array>
                    </mxGeometry>
                </mxCell>
                <mxCell id="153" value="" style="ellipse;whiteSpace=wrap;html=1;strokeColor=none;fillColor=#020203;" vertex="1" parent="1">
                    <mxGeometry x="401" y="555" width="10" height="10" as="geometry"/>
                </mxCell>
                <mxCell id="157" value="" style="ellipse;whiteSpace=wrap;html=1;strokeColor=none;fillColor=#020203;" vertex="1" parent="1">
                    <mxGeometry x="271" y="596.5" width="10" height="10" as="geometry"/>
                </mxCell>
                <mxCell id="158" value="" style="endArrow=none;html=1;strokeColor=#FF8000;strokeWidth=3;exitX=1;exitY=0.5;exitDx=0;exitDy=0;" edge="1" parent="1" source="150" target="157">
                    <mxGeometry width="50" height="50" relative="1" as="geometry">
                        <mxPoint x="179.9999999999999" y="601.5" as="sourcePoint"/>
                        <mxPoint x="481" y="560" as="targetPoint"/>
                        <Array as="points"/>
                    </mxGeometry>
                </mxCell>
                <mxCell id="159" value="" style="endArrow=none;html=1;strokeColor=#020203;strokeWidth=2;entryX=0;entryY=0;entryDx=0;entryDy=0;" edge="1" parent="1" source="149" target="157">
                    <mxGeometry width="50" height="50" relative="1" as="geometry">
                        <mxPoint x="360.2477183232129" y="510" as="sourcePoint"/>
                        <mxPoint x="412.4644660940671" y="566.4644660940672" as="targetPoint"/>
                    </mxGeometry>
                </mxCell>
                <mxCell id="160" value="" style="ellipse;whiteSpace=wrap;html=1;strokeColor=none;fillColor=#020203;" vertex="1" parent="1">
                    <mxGeometry x="507" y="555" width="10" height="10" as="geometry"/>
                </mxCell>
                <mxCell id="161" value="" style="endArrow=none;html=1;strokeColor=#020203;strokeWidth=2;entryX=0;entryY=0;entryDx=0;entryDy=0;" edge="1" parent="1">
                    <mxGeometry width="50" height="50" relative="1" as="geometry">
                        <mxPoint x="531" y="500" as="sourcePoint"/>
                        <mxPoint x="513.2144660940671" y="556.4644660940671" as="targetPoint"/>
                    </mxGeometry>
                </mxCell>
                <mxCell id="162" value="goal" style="text;html=1;resizable=0;points=[];autosize=1;align=left;verticalAlign=top;spacingTop=-4;fontColor=#050505;fontSize=14;" vertex="1" parent="1">
                    <mxGeometry x="517" y="480" width="40" height="20" as="geometry"/>
                </mxCell>
                <mxCell id="163" value="" style="endArrow=none;html=1;shadow=0;strokeColor=#050505;strokeWidth=2;entryX=0.5;entryY=1;entryDx=0;entryDy=0;" edge="1" parent="1" target="153">
                    <mxGeometry width="50" height="50" relative="1" as="geometry">
                        <mxPoint x="406" y="720" as="sourcePoint"/>
                        <mxPoint x="380" y="520" as="targetPoint"/>
                        <Array as="points"/>
                    </mxGeometry>
                </mxCell>
                <mxCell id="164" value="" style="endArrow=none;html=1;shadow=0;strokeColor=#050505;strokeWidth=2;entryX=0.5;entryY=1;entryDx=0;entryDy=0;" edge="1" parent="1">
                    <mxGeometry width="50" height="50" relative="1" as="geometry">
                        <mxPoint x="511.8299999999999" y="720" as="sourcePoint"/>
                        <mxPoint x="511.8299999999999" y="565" as="targetPoint"/>
                        <Array as="points"/>
                    </mxGeometry>
                </mxCell>
                <mxCell id="165" value="" style="endArrow=classic;startArrow=classic;html=1;strokeColor=#050505;" edge="1" parent="1">
                    <mxGeometry width="50" height="50" relative="1" as="geometry">
                        <mxPoint x="410" y="700" as="sourcePoint"/>
                        <mxPoint x="510" y="700" as="targetPoint"/>
                    </mxGeometry>
                </mxCell>
                <mxCell id="166" value="" style="endArrow=classic;startArrow=classic;html=1;strokeColor=#050505;" edge="1" parent="1">
                    <mxGeometry width="50" height="50" relative="1" as="geometry">
                        <mxPoint x="280" y="700" as="sourcePoint"/>
                        <mxPoint x="401" y="700" as="targetPoint"/>
                    </mxGeometry>
                </mxCell>
                <mxCell id="167" value="fixed straight distance" style="text;html=1;resizable=0;points=[];autosize=1;align=left;verticalAlign=top;spacingTop=-4;fontColor=#050505;fontSize=14;" vertex="1" parent="1">
                    <mxGeometry x="411" y="735" width="150" height="20" as="geometry"/>
                </mxCell>
                <mxCell id="168" value="" style="endArrow=none;html=1;shadow=0;strokeColor=#050505;strokeWidth=2;entryX=0.5;entryY=1;entryDx=0;entryDy=0;" edge="1" parent="1">
                    <mxGeometry width="50" height="50" relative="1" as="geometry">
                        <mxPoint x="276" y="720" as="sourcePoint"/>
                        <mxPoint x="275.76" y="605" as="targetPoint"/>
                        <Array as="points"/>
                    </mxGeometry>
                </mxCell>
                <mxCell id="169" value="pull over distance" style="text;html=1;resizable=0;points=[];autosize=1;align=left;verticalAlign=top;spacingTop=-4;fontColor=#050505;fontSize=14;" vertex="1" parent="1">
                    <mxGeometry x="281" y="735" width="120" height="20" as="geometry"/>
                </mxCell>
                <mxCell id="170" value="" style="endArrow=classic;startArrow=classic;html=1;shadow=0;strokeWidth=2;dashed=1;fillColor=#a20025;strokeColor=#EB0000;" edge="1" parent="1">
                    <mxGeometry width="50" height="50" relative="1" as="geometry">
                        <mxPoint x="820" y="600" as="sourcePoint"/>
                        <mxPoint x="870" y="380" as="targetPoint"/>
                    </mxGeometry>
                </mxCell>
                <mxCell id="171" value="&lt;font style=&quot;font-size: 14px;&quot;&gt;combine&lt;/font&gt;&lt;br style=&quot;font-size: 14px;&quot;&gt;" style="text;html=1;align=center;verticalAlign=middle;resizable=0;points=[];autosize=1;strokeColor=none;fontSize=14;fontColor=#EB0000;" vertex="1" parent="1">
                    <mxGeometry x="851.5" y="480" width="70" height="20" as="geometry"/>
                </mxCell>
            </root>
        </mxGraphModel>
    </diagram>
</mxfile>